%TF.GenerationSoftware,KiCad,Pcbnew,(5.1.9)-1*%
%TF.CreationDate,2022-03-20T18:05:12-04:00*%
%TF.ProjectId,essence-pcb-rev_1,65737365-6e63-4652-9d70-63622d726576,rev?*%
%TF.SameCoordinates,Original*%
%TF.FileFunction,Soldermask,Top*%
%TF.FilePolarity,Negative*%
%FSLAX46Y46*%
G04 Gerber Fmt 4.6, Leading zero omitted, Abs format (unit mm)*
G04 Created by KiCad (PCBNEW (5.1.9)-1) date 2022-03-20 18:05:12*
%MOMM*%
%LPD*%
G01*
G04 APERTURE LIST*
%ADD10C,0.150000*%
%ADD11C,1.200000*%
%ADD12C,2.100000*%
%ADD13C,1.750000*%
%ADD14R,2.000000X3.250000*%
%ADD15R,3.250000X2.000000*%
%ADD16C,1.752600*%
%ADD17R,1.752600X1.752600*%
%ADD18C,2.000000*%
%ADD19R,2.000000X3.200000*%
%ADD20R,2.000000X2.000000*%
%ADD21C,3.987800*%
%ADD22C,3.048000*%
%ADD23O,1.600000X1.600000*%
%ADD24R,1.600000X1.600000*%
%ADD25C,0.100000*%
G04 APERTURE END LIST*
D10*
X84719047Y-134596130D02*
X84719047Y-133596130D01*
X84957142Y-133596130D01*
X85100000Y-133643750D01*
X85195238Y-133738988D01*
X85242857Y-133834226D01*
X85290476Y-134024702D01*
X85290476Y-134167559D01*
X85242857Y-134358035D01*
X85195238Y-134453273D01*
X85100000Y-134548511D01*
X84957142Y-134596130D01*
X84719047Y-134596130D01*
X86100000Y-134548511D02*
X86004761Y-134596130D01*
X85814285Y-134596130D01*
X85719047Y-134548511D01*
X85671428Y-134453273D01*
X85671428Y-134072321D01*
X85719047Y-133977083D01*
X85814285Y-133929464D01*
X86004761Y-133929464D01*
X86100000Y-133977083D01*
X86147619Y-134072321D01*
X86147619Y-134167559D01*
X85671428Y-134262797D01*
X86528571Y-134548511D02*
X86623809Y-134596130D01*
X86814285Y-134596130D01*
X86909523Y-134548511D01*
X86957142Y-134453273D01*
X86957142Y-134405654D01*
X86909523Y-134310416D01*
X86814285Y-134262797D01*
X86671428Y-134262797D01*
X86576190Y-134215178D01*
X86528571Y-134119940D01*
X86528571Y-134072321D01*
X86576190Y-133977083D01*
X86671428Y-133929464D01*
X86814285Y-133929464D01*
X86909523Y-133977083D01*
X87385714Y-134596130D02*
X87385714Y-133929464D01*
X87385714Y-133596130D02*
X87338095Y-133643750D01*
X87385714Y-133691369D01*
X87433333Y-133643750D01*
X87385714Y-133596130D01*
X87385714Y-133691369D01*
X88290476Y-133929464D02*
X88290476Y-134738988D01*
X88242857Y-134834226D01*
X88195238Y-134881845D01*
X88100000Y-134929464D01*
X87957142Y-134929464D01*
X87861904Y-134881845D01*
X88290476Y-134548511D02*
X88195238Y-134596130D01*
X88004761Y-134596130D01*
X87909523Y-134548511D01*
X87861904Y-134500892D01*
X87814285Y-134405654D01*
X87814285Y-134119940D01*
X87861904Y-134024702D01*
X87909523Y-133977083D01*
X88004761Y-133929464D01*
X88195238Y-133929464D01*
X88290476Y-133977083D01*
X88766666Y-133929464D02*
X88766666Y-134596130D01*
X88766666Y-134024702D02*
X88814285Y-133977083D01*
X88909523Y-133929464D01*
X89052380Y-133929464D01*
X89147619Y-133977083D01*
X89195238Y-134072321D01*
X89195238Y-134596130D01*
X90052380Y-134548511D02*
X89957142Y-134596130D01*
X89766666Y-134596130D01*
X89671428Y-134548511D01*
X89623809Y-134453273D01*
X89623809Y-134072321D01*
X89671428Y-133977083D01*
X89766666Y-133929464D01*
X89957142Y-133929464D01*
X90052380Y-133977083D01*
X90100000Y-134072321D01*
X90100000Y-134167559D01*
X89623809Y-134262797D01*
X90957142Y-134596130D02*
X90957142Y-133596130D01*
X90957142Y-134548511D02*
X90861904Y-134596130D01*
X90671428Y-134596130D01*
X90576190Y-134548511D01*
X90528571Y-134500892D01*
X90480952Y-134405654D01*
X90480952Y-134119940D01*
X90528571Y-134024702D01*
X90576190Y-133977083D01*
X90671428Y-133929464D01*
X90861904Y-133929464D01*
X90957142Y-133977083D01*
X92195238Y-134596130D02*
X92195238Y-133596130D01*
X92195238Y-133977083D02*
X92290476Y-133929464D01*
X92480952Y-133929464D01*
X92576190Y-133977083D01*
X92623809Y-134024702D01*
X92671428Y-134119940D01*
X92671428Y-134405654D01*
X92623809Y-134500892D01*
X92576190Y-134548511D01*
X92480952Y-134596130D01*
X92290476Y-134596130D01*
X92195238Y-134548511D01*
X93004761Y-133929464D02*
X93242857Y-134596130D01*
X93480952Y-133929464D02*
X93242857Y-134596130D01*
X93147619Y-134834226D01*
X93100000Y-134881845D01*
X93004761Y-134929464D01*
X94623809Y-134596130D02*
X94623809Y-133596130D01*
X94623809Y-134072321D02*
X95195238Y-134072321D01*
X95195238Y-134596130D02*
X95195238Y-133596130D01*
X95576190Y-133929464D02*
X95814285Y-134596130D01*
X96052380Y-133929464D02*
X95814285Y-134596130D01*
X95719047Y-134834226D01*
X95671428Y-134881845D01*
X95576190Y-134929464D01*
X96433333Y-133929464D02*
X96433333Y-134929464D01*
X96433333Y-133977083D02*
X96528571Y-133929464D01*
X96719047Y-133929464D01*
X96814285Y-133977083D01*
X96861904Y-134024702D01*
X96909523Y-134119940D01*
X96909523Y-134405654D01*
X96861904Y-134500892D01*
X96814285Y-134548511D01*
X96719047Y-134596130D01*
X96528571Y-134596130D01*
X96433333Y-134548511D01*
X97719047Y-134548511D02*
X97623809Y-134596130D01*
X97433333Y-134596130D01*
X97338095Y-134548511D01*
X97290476Y-134453273D01*
X97290476Y-134072321D01*
X97338095Y-133977083D01*
X97433333Y-133929464D01*
X97623809Y-133929464D01*
X97719047Y-133977083D01*
X97766666Y-134072321D01*
X97766666Y-134167559D01*
X97290476Y-134262797D01*
X98195238Y-134596130D02*
X98195238Y-133929464D01*
X98195238Y-134119940D02*
X98242857Y-134024702D01*
X98290476Y-133977083D01*
X98385714Y-133929464D01*
X98480952Y-133929464D01*
X98814285Y-134215178D02*
X99576190Y-134215178D01*
X99957142Y-133929464D02*
X100147619Y-134596130D01*
X100338095Y-134119940D01*
X100528571Y-134596130D01*
X100719047Y-133929464D01*
X101242857Y-134596130D02*
X101147619Y-134548511D01*
X101100000Y-134500892D01*
X101052380Y-134405654D01*
X101052380Y-134119940D01*
X101100000Y-134024702D01*
X101147619Y-133977083D01*
X101242857Y-133929464D01*
X101385714Y-133929464D01*
X101480952Y-133977083D01*
X101528571Y-134024702D01*
X101576190Y-134119940D01*
X101576190Y-134405654D01*
X101528571Y-134500892D01*
X101480952Y-134548511D01*
X101385714Y-134596130D01*
X101242857Y-134596130D01*
X102004761Y-134596130D02*
X102004761Y-133929464D01*
X102004761Y-134119940D02*
X102052380Y-134024702D01*
X102100000Y-133977083D01*
X102195238Y-133929464D01*
X102290476Y-133929464D01*
X102623809Y-134596130D02*
X102623809Y-133596130D01*
X102719047Y-134215178D02*
X103004761Y-134596130D01*
X103004761Y-133929464D02*
X102623809Y-134310416D01*
X103385714Y-134548511D02*
X103480952Y-134596130D01*
X103671428Y-134596130D01*
X103766666Y-134548511D01*
X103814285Y-134453273D01*
X103814285Y-134405654D01*
X103766666Y-134310416D01*
X103671428Y-134262797D01*
X103528571Y-134262797D01*
X103433333Y-134215178D01*
X103385714Y-134119940D01*
X103385714Y-134072321D01*
X103433333Y-133977083D01*
X103528571Y-133929464D01*
X103671428Y-133929464D01*
X103766666Y-133977083D01*
X104290476Y-134548511D02*
X104290476Y-134596130D01*
X104242857Y-134691369D01*
X104195238Y-134738988D01*
X105909523Y-134548511D02*
X105814285Y-134596130D01*
X105623809Y-134596130D01*
X105528571Y-134548511D01*
X105480952Y-134500892D01*
X105433333Y-134405654D01*
X105433333Y-134119940D01*
X105480952Y-134024702D01*
X105528571Y-133977083D01*
X105623809Y-133929464D01*
X105814285Y-133929464D01*
X105909523Y-133977083D01*
X106338095Y-134596130D02*
X106338095Y-133929464D01*
X106338095Y-133596130D02*
X106290476Y-133643750D01*
X106338095Y-133691369D01*
X106385714Y-133643750D01*
X106338095Y-133596130D01*
X106338095Y-133691369D01*
X106814285Y-134596130D02*
X106814285Y-133929464D01*
X106814285Y-134119940D02*
X106861904Y-134024702D01*
X106909523Y-133977083D01*
X107004761Y-133929464D01*
X107100000Y-133929464D01*
X107861904Y-134548511D02*
X107766666Y-134596130D01*
X107576190Y-134596130D01*
X107480952Y-134548511D01*
X107433333Y-134500892D01*
X107385714Y-134405654D01*
X107385714Y-134119940D01*
X107433333Y-134024702D01*
X107480952Y-133977083D01*
X107576190Y-133929464D01*
X107766666Y-133929464D01*
X107861904Y-133977083D01*
X108719047Y-134596130D02*
X108719047Y-134072321D01*
X108671428Y-133977083D01*
X108576190Y-133929464D01*
X108385714Y-133929464D01*
X108290476Y-133977083D01*
X108719047Y-134548511D02*
X108623809Y-134596130D01*
X108385714Y-134596130D01*
X108290476Y-134548511D01*
X108242857Y-134453273D01*
X108242857Y-134358035D01*
X108290476Y-134262797D01*
X108385714Y-134215178D01*
X108623809Y-134215178D01*
X108719047Y-134167559D01*
X109957142Y-134596130D02*
X109957142Y-133596130D01*
X110290476Y-134310416D01*
X110623809Y-133596130D01*
X110623809Y-134596130D01*
X111528571Y-134596130D02*
X111528571Y-134072321D01*
X111480952Y-133977083D01*
X111385714Y-133929464D01*
X111195238Y-133929464D01*
X111100000Y-133977083D01*
X111528571Y-134548511D02*
X111433333Y-134596130D01*
X111195238Y-134596130D01*
X111100000Y-134548511D01*
X111052380Y-134453273D01*
X111052380Y-134358035D01*
X111100000Y-134262797D01*
X111195238Y-134215178D01*
X111433333Y-134215178D01*
X111528571Y-134167559D01*
X112004761Y-134596130D02*
X112004761Y-133929464D01*
X112004761Y-134119940D02*
X112052380Y-134024702D01*
X112100000Y-133977083D01*
X112195238Y-133929464D01*
X112290476Y-133929464D01*
X113052380Y-134548511D02*
X112957142Y-134596130D01*
X112766666Y-134596130D01*
X112671428Y-134548511D01*
X112623809Y-134500892D01*
X112576190Y-134405654D01*
X112576190Y-134119940D01*
X112623809Y-134024702D01*
X112671428Y-133977083D01*
X112766666Y-133929464D01*
X112957142Y-133929464D01*
X113052380Y-133977083D01*
X113480952Y-134596130D02*
X113480952Y-133596130D01*
X113909523Y-134596130D02*
X113909523Y-134072321D01*
X113861904Y-133977083D01*
X113766666Y-133929464D01*
X113623809Y-133929464D01*
X113528571Y-133977083D01*
X113480952Y-134024702D01*
X115100000Y-133691369D02*
X115147619Y-133643750D01*
X115242857Y-133596130D01*
X115480952Y-133596130D01*
X115576190Y-133643750D01*
X115623809Y-133691369D01*
X115671428Y-133786607D01*
X115671428Y-133881845D01*
X115623809Y-134024702D01*
X115052380Y-134596130D01*
X115671428Y-134596130D01*
X116290476Y-133596130D02*
X116385714Y-133596130D01*
X116480952Y-133643750D01*
X116528571Y-133691369D01*
X116576190Y-133786607D01*
X116623809Y-133977083D01*
X116623809Y-134215178D01*
X116576190Y-134405654D01*
X116528571Y-134500892D01*
X116480952Y-134548511D01*
X116385714Y-134596130D01*
X116290476Y-134596130D01*
X116195238Y-134548511D01*
X116147619Y-134500892D01*
X116100000Y-134405654D01*
X116052380Y-134215178D01*
X116052380Y-133977083D01*
X116100000Y-133786607D01*
X116147619Y-133691369D01*
X116195238Y-133643750D01*
X116290476Y-133596130D01*
X117004761Y-133691369D02*
X117052380Y-133643750D01*
X117147619Y-133596130D01*
X117385714Y-133596130D01*
X117480952Y-133643750D01*
X117528571Y-133691369D01*
X117576190Y-133786607D01*
X117576190Y-133881845D01*
X117528571Y-134024702D01*
X116957142Y-134596130D01*
X117576190Y-134596130D01*
X117957142Y-133691369D02*
X118004761Y-133643750D01*
X118100000Y-133596130D01*
X118338095Y-133596130D01*
X118433333Y-133643750D01*
X118480952Y-133691369D01*
X118528571Y-133786607D01*
X118528571Y-133881845D01*
X118480952Y-134024702D01*
X117909523Y-134596130D01*
X118528571Y-134596130D01*
X88068154Y-128516071D02*
X88401488Y-128516071D01*
X88544345Y-129039880D02*
X88068154Y-129039880D01*
X88068154Y-128039880D01*
X88544345Y-128039880D01*
X88925297Y-128992261D02*
X89020535Y-129039880D01*
X89211011Y-129039880D01*
X89306250Y-128992261D01*
X89353869Y-128897023D01*
X89353869Y-128849404D01*
X89306250Y-128754166D01*
X89211011Y-128706547D01*
X89068154Y-128706547D01*
X88972916Y-128658928D01*
X88925297Y-128563690D01*
X88925297Y-128516071D01*
X88972916Y-128420833D01*
X89068154Y-128373214D01*
X89211011Y-128373214D01*
X89306250Y-128420833D01*
X89734821Y-128992261D02*
X89830059Y-129039880D01*
X90020535Y-129039880D01*
X90115773Y-128992261D01*
X90163392Y-128897023D01*
X90163392Y-128849404D01*
X90115773Y-128754166D01*
X90020535Y-128706547D01*
X89877678Y-128706547D01*
X89782440Y-128658928D01*
X89734821Y-128563690D01*
X89734821Y-128516071D01*
X89782440Y-128420833D01*
X89877678Y-128373214D01*
X90020535Y-128373214D01*
X90115773Y-128420833D01*
X90972916Y-128992261D02*
X90877678Y-129039880D01*
X90687202Y-129039880D01*
X90591964Y-128992261D01*
X90544345Y-128897023D01*
X90544345Y-128516071D01*
X90591964Y-128420833D01*
X90687202Y-128373214D01*
X90877678Y-128373214D01*
X90972916Y-128420833D01*
X91020535Y-128516071D01*
X91020535Y-128611309D01*
X90544345Y-128706547D01*
X91449107Y-128373214D02*
X91449107Y-129039880D01*
X91449107Y-128468452D02*
X91496726Y-128420833D01*
X91591964Y-128373214D01*
X91734821Y-128373214D01*
X91830059Y-128420833D01*
X91877678Y-128516071D01*
X91877678Y-129039880D01*
X92782440Y-128992261D02*
X92687202Y-129039880D01*
X92496726Y-129039880D01*
X92401488Y-128992261D01*
X92353869Y-128944642D01*
X92306250Y-128849404D01*
X92306250Y-128563690D01*
X92353869Y-128468452D01*
X92401488Y-128420833D01*
X92496726Y-128373214D01*
X92687202Y-128373214D01*
X92782440Y-128420833D01*
X93591964Y-128992261D02*
X93496726Y-129039880D01*
X93306250Y-129039880D01*
X93211011Y-128992261D01*
X93163392Y-128897023D01*
X93163392Y-128516071D01*
X93211011Y-128420833D01*
X93306250Y-128373214D01*
X93496726Y-128373214D01*
X93591964Y-128420833D01*
X93639583Y-128516071D01*
X93639583Y-128611309D01*
X93163392Y-128706547D01*
X94830059Y-128516071D02*
X95163392Y-128516071D01*
X95306250Y-129039880D02*
X94830059Y-129039880D01*
X94830059Y-128039880D01*
X95306250Y-128039880D01*
X95734821Y-129039880D02*
X95734821Y-128373214D01*
X95734821Y-128563690D02*
X95782440Y-128468452D01*
X95830059Y-128420833D01*
X95925297Y-128373214D01*
X96020535Y-128373214D01*
X96782440Y-128373214D02*
X96782440Y-129182738D01*
X96734821Y-129277976D01*
X96687202Y-129325595D01*
X96591964Y-129373214D01*
X96449107Y-129373214D01*
X96353869Y-129325595D01*
X96782440Y-128992261D02*
X96687202Y-129039880D01*
X96496726Y-129039880D01*
X96401488Y-128992261D01*
X96353869Y-128944642D01*
X96306250Y-128849404D01*
X96306250Y-128563690D01*
X96353869Y-128468452D01*
X96401488Y-128420833D01*
X96496726Y-128373214D01*
X96687202Y-128373214D01*
X96782440Y-128420833D01*
X97401488Y-129039880D02*
X97306250Y-128992261D01*
X97258630Y-128944642D01*
X97211011Y-128849404D01*
X97211011Y-128563690D01*
X97258630Y-128468452D01*
X97306250Y-128420833D01*
X97401488Y-128373214D01*
X97544345Y-128373214D01*
X97639583Y-128420833D01*
X97687202Y-128468452D01*
X97734821Y-128563690D01*
X97734821Y-128849404D01*
X97687202Y-128944642D01*
X97639583Y-128992261D01*
X97544345Y-129039880D01*
X97401488Y-129039880D01*
X98925297Y-129039880D02*
X98925297Y-128039880D01*
X99496726Y-129039880D02*
X99068154Y-128468452D01*
X99496726Y-128039880D02*
X98925297Y-128611309D01*
X100306250Y-128992261D02*
X100211011Y-129039880D01*
X100020535Y-129039880D01*
X99925297Y-128992261D01*
X99877678Y-128897023D01*
X99877678Y-128516071D01*
X99925297Y-128420833D01*
X100020535Y-128373214D01*
X100211011Y-128373214D01*
X100306250Y-128420833D01*
X100353869Y-128516071D01*
X100353869Y-128611309D01*
X99877678Y-128706547D01*
X100687202Y-128373214D02*
X100925297Y-129039880D01*
X101163392Y-128373214D02*
X100925297Y-129039880D01*
X100830059Y-129277976D01*
X100782440Y-129325595D01*
X100687202Y-129373214D01*
X101544345Y-129039880D02*
X101544345Y-128039880D01*
X101544345Y-128420833D02*
X101639583Y-128373214D01*
X101830059Y-128373214D01*
X101925297Y-128420833D01*
X101972916Y-128468452D01*
X102020535Y-128563690D01*
X102020535Y-128849404D01*
X101972916Y-128944642D01*
X101925297Y-128992261D01*
X101830059Y-129039880D01*
X101639583Y-129039880D01*
X101544345Y-128992261D01*
X102591964Y-129039880D02*
X102496726Y-128992261D01*
X102449107Y-128944642D01*
X102401488Y-128849404D01*
X102401488Y-128563690D01*
X102449107Y-128468452D01*
X102496726Y-128420833D01*
X102591964Y-128373214D01*
X102734821Y-128373214D01*
X102830059Y-128420833D01*
X102877678Y-128468452D01*
X102925297Y-128563690D01*
X102925297Y-128849404D01*
X102877678Y-128944642D01*
X102830059Y-128992261D01*
X102734821Y-129039880D01*
X102591964Y-129039880D01*
X103782440Y-129039880D02*
X103782440Y-128516071D01*
X103734821Y-128420833D01*
X103639583Y-128373214D01*
X103449107Y-128373214D01*
X103353869Y-128420833D01*
X103782440Y-128992261D02*
X103687202Y-129039880D01*
X103449107Y-129039880D01*
X103353869Y-128992261D01*
X103306250Y-128897023D01*
X103306250Y-128801785D01*
X103353869Y-128706547D01*
X103449107Y-128658928D01*
X103687202Y-128658928D01*
X103782440Y-128611309D01*
X104258630Y-129039880D02*
X104258630Y-128373214D01*
X104258630Y-128563690D02*
X104306250Y-128468452D01*
X104353869Y-128420833D01*
X104449107Y-128373214D01*
X104544345Y-128373214D01*
X105306250Y-129039880D02*
X105306250Y-128039880D01*
X105306250Y-128992261D02*
X105211011Y-129039880D01*
X105020535Y-129039880D01*
X104925297Y-128992261D01*
X104877678Y-128944642D01*
X104830059Y-128849404D01*
X104830059Y-128563690D01*
X104877678Y-128468452D01*
X104925297Y-128420833D01*
X105020535Y-128373214D01*
X105211011Y-128373214D01*
X105306250Y-128420833D01*
X106544345Y-129039880D02*
X106544345Y-128039880D01*
X106877678Y-128754166D01*
X107211011Y-128039880D01*
X107211011Y-129039880D01*
X107830059Y-129039880D02*
X107734821Y-128992261D01*
X107687202Y-128944642D01*
X107639583Y-128849404D01*
X107639583Y-128563690D01*
X107687202Y-128468452D01*
X107734821Y-128420833D01*
X107830059Y-128373214D01*
X107972916Y-128373214D01*
X108068154Y-128420833D01*
X108115773Y-128468452D01*
X108163392Y-128563690D01*
X108163392Y-128849404D01*
X108115773Y-128944642D01*
X108068154Y-128992261D01*
X107972916Y-129039880D01*
X107830059Y-129039880D01*
X109020535Y-129039880D02*
X109020535Y-128039880D01*
X109020535Y-128992261D02*
X108925297Y-129039880D01*
X108734821Y-129039880D01*
X108639583Y-128992261D01*
X108591964Y-128944642D01*
X108544345Y-128849404D01*
X108544345Y-128563690D01*
X108591964Y-128468452D01*
X108639583Y-128420833D01*
X108734821Y-128373214D01*
X108925297Y-128373214D01*
X109020535Y-128420833D01*
X109877678Y-128992261D02*
X109782440Y-129039880D01*
X109591964Y-129039880D01*
X109496726Y-128992261D01*
X109449107Y-128897023D01*
X109449107Y-128516071D01*
X109496726Y-128420833D01*
X109591964Y-128373214D01*
X109782440Y-128373214D01*
X109877678Y-128420833D01*
X109925297Y-128516071D01*
X109925297Y-128611309D01*
X109449107Y-128706547D01*
X110496726Y-129039880D02*
X110401488Y-128992261D01*
X110353869Y-128897023D01*
X110353869Y-128039880D01*
X111830059Y-128039880D02*
X111925297Y-128039880D01*
X112020535Y-128087500D01*
X112068154Y-128135119D01*
X112115773Y-128230357D01*
X112163392Y-128420833D01*
X112163392Y-128658928D01*
X112115773Y-128849404D01*
X112068154Y-128944642D01*
X112020535Y-128992261D01*
X111925297Y-129039880D01*
X111830059Y-129039880D01*
X111734821Y-128992261D01*
X111687202Y-128944642D01*
X111639583Y-128849404D01*
X111591964Y-128658928D01*
X111591964Y-128420833D01*
X111639583Y-128230357D01*
X111687202Y-128135119D01*
X111734821Y-128087500D01*
X111830059Y-128039880D01*
X112591964Y-128944642D02*
X112639583Y-128992261D01*
X112591964Y-129039880D01*
X112544345Y-128992261D01*
X112591964Y-128944642D01*
X112591964Y-129039880D01*
X113258630Y-128039880D02*
X113353869Y-128039880D01*
X113449107Y-128087500D01*
X113496726Y-128135119D01*
X113544345Y-128230357D01*
X113591964Y-128420833D01*
X113591964Y-128658928D01*
X113544345Y-128849404D01*
X113496726Y-128944642D01*
X113449107Y-128992261D01*
X113353869Y-129039880D01*
X113258630Y-129039880D01*
X113163392Y-128992261D01*
X113115773Y-128944642D01*
X113068154Y-128849404D01*
X113020535Y-128658928D01*
X113020535Y-128420833D01*
X113068154Y-128230357D01*
X113115773Y-128135119D01*
X113163392Y-128087500D01*
X113258630Y-128039880D01*
X304674702Y-130532142D02*
X304627083Y-130579761D01*
X304484226Y-130627380D01*
X304388988Y-130627380D01*
X304246130Y-130579761D01*
X304150892Y-130484523D01*
X304103273Y-130389285D01*
X304055654Y-130198809D01*
X304055654Y-130055952D01*
X304103273Y-129865476D01*
X304150892Y-129770238D01*
X304246130Y-129675000D01*
X304388988Y-129627380D01*
X304484226Y-129627380D01*
X304627083Y-129675000D01*
X304674702Y-129722619D01*
X305103273Y-130627380D02*
X305103273Y-129960714D01*
X305103273Y-130151190D02*
X305150892Y-130055952D01*
X305198511Y-130008333D01*
X305293750Y-129960714D01*
X305388988Y-129960714D01*
X306103273Y-130579761D02*
X306008035Y-130627380D01*
X305817559Y-130627380D01*
X305722321Y-130579761D01*
X305674702Y-130484523D01*
X305674702Y-130103571D01*
X305722321Y-130008333D01*
X305817559Y-129960714D01*
X306008035Y-129960714D01*
X306103273Y-130008333D01*
X306150892Y-130103571D01*
X306150892Y-130198809D01*
X305674702Y-130294047D01*
X307008035Y-130627380D02*
X307008035Y-130103571D01*
X306960416Y-130008333D01*
X306865178Y-129960714D01*
X306674702Y-129960714D01*
X306579464Y-130008333D01*
X307008035Y-130579761D02*
X306912797Y-130627380D01*
X306674702Y-130627380D01*
X306579464Y-130579761D01*
X306531845Y-130484523D01*
X306531845Y-130389285D01*
X306579464Y-130294047D01*
X306674702Y-130246428D01*
X306912797Y-130246428D01*
X307008035Y-130198809D01*
X307341369Y-129960714D02*
X307722321Y-129960714D01*
X307484226Y-129627380D02*
X307484226Y-130484523D01*
X307531845Y-130579761D01*
X307627083Y-130627380D01*
X307722321Y-130627380D01*
X308436607Y-130579761D02*
X308341369Y-130627380D01*
X308150892Y-130627380D01*
X308055654Y-130579761D01*
X308008035Y-130484523D01*
X308008035Y-130103571D01*
X308055654Y-130008333D01*
X308150892Y-129960714D01*
X308341369Y-129960714D01*
X308436607Y-130008333D01*
X308484226Y-130103571D01*
X308484226Y-130198809D01*
X308008035Y-130294047D01*
X309341369Y-130627380D02*
X309341369Y-129627380D01*
X309341369Y-130579761D02*
X309246130Y-130627380D01*
X309055654Y-130627380D01*
X308960416Y-130579761D01*
X308912797Y-130532142D01*
X308865178Y-130436904D01*
X308865178Y-130151190D01*
X308912797Y-130055952D01*
X308960416Y-130008333D01*
X309055654Y-129960714D01*
X309246130Y-129960714D01*
X309341369Y-130008333D01*
X310436607Y-129960714D02*
X310817559Y-129960714D01*
X310579464Y-130627380D02*
X310579464Y-129770238D01*
X310627083Y-129675000D01*
X310722321Y-129627380D01*
X310817559Y-129627380D01*
X311293750Y-130627380D02*
X311198511Y-130579761D01*
X311150892Y-130532142D01*
X311103273Y-130436904D01*
X311103273Y-130151190D01*
X311150892Y-130055952D01*
X311198511Y-130008333D01*
X311293750Y-129960714D01*
X311436607Y-129960714D01*
X311531845Y-130008333D01*
X311579464Y-130055952D01*
X311627083Y-130151190D01*
X311627083Y-130436904D01*
X311579464Y-130532142D01*
X311531845Y-130579761D01*
X311436607Y-130627380D01*
X311293750Y-130627380D01*
X312055654Y-130627380D02*
X312055654Y-129960714D01*
X312055654Y-130151190D02*
X312103273Y-130055952D01*
X312150892Y-130008333D01*
X312246130Y-129960714D01*
X312341369Y-129960714D01*
X313388988Y-130579761D02*
X313531845Y-130627380D01*
X313769940Y-130627380D01*
X313865178Y-130579761D01*
X313912797Y-130532142D01*
X313960416Y-130436904D01*
X313960416Y-130341666D01*
X313912797Y-130246428D01*
X313865178Y-130198809D01*
X313769940Y-130151190D01*
X313579464Y-130103571D01*
X313484226Y-130055952D01*
X313436607Y-130008333D01*
X313388988Y-129913095D01*
X313388988Y-129817857D01*
X313436607Y-129722619D01*
X313484226Y-129675000D01*
X313579464Y-129627380D01*
X313817559Y-129627380D01*
X313960416Y-129675000D01*
X314388988Y-130627380D02*
X314388988Y-129627380D01*
X314388988Y-130103571D02*
X314960416Y-130103571D01*
X314960416Y-130627380D02*
X314960416Y-129627380D01*
X315388988Y-130579761D02*
X315531845Y-130627380D01*
X315769940Y-130627380D01*
X315865178Y-130579761D01*
X315912797Y-130532142D01*
X315960416Y-130436904D01*
X315960416Y-130341666D01*
X315912797Y-130246428D01*
X315865178Y-130198809D01*
X315769940Y-130151190D01*
X315579464Y-130103571D01*
X315484226Y-130055952D01*
X315436607Y-130008333D01*
X315388988Y-129913095D01*
X315388988Y-129817857D01*
X315436607Y-129722619D01*
X315484226Y-129675000D01*
X315579464Y-129627380D01*
X315817559Y-129627380D01*
X315960416Y-129675000D01*
X317103273Y-130579761D02*
X317246130Y-130627380D01*
X317484226Y-130627380D01*
X317579464Y-130579761D01*
X317627083Y-130532142D01*
X317674702Y-130436904D01*
X317674702Y-130341666D01*
X317627083Y-130246428D01*
X317579464Y-130198809D01*
X317484226Y-130151190D01*
X317293750Y-130103571D01*
X317198511Y-130055952D01*
X317150892Y-130008333D01*
X317103273Y-129913095D01*
X317103273Y-129817857D01*
X317150892Y-129722619D01*
X317198511Y-129675000D01*
X317293750Y-129627380D01*
X317531845Y-129627380D01*
X317674702Y-129675000D01*
X318484226Y-130579761D02*
X318388988Y-130627380D01*
X318198511Y-130627380D01*
X318103273Y-130579761D01*
X318055654Y-130484523D01*
X318055654Y-130103571D01*
X318103273Y-130008333D01*
X318198511Y-129960714D01*
X318388988Y-129960714D01*
X318484226Y-130008333D01*
X318531845Y-130103571D01*
X318531845Y-130198809D01*
X318055654Y-130294047D01*
X318960416Y-129960714D02*
X318960416Y-130627380D01*
X318960416Y-130055952D02*
X319008035Y-130008333D01*
X319103273Y-129960714D01*
X319246130Y-129960714D01*
X319341369Y-130008333D01*
X319388988Y-130103571D01*
X319388988Y-130627380D01*
X319865178Y-130627380D02*
X319865178Y-129960714D01*
X319865178Y-129627380D02*
X319817559Y-129675000D01*
X319865178Y-129722619D01*
X319912797Y-129675000D01*
X319865178Y-129627380D01*
X319865178Y-129722619D01*
X320484226Y-130627380D02*
X320388988Y-130579761D01*
X320341369Y-130532142D01*
X320293750Y-130436904D01*
X320293750Y-130151190D01*
X320341369Y-130055952D01*
X320388988Y-130008333D01*
X320484226Y-129960714D01*
X320627083Y-129960714D01*
X320722321Y-130008333D01*
X320769940Y-130055952D01*
X320817559Y-130151190D01*
X320817559Y-130436904D01*
X320769940Y-130532142D01*
X320722321Y-130579761D01*
X320627083Y-130627380D01*
X320484226Y-130627380D01*
X321246130Y-130627380D02*
X321246130Y-129960714D01*
X321246130Y-130151190D02*
X321293750Y-130055952D01*
X321341369Y-130008333D01*
X321436607Y-129960714D01*
X321531845Y-129960714D01*
X322627083Y-130627380D02*
X322627083Y-129627380D01*
X323008035Y-129627380D01*
X323103273Y-129675000D01*
X323150892Y-129722619D01*
X323198511Y-129817857D01*
X323198511Y-129960714D01*
X323150892Y-130055952D01*
X323103273Y-130103571D01*
X323008035Y-130151190D01*
X322627083Y-130151190D01*
X323627083Y-130627380D02*
X323627083Y-129960714D01*
X323627083Y-130151190D02*
X323674702Y-130055952D01*
X323722321Y-130008333D01*
X323817559Y-129960714D01*
X323912797Y-129960714D01*
X324388988Y-130627380D02*
X324293750Y-130579761D01*
X324246130Y-130532142D01*
X324198511Y-130436904D01*
X324198511Y-130151190D01*
X324246130Y-130055952D01*
X324293750Y-130008333D01*
X324388988Y-129960714D01*
X324531845Y-129960714D01*
X324627083Y-130008333D01*
X324674702Y-130055952D01*
X324722321Y-130151190D01*
X324722321Y-130436904D01*
X324674702Y-130532142D01*
X324627083Y-130579761D01*
X324531845Y-130627380D01*
X324388988Y-130627380D01*
X325150892Y-129960714D02*
X325150892Y-130817857D01*
X325103273Y-130913095D01*
X325008035Y-130960714D01*
X324960416Y-130960714D01*
X325150892Y-129627380D02*
X325103273Y-129675000D01*
X325150892Y-129722619D01*
X325198511Y-129675000D01*
X325150892Y-129627380D01*
X325150892Y-129722619D01*
X326008035Y-130579761D02*
X325912797Y-130627380D01*
X325722321Y-130627380D01*
X325627083Y-130579761D01*
X325579464Y-130484523D01*
X325579464Y-130103571D01*
X325627083Y-130008333D01*
X325722321Y-129960714D01*
X325912797Y-129960714D01*
X326008035Y-130008333D01*
X326055654Y-130103571D01*
X326055654Y-130198809D01*
X325579464Y-130294047D01*
X326912797Y-130579761D02*
X326817559Y-130627380D01*
X326627083Y-130627380D01*
X326531845Y-130579761D01*
X326484226Y-130532142D01*
X326436607Y-130436904D01*
X326436607Y-130151190D01*
X326484226Y-130055952D01*
X326531845Y-130008333D01*
X326627083Y-129960714D01*
X326817559Y-129960714D01*
X326912797Y-130008333D01*
X327198511Y-129960714D02*
X327579464Y-129960714D01*
X327341369Y-129627380D02*
X327341369Y-130484523D01*
X327388988Y-130579761D01*
X327484226Y-130627380D01*
X327579464Y-130627380D01*
X327960416Y-130579761D02*
X327960416Y-130627380D01*
X327912797Y-130722619D01*
X327865178Y-130770238D01*
X329103273Y-129722619D02*
X329150892Y-129675000D01*
X329246130Y-129627380D01*
X329484226Y-129627380D01*
X329579464Y-129675000D01*
X329627083Y-129722619D01*
X329674702Y-129817857D01*
X329674702Y-129913095D01*
X329627083Y-130055952D01*
X329055654Y-130627380D01*
X329674702Y-130627380D01*
X330293750Y-129627380D02*
X330388988Y-129627380D01*
X330484226Y-129675000D01*
X330531845Y-129722619D01*
X330579464Y-129817857D01*
X330627083Y-130008333D01*
X330627083Y-130246428D01*
X330579464Y-130436904D01*
X330531845Y-130532142D01*
X330484226Y-130579761D01*
X330388988Y-130627380D01*
X330293750Y-130627380D01*
X330198511Y-130579761D01*
X330150892Y-130532142D01*
X330103273Y-130436904D01*
X330055654Y-130246428D01*
X330055654Y-130008333D01*
X330103273Y-129817857D01*
X330150892Y-129722619D01*
X330198511Y-129675000D01*
X330293750Y-129627380D01*
X331008035Y-129722619D02*
X331055654Y-129675000D01*
X331150892Y-129627380D01*
X331388988Y-129627380D01*
X331484226Y-129675000D01*
X331531845Y-129722619D01*
X331579464Y-129817857D01*
X331579464Y-129913095D01*
X331531845Y-130055952D01*
X330960416Y-130627380D01*
X331579464Y-130627380D01*
X331960416Y-129722619D02*
X332008035Y-129675000D01*
X332103273Y-129627380D01*
X332341369Y-129627380D01*
X332436607Y-129675000D01*
X332484226Y-129722619D01*
X332531845Y-129817857D01*
X332531845Y-129913095D01*
X332484226Y-130055952D01*
X331912797Y-130627380D01*
X332531845Y-130627380D01*
D11*
%TO.C,SW-Rst1*%
X246975000Y-43240000D03*
D12*
X243475000Y-46940000D03*
D13*
X244475000Y-44450000D03*
X249475000Y-44450000D03*
D12*
X250485000Y-46940000D03*
%TD*%
D14*
%TO.C,U1*%
X219392500Y-65087500D03*
X216852500Y-65087500D03*
X214312500Y-65087500D03*
X211772500Y-65087500D03*
X209232500Y-65087500D03*
D15*
X223710500Y-35242500D03*
X223710500Y-37782500D03*
X223710500Y-40322500D03*
X223710500Y-42862500D03*
X223710500Y-45402500D03*
X223710500Y-47942500D03*
X223710500Y-50482500D03*
X223710500Y-53022500D03*
X223710500Y-55562500D03*
X223710500Y-58102500D03*
X223710500Y-60642500D03*
X223710500Y-63182500D03*
X204914500Y-63182500D03*
X204914500Y-60642500D03*
X204914500Y-58102500D03*
X204914500Y-55562500D03*
X204914500Y-53022500D03*
X204914500Y-50482500D03*
X204914500Y-47942500D03*
X204914500Y-45402500D03*
X204914500Y-42862500D03*
X204914500Y-40322500D03*
X204914500Y-37782500D03*
X204914500Y-35242500D03*
D16*
X209232500Y-63182500D03*
X211772500Y-63182500D03*
X214312500Y-63182500D03*
X216852500Y-63182500D03*
X219392500Y-63182500D03*
X221932500Y-35242500D03*
X206921100Y-63182500D03*
X221932500Y-37782500D03*
X221932500Y-40322500D03*
X221932500Y-42862500D03*
X221932500Y-45402500D03*
X221932500Y-47942500D03*
X221932500Y-50482500D03*
X221932500Y-53022500D03*
X221932500Y-55562500D03*
X221932500Y-58102500D03*
X221932500Y-60642500D03*
X221932500Y-63182500D03*
X206692500Y-60642500D03*
X206692500Y-58102500D03*
X206692500Y-55562500D03*
X206692500Y-53022500D03*
X206692500Y-50482500D03*
X206692500Y-47942500D03*
X206692500Y-45402500D03*
X206692500Y-42862500D03*
X206692500Y-40322500D03*
X206692500Y-37782500D03*
D17*
X206692500Y-35242500D03*
%TD*%
D18*
%TO.C,SW1*%
X211812500Y-137175000D03*
X216812500Y-137175000D03*
D19*
X208712500Y-130175000D03*
X219912500Y-130175000D03*
D18*
X211812500Y-122675000D03*
X214312500Y-122675000D03*
D20*
X216812500Y-122675000D03*
%TD*%
D13*
%TO.C,MX-134*%
X369409991Y-125369233D03*
X359596185Y-127998835D03*
D21*
X364503088Y-126684034D03*
%TD*%
D13*
%TO.C,MX-133*%
X369079709Y-105735720D03*
X359265903Y-108365322D03*
D21*
X364172806Y-107050521D03*
%TD*%
%TO.C,MX-132*%
X377510299Y-92300945D03*
X354447854Y-98480508D03*
D22*
X373565896Y-77580235D03*
X350503451Y-83759799D03*
D13*
X368749428Y-86102208D03*
X358935622Y-88731810D03*
D21*
X363842525Y-87417009D03*
%TD*%
%TO.C,MX-131*%
X370279686Y-74516370D03*
X347217241Y-80695933D03*
D22*
X366335283Y-59795660D03*
X343272838Y-65975224D03*
D13*
X361518815Y-68317633D03*
X351705009Y-70947235D03*
D21*
X356611912Y-69632434D03*
%TD*%
D13*
%TO.C,MX-130*%
X347387868Y-52381998D03*
X337574062Y-55011600D03*
D21*
X342480965Y-53696799D03*
%TD*%
D13*
%TO.C,MX-123*%
X342545864Y-107914940D03*
X332732058Y-110544542D03*
D21*
X337638961Y-109229741D03*
%TD*%
D13*
%TO.C,MX-122*%
X337615361Y-89514053D03*
X327801555Y-92143655D03*
D21*
X332708458Y-90828854D03*
%TD*%
D13*
%TO.C,MX-121*%
X332684859Y-71113166D03*
X322871053Y-73742768D03*
D21*
X327777956Y-72427967D03*
%TD*%
D13*
%TO.C,MX-120*%
X327754356Y-52712279D03*
X317940550Y-55341881D03*
D21*
X322847453Y-54027080D03*
%TD*%
D13*
%TO.C,MX-113*%
X322912351Y-108245221D03*
X313098545Y-110874823D03*
D21*
X318005448Y-109560022D03*
%TD*%
D13*
%TO.C,MX-112*%
X317981849Y-89844334D03*
X308168043Y-92473936D03*
D21*
X313074946Y-91159135D03*
%TD*%
D13*
%TO.C,MX-111*%
X313051346Y-71443447D03*
X303237540Y-74073049D03*
D21*
X308144443Y-72758248D03*
%TD*%
D13*
%TO.C,MX-110*%
X308120843Y-53042560D03*
X298307037Y-55672162D03*
D21*
X303213940Y-54357361D03*
%TD*%
D13*
%TO.C,MX-104*%
X289973595Y-141723648D03*
X280159789Y-144353250D03*
D21*
X285066692Y-143038449D03*
%TD*%
D13*
%TO.C,MX-103*%
X303278839Y-108575502D03*
X293465033Y-111205104D03*
D21*
X298371936Y-109890303D03*
%TD*%
D13*
%TO.C,MX-102*%
X298348336Y-90174615D03*
X288534530Y-92804217D03*
D21*
X293441433Y-91489416D03*
%TD*%
D13*
%TO.C,MX-101*%
X293417833Y-71773728D03*
X283604027Y-74403330D03*
D21*
X288510930Y-73088529D03*
%TD*%
D13*
%TO.C,MX-100*%
X288487330Y-53372841D03*
X278673524Y-56002443D03*
D21*
X283580427Y-54687642D03*
%TD*%
D13*
%TO.C,MX-94*%
X294904098Y-160124535D03*
X285090292Y-162754137D03*
D21*
X289997195Y-161439336D03*
%TD*%
D13*
%TO.C,MX-93*%
X286110577Y-118106227D03*
X276296771Y-120735829D03*
D21*
X281203674Y-119421028D03*
%TD*%
D13*
%TO.C,MX-92*%
X281180075Y-99705340D03*
X271366269Y-102334942D03*
D21*
X276273172Y-101020141D03*
%TD*%
D13*
%TO.C,MX-91*%
X276249572Y-81304453D03*
X266435766Y-83934055D03*
D21*
X271342669Y-82619254D03*
%TD*%
D13*
%TO.C,MX-90*%
X271319069Y-62903566D03*
X261505263Y-65533168D03*
D21*
X266412166Y-64218367D03*
%TD*%
%TO.C,MX-84*%
X266830946Y-157785708D03*
D13*
X261924043Y-159100509D03*
X271737849Y-156470907D03*
%TD*%
%TO.C,MX-83*%
X268942316Y-127636951D03*
X259128510Y-130266553D03*
D21*
X264035413Y-128951752D03*
%TD*%
D13*
%TO.C,MX-82*%
X264011813Y-109236064D03*
X254198007Y-111865666D03*
D21*
X259104910Y-110550865D03*
%TD*%
D13*
%TO.C,MX-81*%
X259081311Y-90835177D03*
X249267505Y-93464779D03*
D21*
X254174408Y-92149978D03*
%TD*%
D13*
%TO.C,MX-80*%
X254150808Y-72434290D03*
X244337002Y-75063892D03*
D21*
X249243905Y-73749091D03*
%TD*%
%TO.C,MX-74*%
X247197433Y-158115989D03*
D13*
X242290530Y-159430790D03*
X252104336Y-156801188D03*
%TD*%
%TO.C,MX-72*%
X246843552Y-118766789D03*
X237029746Y-121396391D03*
D21*
X241936649Y-120081590D03*
%TD*%
D13*
%TO.C,MX-71*%
X241913049Y-100365902D03*
X232099243Y-102995504D03*
D21*
X237006146Y-101680703D03*
%TD*%
D13*
%TO.C,MX-70*%
X236982546Y-81965015D03*
X227168740Y-84594617D03*
D21*
X232075643Y-83279816D03*
%TD*%
%TO.C,MX-64*%
X181429867Y-158098519D03*
D13*
X176522964Y-156783718D03*
X186336770Y-159413320D03*
%TD*%
%TO.C,MX-62*%
X191597554Y-121378921D03*
X181783748Y-118749319D03*
D21*
X186690651Y-120064120D03*
%TD*%
D13*
%TO.C,MX-61*%
X196528057Y-102978034D03*
X186714251Y-100348432D03*
D21*
X191621154Y-101663233D03*
%TD*%
D13*
%TO.C,MX-60*%
X201458559Y-84577147D03*
X191644753Y-81947545D03*
D21*
X196551656Y-83262346D03*
%TD*%
%TO.C,MX-54*%
X161796354Y-157768238D03*
D13*
X156889451Y-156453437D03*
X166703257Y-159083039D03*
%TD*%
%TO.C,MX-53*%
X169498790Y-130249083D03*
X159684984Y-127619481D03*
D21*
X164591887Y-128934282D03*
%TD*%
D13*
%TO.C,MX-52*%
X174429293Y-111848196D03*
X164615487Y-109218594D03*
D21*
X169522390Y-110533395D03*
%TD*%
D13*
%TO.C,MX-51*%
X179359795Y-93447309D03*
X169545989Y-90817707D03*
D21*
X174452892Y-92132508D03*
%TD*%
D13*
%TO.C,MX-50*%
X184290298Y-75046422D03*
X174476492Y-72416820D03*
D21*
X179383395Y-73731621D03*
%TD*%
D13*
%TO.C,MX-44*%
X143537008Y-162736667D03*
X133723202Y-160107065D03*
D21*
X138630105Y-161421866D03*
%TD*%
D13*
%TO.C,MX-43*%
X152330528Y-120718358D03*
X142516722Y-118088756D03*
D21*
X147423625Y-119403557D03*
%TD*%
D13*
%TO.C,MX-42*%
X157261031Y-102317472D03*
X147447225Y-99687870D03*
D21*
X152354128Y-101002671D03*
%TD*%
D13*
%TO.C,MX-41*%
X162191534Y-83916585D03*
X152377728Y-81286983D03*
D21*
X157284631Y-82601784D03*
%TD*%
D13*
%TO.C,MX-40*%
X167122037Y-65515698D03*
X157308231Y-62886096D03*
D21*
X162215134Y-64200897D03*
%TD*%
D13*
%TO.C,MX-34*%
X148467511Y-144335780D03*
X138653705Y-141706178D03*
D21*
X143560608Y-143020979D03*
%TD*%
D13*
%TO.C,MX-33*%
X135162267Y-111187634D03*
X125348461Y-108558032D03*
D21*
X130255364Y-109872833D03*
%TD*%
D13*
%TO.C,MX-32*%
X140092770Y-92786747D03*
X130278964Y-90157145D03*
D21*
X135185867Y-91471946D03*
%TD*%
D13*
%TO.C,MX-31*%
X145023273Y-74385860D03*
X135209467Y-71756258D03*
D21*
X140116370Y-73071059D03*
%TD*%
D13*
%TO.C,MX-30*%
X149953776Y-55984973D03*
X140139970Y-53355371D03*
D21*
X145046873Y-54670172D03*
%TD*%
D13*
%TO.C,MX-23*%
X115528755Y-110857353D03*
X105714949Y-108227751D03*
D21*
X110621852Y-109542552D03*
%TD*%
D13*
%TO.C,MX-22*%
X120459257Y-92456466D03*
X110645451Y-89826864D03*
D21*
X115552354Y-91141665D03*
%TD*%
D13*
%TO.C,MX-21*%
X125389760Y-74055579D03*
X115575954Y-71425977D03*
D21*
X120482857Y-72740778D03*
%TD*%
D13*
%TO.C,MX-20*%
X130320263Y-55654692D03*
X120506457Y-53025090D03*
D21*
X125413360Y-54339891D03*
%TD*%
D13*
%TO.C,MX-13*%
X95895242Y-110527072D03*
X86081436Y-107897470D03*
D21*
X90988339Y-109212271D03*
%TD*%
D13*
%TO.C,MX-12*%
X100825745Y-92126185D03*
X91011939Y-89496583D03*
D21*
X95918842Y-90811384D03*
%TD*%
D13*
%TO.C,MX-11*%
X105756247Y-73725298D03*
X95942441Y-71095696D03*
D21*
X100849344Y-72410497D03*
%TD*%
D13*
%TO.C,MX-10*%
X110686750Y-55324411D03*
X100872944Y-52694809D03*
D21*
X105779847Y-54009610D03*
%TD*%
D13*
%TO.C,MX-4*%
X69031115Y-127981365D03*
X59217309Y-125351763D03*
D21*
X64124212Y-126666564D03*
%TD*%
%TO.C,MX-3*%
X69248943Y-116863924D03*
X46186498Y-110684361D03*
D22*
X73193346Y-102143215D03*
X50130901Y-95963651D03*
D13*
X64761175Y-107115226D03*
X54947369Y-104485624D03*
D21*
X59854272Y-105800425D03*
%TD*%
D13*
%TO.C,MX-2*%
X74291899Y-89946965D03*
X64478093Y-87317363D03*
D21*
X69384996Y-88632164D03*
%TD*%
D13*
%TO.C,MX-1*%
X81522513Y-72162391D03*
X71708707Y-69532789D03*
D21*
X76615610Y-70847590D03*
%TD*%
D13*
%TO.C,MX-0*%
X91053238Y-54994130D03*
X81239432Y-52364528D03*
D21*
X86146335Y-53679329D03*
%TD*%
D23*
%TO.C,D73(Encoder)1*%
X217963750Y-142875000D03*
D24*
X210343750Y-142875000D03*
%TD*%
%TO.C,D134*%
G36*
G01*
X351949044Y-119700294D02*
X351949044Y-119700294D01*
G75*
G02*
X350969248Y-119134608I-207055J772741D01*
G01*
X350969248Y-119134608D01*
G75*
G02*
X351534934Y-118154812I772741J207055D01*
G01*
X351534934Y-118154812D01*
G75*
G02*
X352514730Y-118720498I207055J-772741D01*
G01*
X352514730Y-118720498D01*
G75*
G02*
X351949044Y-119700294I-772741J-207055D01*
G01*
G37*
D25*
G36*
X354693986Y-126853593D02*
G01*
X353148505Y-127267704D01*
X352734394Y-125722223D01*
X354279875Y-125308112D01*
X354693986Y-126853593D01*
G37*
%TD*%
%TO.C,D133*%
G36*
G01*
X350493786Y-111202383D02*
X350493786Y-111202383D01*
G75*
G02*
X351473582Y-111768069I207055J-772741D01*
G01*
X351473582Y-111768069D01*
G75*
G02*
X350907896Y-112747865I-772741J-207055D01*
G01*
X350907896Y-112747865D01*
G75*
G02*
X349928100Y-112182179I-207055J772741D01*
G01*
X349928100Y-112182179D01*
G75*
G02*
X350493786Y-111202383I772741J207055D01*
G01*
G37*
G36*
X347748844Y-104049084D02*
G01*
X349294325Y-103634973D01*
X349708436Y-105180454D01*
X348162955Y-105594565D01*
X347748844Y-104049084D01*
G37*
%TD*%
%TO.C,D132*%
G36*
G01*
X344180267Y-90706823D02*
X344180267Y-90706823D01*
G75*
G02*
X345160063Y-91272509I207055J-772741D01*
G01*
X345160063Y-91272509D01*
G75*
G02*
X344594377Y-92252305I-772741J-207055D01*
G01*
X344594377Y-92252305D01*
G75*
G02*
X343614581Y-91686619I-207055J772741D01*
G01*
X343614581Y-91686619D01*
G75*
G02*
X344180267Y-90706823I772741J207055D01*
G01*
G37*
G36*
X341435325Y-83553524D02*
G01*
X342980806Y-83139413D01*
X343394917Y-84684894D01*
X341849436Y-85099005D01*
X341435325Y-83553524D01*
G37*
%TD*%
%TO.C,D131*%
G36*
G01*
X338277623Y-71744670D02*
X338277623Y-71744670D01*
G75*
G02*
X339257419Y-72310356I207055J-772741D01*
G01*
X339257419Y-72310356D01*
G75*
G02*
X338691733Y-73290152I-772741J-207055D01*
G01*
X338691733Y-73290152D01*
G75*
G02*
X337711937Y-72724466I-207055J772741D01*
G01*
X337711937Y-72724466D01*
G75*
G02*
X338277623Y-71744670I772741J207055D01*
G01*
G37*
G36*
X335532681Y-64591371D02*
G01*
X337078162Y-64177260D01*
X337492273Y-65722741D01*
X335946792Y-66136852D01*
X335532681Y-64591371D01*
G37*
%TD*%
%TO.C,D130*%
G36*
G01*
X332785854Y-54315924D02*
X332785854Y-54315924D01*
G75*
G02*
X333765650Y-54881610I207055J-772741D01*
G01*
X333765650Y-54881610D01*
G75*
G02*
X333199964Y-55861406I-772741J-207055D01*
G01*
X333199964Y-55861406D01*
G75*
G02*
X332220168Y-55295720I-207055J772741D01*
G01*
X332220168Y-55295720D01*
G75*
G02*
X332785854Y-54315924I772741J207055D01*
G01*
G37*
G36*
X330040912Y-47162625D02*
G01*
X331586393Y-46748514D01*
X332000504Y-48293995D01*
X330455023Y-48708106D01*
X330040912Y-47162625D01*
G37*
%TD*%
%TO.C,D123*%
G36*
G01*
X327943850Y-109848866D02*
X327943850Y-109848866D01*
G75*
G02*
X328923646Y-110414552I207055J-772741D01*
G01*
X328923646Y-110414552D01*
G75*
G02*
X328357960Y-111394348I-772741J-207055D01*
G01*
X328357960Y-111394348D01*
G75*
G02*
X327378164Y-110828662I-207055J772741D01*
G01*
X327378164Y-110828662D01*
G75*
G02*
X327943850Y-109848866I772741J207055D01*
G01*
G37*
G36*
X325198908Y-102695567D02*
G01*
X326744389Y-102281456D01*
X327158500Y-103826937D01*
X325613019Y-104241048D01*
X325198908Y-102695567D01*
G37*
%TD*%
%TO.C,D122*%
G36*
G01*
X323013347Y-91447979D02*
X323013347Y-91447979D01*
G75*
G02*
X323993143Y-92013665I207055J-772741D01*
G01*
X323993143Y-92013665D01*
G75*
G02*
X323427457Y-92993461I-772741J-207055D01*
G01*
X323427457Y-92993461D01*
G75*
G02*
X322447661Y-92427775I-207055J772741D01*
G01*
X322447661Y-92427775D01*
G75*
G02*
X323013347Y-91447979I772741J207055D01*
G01*
G37*
G36*
X320268405Y-84294680D02*
G01*
X321813886Y-83880569D01*
X322227997Y-85426050D01*
X320682516Y-85840161D01*
X320268405Y-84294680D01*
G37*
%TD*%
%TO.C,D121*%
G36*
G01*
X318082844Y-73047092D02*
X318082844Y-73047092D01*
G75*
G02*
X319062640Y-73612778I207055J-772741D01*
G01*
X319062640Y-73612778D01*
G75*
G02*
X318496954Y-74592574I-772741J-207055D01*
G01*
X318496954Y-74592574D01*
G75*
G02*
X317517158Y-74026888I-207055J772741D01*
G01*
X317517158Y-74026888D01*
G75*
G02*
X318082844Y-73047092I772741J207055D01*
G01*
G37*
G36*
X315337902Y-65893793D02*
G01*
X316883383Y-65479682D01*
X317297494Y-67025163D01*
X315752013Y-67439274D01*
X315337902Y-65893793D01*
G37*
%TD*%
%TO.C,D120*%
G36*
G01*
X313152341Y-54646205D02*
X313152341Y-54646205D01*
G75*
G02*
X314132137Y-55211891I207055J-772741D01*
G01*
X314132137Y-55211891D01*
G75*
G02*
X313566451Y-56191687I-772741J-207055D01*
G01*
X313566451Y-56191687D01*
G75*
G02*
X312586655Y-55626001I-207055J772741D01*
G01*
X312586655Y-55626001D01*
G75*
G02*
X313152341Y-54646205I772741J207055D01*
G01*
G37*
G36*
X310407399Y-47492906D02*
G01*
X311952880Y-47078795D01*
X312366991Y-48624276D01*
X310821510Y-49038387D01*
X310407399Y-47492906D01*
G37*
%TD*%
%TO.C,D113*%
G36*
G01*
X308310337Y-110179147D02*
X308310337Y-110179147D01*
G75*
G02*
X309290133Y-110744833I207055J-772741D01*
G01*
X309290133Y-110744833D01*
G75*
G02*
X308724447Y-111724629I-772741J-207055D01*
G01*
X308724447Y-111724629D01*
G75*
G02*
X307744651Y-111158943I-207055J772741D01*
G01*
X307744651Y-111158943D01*
G75*
G02*
X308310337Y-110179147I772741J207055D01*
G01*
G37*
G36*
X305565395Y-103025848D02*
G01*
X307110876Y-102611737D01*
X307524987Y-104157218D01*
X305979506Y-104571329D01*
X305565395Y-103025848D01*
G37*
%TD*%
%TO.C,D112*%
G36*
G01*
X303379834Y-91778260D02*
X303379834Y-91778260D01*
G75*
G02*
X304359630Y-92343946I207055J-772741D01*
G01*
X304359630Y-92343946D01*
G75*
G02*
X303793944Y-93323742I-772741J-207055D01*
G01*
X303793944Y-93323742D01*
G75*
G02*
X302814148Y-92758056I-207055J772741D01*
G01*
X302814148Y-92758056D01*
G75*
G02*
X303379834Y-91778260I772741J207055D01*
G01*
G37*
G36*
X300634892Y-84624961D02*
G01*
X302180373Y-84210850D01*
X302594484Y-85756331D01*
X301049003Y-86170442D01*
X300634892Y-84624961D01*
G37*
%TD*%
%TO.C,D111*%
G36*
G01*
X298449332Y-73377373D02*
X298449332Y-73377373D01*
G75*
G02*
X299429128Y-73943059I207055J-772741D01*
G01*
X299429128Y-73943059D01*
G75*
G02*
X298863442Y-74922855I-772741J-207055D01*
G01*
X298863442Y-74922855D01*
G75*
G02*
X297883646Y-74357169I-207055J772741D01*
G01*
X297883646Y-74357169D01*
G75*
G02*
X298449332Y-73377373I772741J207055D01*
G01*
G37*
G36*
X295704390Y-66224074D02*
G01*
X297249871Y-65809963D01*
X297663982Y-67355444D01*
X296118501Y-67769555D01*
X295704390Y-66224074D01*
G37*
%TD*%
%TO.C,D110*%
G36*
G01*
X293518829Y-54976486D02*
X293518829Y-54976486D01*
G75*
G02*
X294498625Y-55542172I207055J-772741D01*
G01*
X294498625Y-55542172D01*
G75*
G02*
X293932939Y-56521968I-772741J-207055D01*
G01*
X293932939Y-56521968D01*
G75*
G02*
X292953143Y-55956282I-207055J772741D01*
G01*
X292953143Y-55956282D01*
G75*
G02*
X293518829Y-54976486I772741J207055D01*
G01*
G37*
G36*
X290773887Y-47823187D02*
G01*
X292319368Y-47409076D01*
X292733479Y-48954557D01*
X291187998Y-49368668D01*
X290773887Y-47823187D01*
G37*
%TD*%
%TO.C,D104*%
G36*
G01*
X273539837Y-139888228D02*
X273539837Y-139888228D01*
G75*
G02*
X272560041Y-139322542I-207055J772741D01*
G01*
X272560041Y-139322542D01*
G75*
G02*
X273125727Y-138342746I772741J207055D01*
G01*
X273125727Y-138342746D01*
G75*
G02*
X274105523Y-138908432I207055J-772741D01*
G01*
X274105523Y-138908432D01*
G75*
G02*
X273539837Y-139888228I-772741J-207055D01*
G01*
G37*
G36*
X276284779Y-147041527D02*
G01*
X274739298Y-147455638D01*
X274325187Y-145910157D01*
X275870668Y-145496046D01*
X276284779Y-147041527D01*
G37*
%TD*%
%TO.C,D103*%
G36*
G01*
X289909450Y-115109650D02*
X289909450Y-115109650D01*
G75*
G02*
X290889246Y-115675336I207055J-772741D01*
G01*
X290889246Y-115675336D01*
G75*
G02*
X290323560Y-116655132I-772741J-207055D01*
G01*
X290323560Y-116655132D01*
G75*
G02*
X289343764Y-116089446I-207055J772741D01*
G01*
X289343764Y-116089446D01*
G75*
G02*
X289909450Y-115109650I772741J207055D01*
G01*
G37*
G36*
X287164508Y-107956351D02*
G01*
X288709989Y-107542240D01*
X289124100Y-109087721D01*
X287578619Y-109501832D01*
X287164508Y-107956351D01*
G37*
%TD*%
%TO.C,D102*%
G36*
G01*
X284978947Y-96708763D02*
X284978947Y-96708763D01*
G75*
G02*
X285958743Y-97274449I207055J-772741D01*
G01*
X285958743Y-97274449D01*
G75*
G02*
X285393057Y-98254245I-772741J-207055D01*
G01*
X285393057Y-98254245D01*
G75*
G02*
X284413261Y-97688559I-207055J772741D01*
G01*
X284413261Y-97688559D01*
G75*
G02*
X284978947Y-96708763I772741J207055D01*
G01*
G37*
G36*
X282234005Y-89555464D02*
G01*
X283779486Y-89141353D01*
X284193597Y-90686834D01*
X282648116Y-91100945D01*
X282234005Y-89555464D01*
G37*
%TD*%
%TO.C,D101*%
G36*
G01*
X280048445Y-78307876D02*
X280048445Y-78307876D01*
G75*
G02*
X281028241Y-78873562I207055J-772741D01*
G01*
X281028241Y-78873562D01*
G75*
G02*
X280462555Y-79853358I-772741J-207055D01*
G01*
X280462555Y-79853358D01*
G75*
G02*
X279482759Y-79287672I-207055J772741D01*
G01*
X279482759Y-79287672D01*
G75*
G02*
X280048445Y-78307876I772741J207055D01*
G01*
G37*
G36*
X277303503Y-71154577D02*
G01*
X278848984Y-70740466D01*
X279263095Y-72285947D01*
X277717614Y-72700058D01*
X277303503Y-71154577D01*
G37*
%TD*%
%TO.C,D100*%
G36*
G01*
X275117942Y-59906989D02*
X275117942Y-59906989D01*
G75*
G02*
X276097738Y-60472675I207055J-772741D01*
G01*
X276097738Y-60472675D01*
G75*
G02*
X275532052Y-61452471I-772741J-207055D01*
G01*
X275532052Y-61452471D01*
G75*
G02*
X274552256Y-60886785I-207055J772741D01*
G01*
X274552256Y-60886785D01*
G75*
G02*
X275117942Y-59906989I772741J207055D01*
G01*
G37*
G36*
X272373000Y-52753690D02*
G01*
X273918481Y-52339579D01*
X274332592Y-53885060D01*
X272787111Y-54299171D01*
X272373000Y-52753690D01*
G37*
%TD*%
%TO.C,D94*%
G36*
G01*
X279535380Y-162263899D02*
X279535380Y-162263899D01*
G75*
G02*
X280515176Y-162829585I207055J-772741D01*
G01*
X280515176Y-162829585D01*
G75*
G02*
X279949490Y-163809381I-772741J-207055D01*
G01*
X279949490Y-163809381D01*
G75*
G02*
X278969694Y-163243695I-207055J772741D01*
G01*
X278969694Y-163243695D01*
G75*
G02*
X279535380Y-162263899I772741J207055D01*
G01*
G37*
G36*
X276790438Y-155110600D02*
G01*
X278335919Y-154696489D01*
X278750030Y-156241970D01*
X277204549Y-156656081D01*
X276790438Y-155110600D01*
G37*
%TD*%
%TO.C,D93*%
G36*
G01*
X272741189Y-124640375D02*
X272741189Y-124640375D01*
G75*
G02*
X273720985Y-125206061I207055J-772741D01*
G01*
X273720985Y-125206061D01*
G75*
G02*
X273155299Y-126185857I-772741J-207055D01*
G01*
X273155299Y-126185857D01*
G75*
G02*
X272175503Y-125620171I-207055J772741D01*
G01*
X272175503Y-125620171D01*
G75*
G02*
X272741189Y-124640375I772741J207055D01*
G01*
G37*
G36*
X269996247Y-117487076D02*
G01*
X271541728Y-117072965D01*
X271955839Y-118618446D01*
X270410358Y-119032557D01*
X269996247Y-117487076D01*
G37*
%TD*%
%TO.C,D92*%
G36*
G01*
X267810686Y-106239488D02*
X267810686Y-106239488D01*
G75*
G02*
X268790482Y-106805174I207055J-772741D01*
G01*
X268790482Y-106805174D01*
G75*
G02*
X268224796Y-107784970I-772741J-207055D01*
G01*
X268224796Y-107784970D01*
G75*
G02*
X267245000Y-107219284I-207055J772741D01*
G01*
X267245000Y-107219284D01*
G75*
G02*
X267810686Y-106239488I772741J207055D01*
G01*
G37*
G36*
X265065744Y-99086189D02*
G01*
X266611225Y-98672078D01*
X267025336Y-100217559D01*
X265479855Y-100631670D01*
X265065744Y-99086189D01*
G37*
%TD*%
%TO.C,D91*%
G36*
G01*
X262880183Y-87838601D02*
X262880183Y-87838601D01*
G75*
G02*
X263859979Y-88404287I207055J-772741D01*
G01*
X263859979Y-88404287D01*
G75*
G02*
X263294293Y-89384083I-772741J-207055D01*
G01*
X263294293Y-89384083D01*
G75*
G02*
X262314497Y-88818397I-207055J772741D01*
G01*
X262314497Y-88818397D01*
G75*
G02*
X262880183Y-87838601I772741J207055D01*
G01*
G37*
G36*
X260135241Y-80685302D02*
G01*
X261680722Y-80271191D01*
X262094833Y-81816672D01*
X260549352Y-82230783D01*
X260135241Y-80685302D01*
G37*
%TD*%
%TO.C,D90*%
G36*
G01*
X257949680Y-69437714D02*
X257949680Y-69437714D01*
G75*
G02*
X258929476Y-70003400I207055J-772741D01*
G01*
X258929476Y-70003400D01*
G75*
G02*
X258363790Y-70983196I-772741J-207055D01*
G01*
X258363790Y-70983196D01*
G75*
G02*
X257383994Y-70417510I-207055J772741D01*
G01*
X257383994Y-70417510D01*
G75*
G02*
X257949680Y-69437714I772741J207055D01*
G01*
G37*
G36*
X255204738Y-62284415D02*
G01*
X256750219Y-61870304D01*
X257164330Y-63415785D01*
X255618849Y-63829896D01*
X255204738Y-62284415D01*
G37*
%TD*%
%TO.C,D84*%
G36*
G01*
X266708915Y-146313900D02*
X266708915Y-146313900D01*
G75*
G02*
X267274601Y-145334104I772741J207055D01*
G01*
X267274601Y-145334104D01*
G75*
G02*
X268254397Y-145899790I207055J-772741D01*
G01*
X268254397Y-145899790D01*
G75*
G02*
X267688711Y-146879586I-772741J-207055D01*
G01*
X267688711Y-146879586D01*
G75*
G02*
X266708915Y-146313900I-207055J772741D01*
G01*
G37*
G36*
X259555616Y-149058842D02*
G01*
X259141505Y-147513361D01*
X260686986Y-147099250D01*
X261101097Y-148644731D01*
X259555616Y-149058842D01*
G37*
%TD*%
%TO.C,D83*%
G36*
G01*
X255162052Y-132637692D02*
X255162052Y-132637692D01*
G75*
G02*
X256141848Y-133203378I207055J-772741D01*
G01*
X256141848Y-133203378D01*
G75*
G02*
X255576162Y-134183174I-772741J-207055D01*
G01*
X255576162Y-134183174D01*
G75*
G02*
X254596366Y-133617488I-207055J772741D01*
G01*
X254596366Y-133617488D01*
G75*
G02*
X255162052Y-132637692I772741J207055D01*
G01*
G37*
G36*
X252417110Y-125484393D02*
G01*
X253962591Y-125070282D01*
X254376702Y-126615763D01*
X252831221Y-127029874D01*
X252417110Y-125484393D01*
G37*
%TD*%
%TO.C,D82*%
G36*
G01*
X250642425Y-115770212D02*
X250642425Y-115770212D01*
G75*
G02*
X251622221Y-116335898I207055J-772741D01*
G01*
X251622221Y-116335898D01*
G75*
G02*
X251056535Y-117315694I-772741J-207055D01*
G01*
X251056535Y-117315694D01*
G75*
G02*
X250076739Y-116750008I-207055J772741D01*
G01*
X250076739Y-116750008D01*
G75*
G02*
X250642425Y-115770212I772741J207055D01*
G01*
G37*
G36*
X247897483Y-108616913D02*
G01*
X249442964Y-108202802D01*
X249857075Y-109748283D01*
X248311594Y-110162394D01*
X247897483Y-108616913D01*
G37*
%TD*%
%TO.C,D81*%
G36*
G01*
X245711922Y-97369325D02*
X245711922Y-97369325D01*
G75*
G02*
X246691718Y-97935011I207055J-772741D01*
G01*
X246691718Y-97935011D01*
G75*
G02*
X246126032Y-98914807I-772741J-207055D01*
G01*
X246126032Y-98914807D01*
G75*
G02*
X245146236Y-98349121I-207055J772741D01*
G01*
X245146236Y-98349121D01*
G75*
G02*
X245711922Y-97369325I772741J207055D01*
G01*
G37*
G36*
X242966980Y-90216026D02*
G01*
X244512461Y-89801915D01*
X244926572Y-91347396D01*
X243381091Y-91761507D01*
X242966980Y-90216026D01*
G37*
%TD*%
%TO.C,D80*%
G36*
G01*
X240781419Y-78968438D02*
X240781419Y-78968438D01*
G75*
G02*
X241761215Y-79534124I207055J-772741D01*
G01*
X241761215Y-79534124D01*
G75*
G02*
X241195529Y-80513920I-772741J-207055D01*
G01*
X241195529Y-80513920D01*
G75*
G02*
X240215733Y-79948234I-207055J772741D01*
G01*
X240215733Y-79948234D01*
G75*
G02*
X240781419Y-78968438I772741J207055D01*
G01*
G37*
G36*
X238036477Y-71815139D02*
G01*
X239581958Y-71401028D01*
X239996069Y-72946509D01*
X238450588Y-73360620D01*
X238036477Y-71815139D01*
G37*
%TD*%
%TO.C,D74*%
G36*
G01*
X237502322Y-158735115D02*
X237502322Y-158735115D01*
G75*
G02*
X238482118Y-159300801I207055J-772741D01*
G01*
X238482118Y-159300801D01*
G75*
G02*
X237916432Y-160280597I-772741J-207055D01*
G01*
X237916432Y-160280597D01*
G75*
G02*
X236936636Y-159714911I-207055J772741D01*
G01*
X236936636Y-159714911D01*
G75*
G02*
X237502322Y-158735115I772741J207055D01*
G01*
G37*
G36*
X234757380Y-151581816D02*
G01*
X236302861Y-151167705D01*
X236716972Y-152713186D01*
X235171491Y-153127297D01*
X234757380Y-151581816D01*
G37*
%TD*%
%TO.C,D72*%
G36*
G01*
X232241538Y-120700715D02*
X232241538Y-120700715D01*
G75*
G02*
X233221334Y-121266401I207055J-772741D01*
G01*
X233221334Y-121266401D01*
G75*
G02*
X232655648Y-122246197I-772741J-207055D01*
G01*
X232655648Y-122246197D01*
G75*
G02*
X231675852Y-121680511I-207055J772741D01*
G01*
X231675852Y-121680511D01*
G75*
G02*
X232241538Y-120700715I772741J207055D01*
G01*
G37*
G36*
X229496596Y-113547416D02*
G01*
X231042077Y-113133305D01*
X231456188Y-114678786D01*
X229910707Y-115092897D01*
X229496596Y-113547416D01*
G37*
%TD*%
%TO.C,D71*%
G36*
G01*
X227311035Y-102299828D02*
X227311035Y-102299828D01*
G75*
G02*
X228290831Y-102865514I207055J-772741D01*
G01*
X228290831Y-102865514D01*
G75*
G02*
X227725145Y-103845310I-772741J-207055D01*
G01*
X227725145Y-103845310D01*
G75*
G02*
X226745349Y-103279624I-207055J772741D01*
G01*
X226745349Y-103279624D01*
G75*
G02*
X227311035Y-102299828I772741J207055D01*
G01*
G37*
G36*
X224566093Y-95146529D02*
G01*
X226111574Y-94732418D01*
X226525685Y-96277899D01*
X224980204Y-96692010D01*
X224566093Y-95146529D01*
G37*
%TD*%
%TO.C,D70*%
G36*
G01*
X222380532Y-83898941D02*
X222380532Y-83898941D01*
G75*
G02*
X223360328Y-84464627I207055J-772741D01*
G01*
X223360328Y-84464627D01*
G75*
G02*
X222794642Y-85444423I-772741J-207055D01*
G01*
X222794642Y-85444423D01*
G75*
G02*
X221814846Y-84878737I-207055J772741D01*
G01*
X221814846Y-84878737D01*
G75*
G02*
X222380532Y-83898941I772741J207055D01*
G01*
G37*
G36*
X219635590Y-76745642D02*
G01*
X221181071Y-76331531D01*
X221595182Y-77877012D01*
X220049701Y-78291123D01*
X219635590Y-76745642D01*
G37*
%TD*%
%TO.C,D64*%
G36*
G01*
X191124978Y-158717645D02*
X191124978Y-158717645D01*
G75*
G02*
X191690664Y-159697441I-207055J-772741D01*
G01*
X191690664Y-159697441D01*
G75*
G02*
X190710868Y-160263127I-772741J207055D01*
G01*
X190710868Y-160263127D01*
G75*
G02*
X190145182Y-159283331I207055J772741D01*
G01*
X190145182Y-159283331D01*
G75*
G02*
X191124978Y-158717645I772741J-207055D01*
G01*
G37*
G36*
X192324439Y-151150235D02*
G01*
X193869920Y-151564346D01*
X193455809Y-153109827D01*
X191910328Y-152695716D01*
X192324439Y-151150235D01*
G37*
%TD*%
%TO.C,D62*%
G36*
G01*
X196385762Y-120683245D02*
X196385762Y-120683245D01*
G75*
G02*
X196951448Y-121663041I-207055J-772741D01*
G01*
X196951448Y-121663041D01*
G75*
G02*
X195971652Y-122228727I-772741J207055D01*
G01*
X195971652Y-122228727D01*
G75*
G02*
X195405966Y-121248931I207055J772741D01*
G01*
X195405966Y-121248931D01*
G75*
G02*
X196385762Y-120683245I772741J-207055D01*
G01*
G37*
G36*
X197585223Y-113115835D02*
G01*
X199130704Y-113529946D01*
X198716593Y-115075427D01*
X197171112Y-114661316D01*
X197585223Y-113115835D01*
G37*
%TD*%
%TO.C,D61*%
G36*
G01*
X201316265Y-102282358D02*
X201316265Y-102282358D01*
G75*
G02*
X201881951Y-103262154I-207055J-772741D01*
G01*
X201881951Y-103262154D01*
G75*
G02*
X200902155Y-103827840I-772741J207055D01*
G01*
X200902155Y-103827840D01*
G75*
G02*
X200336469Y-102848044I207055J772741D01*
G01*
X200336469Y-102848044D01*
G75*
G02*
X201316265Y-102282358I772741J-207055D01*
G01*
G37*
G36*
X202515726Y-94714948D02*
G01*
X204061207Y-95129059D01*
X203647096Y-96674540D01*
X202101615Y-96260429D01*
X202515726Y-94714948D01*
G37*
%TD*%
%TO.C,D60*%
G36*
G01*
X206246768Y-83881471D02*
X206246768Y-83881471D01*
G75*
G02*
X206812454Y-84861267I-207055J-772741D01*
G01*
X206812454Y-84861267D01*
G75*
G02*
X205832658Y-85426953I-772741J207055D01*
G01*
X205832658Y-85426953D01*
G75*
G02*
X205266972Y-84447157I207055J772741D01*
G01*
X205266972Y-84447157D01*
G75*
G02*
X206246768Y-83881471I772741J-207055D01*
G01*
G37*
G36*
X207446229Y-76314061D02*
G01*
X208991710Y-76728172D01*
X208577599Y-78273653D01*
X207032118Y-77859542D01*
X207446229Y-76314061D01*
G37*
%TD*%
%TO.C,D54*%
G36*
G01*
X172518654Y-154553846D02*
X172518654Y-154553846D01*
G75*
G02*
X173084340Y-155533642I-207055J-772741D01*
G01*
X173084340Y-155533642D01*
G75*
G02*
X172104544Y-156099328I-772741J207055D01*
G01*
X172104544Y-156099328D01*
G75*
G02*
X171538858Y-155119532I207055J772741D01*
G01*
X171538858Y-155119532D01*
G75*
G02*
X172518654Y-154553846I772741J-207055D01*
G01*
G37*
G36*
X173718115Y-146986436D02*
G01*
X175263596Y-147400547D01*
X174849485Y-148946028D01*
X173304004Y-148531917D01*
X173718115Y-146986436D01*
G37*
%TD*%
%TO.C,D53*%
G36*
G01*
X173821076Y-134359067D02*
X173821076Y-134359067D01*
G75*
G02*
X174386762Y-135338863I-207055J-772741D01*
G01*
X174386762Y-135338863D01*
G75*
G02*
X173406966Y-135904549I-772741J207055D01*
G01*
X173406966Y-135904549D01*
G75*
G02*
X172841280Y-134924753I207055J772741D01*
G01*
X172841280Y-134924753D01*
G75*
G02*
X173821076Y-134359067I772741J-207055D01*
G01*
G37*
G36*
X175020537Y-126791657D02*
G01*
X176566018Y-127205768D01*
X176151907Y-128751249D01*
X174606426Y-128337138D01*
X175020537Y-126791657D01*
G37*
%TD*%
%TO.C,D52*%
G36*
G01*
X177984875Y-115752742D02*
X177984875Y-115752742D01*
G75*
G02*
X178550561Y-116732538I-207055J-772741D01*
G01*
X178550561Y-116732538D01*
G75*
G02*
X177570765Y-117298224I-772741J207055D01*
G01*
X177570765Y-117298224D01*
G75*
G02*
X177005079Y-116318428I207055J772741D01*
G01*
X177005079Y-116318428D01*
G75*
G02*
X177984875Y-115752742I772741J-207055D01*
G01*
G37*
G36*
X179184336Y-108185332D02*
G01*
X180729817Y-108599443D01*
X180315706Y-110144924D01*
X178770225Y-109730813D01*
X179184336Y-108185332D01*
G37*
%TD*%
%TO.C,D51*%
G36*
G01*
X182915378Y-97351855D02*
X182915378Y-97351855D01*
G75*
G02*
X183481064Y-98331651I-207055J-772741D01*
G01*
X183481064Y-98331651D01*
G75*
G02*
X182501268Y-98897337I-772741J207055D01*
G01*
X182501268Y-98897337D01*
G75*
G02*
X181935582Y-97917541I207055J772741D01*
G01*
X181935582Y-97917541D01*
G75*
G02*
X182915378Y-97351855I772741J-207055D01*
G01*
G37*
G36*
X184114839Y-89784445D02*
G01*
X185660320Y-90198556D01*
X185246209Y-91744037D01*
X183700728Y-91329926D01*
X184114839Y-89784445D01*
G37*
%TD*%
%TO.C,D50*%
G36*
G01*
X187845881Y-78950968D02*
X187845881Y-78950968D01*
G75*
G02*
X188411567Y-79930764I-207055J-772741D01*
G01*
X188411567Y-79930764D01*
G75*
G02*
X187431771Y-80496450I-772741J207055D01*
G01*
X187431771Y-80496450D01*
G75*
G02*
X186866085Y-79516654I207055J772741D01*
G01*
X186866085Y-79516654D01*
G75*
G02*
X187845881Y-78950968I772741J-207055D01*
G01*
G37*
G36*
X189045342Y-71383558D02*
G01*
X190590823Y-71797669D01*
X190176712Y-73343150D01*
X188631231Y-72929039D01*
X189045342Y-71383558D01*
G37*
%TD*%
%TO.C,D44*%
G36*
G01*
X150830765Y-161890601D02*
X150830765Y-161890601D01*
G75*
G02*
X151396451Y-162870397I-207055J-772741D01*
G01*
X151396451Y-162870397D01*
G75*
G02*
X150416655Y-163436083I-772741J207055D01*
G01*
X150416655Y-163436083D01*
G75*
G02*
X149850969Y-162456287I207055J772741D01*
G01*
X149850969Y-162456287D01*
G75*
G02*
X150830765Y-161890601I772741J-207055D01*
G01*
G37*
G36*
X152030226Y-154323191D02*
G01*
X153575707Y-154737302D01*
X153161596Y-156282783D01*
X151616115Y-155868672D01*
X152030226Y-154323191D01*
G37*
%TD*%
%TO.C,D43*%
G36*
G01*
X155886111Y-124622905D02*
X155886111Y-124622905D01*
G75*
G02*
X156451797Y-125602701I-207055J-772741D01*
G01*
X156451797Y-125602701D01*
G75*
G02*
X155472001Y-126168387I-772741J207055D01*
G01*
X155472001Y-126168387D01*
G75*
G02*
X154906315Y-125188591I207055J772741D01*
G01*
X154906315Y-125188591D01*
G75*
G02*
X155886111Y-124622905I772741J-207055D01*
G01*
G37*
G36*
X157085572Y-117055495D02*
G01*
X158631053Y-117469606D01*
X158216942Y-119015087D01*
X156671461Y-118600976D01*
X157085572Y-117055495D01*
G37*
%TD*%
%TO.C,D42*%
G36*
G01*
X160816614Y-106222018D02*
X160816614Y-106222018D01*
G75*
G02*
X161382300Y-107201814I-207055J-772741D01*
G01*
X161382300Y-107201814D01*
G75*
G02*
X160402504Y-107767500I-772741J207055D01*
G01*
X160402504Y-107767500D01*
G75*
G02*
X159836818Y-106787704I207055J772741D01*
G01*
X159836818Y-106787704D01*
G75*
G02*
X160816614Y-106222018I772741J-207055D01*
G01*
G37*
G36*
X162016075Y-98654608D02*
G01*
X163561556Y-99068719D01*
X163147445Y-100614200D01*
X161601964Y-100200089D01*
X162016075Y-98654608D01*
G37*
%TD*%
%TO.C,D41*%
G36*
G01*
X165747117Y-87821131D02*
X165747117Y-87821131D01*
G75*
G02*
X166312803Y-88800927I-207055J-772741D01*
G01*
X166312803Y-88800927D01*
G75*
G02*
X165333007Y-89366613I-772741J207055D01*
G01*
X165333007Y-89366613D01*
G75*
G02*
X164767321Y-88386817I207055J772741D01*
G01*
X164767321Y-88386817D01*
G75*
G02*
X165747117Y-87821131I772741J-207055D01*
G01*
G37*
G36*
X166946578Y-80253721D02*
G01*
X168492059Y-80667832D01*
X168077948Y-82213313D01*
X166532467Y-81799202D01*
X166946578Y-80253721D01*
G37*
%TD*%
%TO.C,D40*%
G36*
G01*
X170677619Y-69420244D02*
X170677619Y-69420244D01*
G75*
G02*
X171243305Y-70400040I-207055J-772741D01*
G01*
X171243305Y-70400040D01*
G75*
G02*
X170263509Y-70965726I-772741J207055D01*
G01*
X170263509Y-70965726D01*
G75*
G02*
X169697823Y-69985930I207055J772741D01*
G01*
X169697823Y-69985930D01*
G75*
G02*
X170677619Y-69420244I772741J-207055D01*
G01*
G37*
G36*
X171877080Y-61852834D02*
G01*
X173422561Y-62266945D01*
X173008450Y-63812426D01*
X171462969Y-63398315D01*
X171877080Y-61852834D01*
G37*
%TD*%
%TO.C,D34*%
G36*
G01*
X156620871Y-140281633D02*
X156620871Y-140281633D01*
G75*
G02*
X156055185Y-139301837I207055J772741D01*
G01*
X156055185Y-139301837D01*
G75*
G02*
X157034981Y-138736151I772741J-207055D01*
G01*
X157034981Y-138736151D01*
G75*
G02*
X157600667Y-139715947I-207055J-772741D01*
G01*
X157600667Y-139715947D01*
G75*
G02*
X156620871Y-140281633I-772741J207055D01*
G01*
G37*
G36*
X155421410Y-147849043D02*
G01*
X153875929Y-147434932D01*
X154290040Y-145889451D01*
X155835521Y-146303562D01*
X155421410Y-147849043D01*
G37*
%TD*%
%TO.C,D33*%
G36*
G01*
X138717850Y-115092180D02*
X138717850Y-115092180D01*
G75*
G02*
X139283536Y-116071976I-207055J-772741D01*
G01*
X139283536Y-116071976D01*
G75*
G02*
X138303740Y-116637662I-772741J207055D01*
G01*
X138303740Y-116637662D01*
G75*
G02*
X137738054Y-115657866I207055J772741D01*
G01*
X137738054Y-115657866D01*
G75*
G02*
X138717850Y-115092180I772741J-207055D01*
G01*
G37*
G36*
X139917311Y-107524770D02*
G01*
X141462792Y-107938881D01*
X141048681Y-109484362D01*
X139503200Y-109070251D01*
X139917311Y-107524770D01*
G37*
%TD*%
%TO.C,D32*%
G36*
G01*
X143648353Y-96691293D02*
X143648353Y-96691293D01*
G75*
G02*
X144214039Y-97671089I-207055J-772741D01*
G01*
X144214039Y-97671089D01*
G75*
G02*
X143234243Y-98236775I-772741J207055D01*
G01*
X143234243Y-98236775D01*
G75*
G02*
X142668557Y-97256979I207055J772741D01*
G01*
X142668557Y-97256979D01*
G75*
G02*
X143648353Y-96691293I772741J-207055D01*
G01*
G37*
G36*
X144847814Y-89123883D02*
G01*
X146393295Y-89537994D01*
X145979184Y-91083475D01*
X144433703Y-90669364D01*
X144847814Y-89123883D01*
G37*
%TD*%
%TO.C,D31*%
G36*
G01*
X148578855Y-78290406D02*
X148578855Y-78290406D01*
G75*
G02*
X149144541Y-79270202I-207055J-772741D01*
G01*
X149144541Y-79270202D01*
G75*
G02*
X148164745Y-79835888I-772741J207055D01*
G01*
X148164745Y-79835888D01*
G75*
G02*
X147599059Y-78856092I207055J772741D01*
G01*
X147599059Y-78856092D01*
G75*
G02*
X148578855Y-78290406I772741J-207055D01*
G01*
G37*
G36*
X149778316Y-70722996D02*
G01*
X151323797Y-71137107D01*
X150909686Y-72682588D01*
X149364205Y-72268477D01*
X149778316Y-70722996D01*
G37*
%TD*%
%TO.C,D30*%
G36*
G01*
X153509358Y-59889519D02*
X153509358Y-59889519D01*
G75*
G02*
X154075044Y-60869315I-207055J-772741D01*
G01*
X154075044Y-60869315D01*
G75*
G02*
X153095248Y-61435001I-772741J207055D01*
G01*
X153095248Y-61435001D01*
G75*
G02*
X152529562Y-60455205I207055J772741D01*
G01*
X152529562Y-60455205D01*
G75*
G02*
X153509358Y-59889519I772741J-207055D01*
G01*
G37*
G36*
X154708819Y-52322109D02*
G01*
X156254300Y-52736220D01*
X155840189Y-54281701D01*
X154294708Y-53867590D01*
X154708819Y-52322109D01*
G37*
%TD*%
%TO.C,D23*%
G36*
G01*
X120316963Y-110161677D02*
X120316963Y-110161677D01*
G75*
G02*
X120882649Y-111141473I-207055J-772741D01*
G01*
X120882649Y-111141473D01*
G75*
G02*
X119902853Y-111707159I-772741J207055D01*
G01*
X119902853Y-111707159D01*
G75*
G02*
X119337167Y-110727363I207055J772741D01*
G01*
X119337167Y-110727363D01*
G75*
G02*
X120316963Y-110161677I772741J-207055D01*
G01*
G37*
G36*
X121516424Y-102594267D02*
G01*
X123061905Y-103008378D01*
X122647794Y-104553859D01*
X121102313Y-104139748D01*
X121516424Y-102594267D01*
G37*
%TD*%
%TO.C,D22*%
G36*
G01*
X125247466Y-91760790D02*
X125247466Y-91760790D01*
G75*
G02*
X125813152Y-92740586I-207055J-772741D01*
G01*
X125813152Y-92740586D01*
G75*
G02*
X124833356Y-93306272I-772741J207055D01*
G01*
X124833356Y-93306272D01*
G75*
G02*
X124267670Y-92326476I207055J772741D01*
G01*
X124267670Y-92326476D01*
G75*
G02*
X125247466Y-91760790I772741J-207055D01*
G01*
G37*
G36*
X126446927Y-84193380D02*
G01*
X127992408Y-84607491D01*
X127578297Y-86152972D01*
X126032816Y-85738861D01*
X126446927Y-84193380D01*
G37*
%TD*%
%TO.C,D21*%
G36*
G01*
X130177968Y-73359903D02*
X130177968Y-73359903D01*
G75*
G02*
X130743654Y-74339699I-207055J-772741D01*
G01*
X130743654Y-74339699D01*
G75*
G02*
X129763858Y-74905385I-772741J207055D01*
G01*
X129763858Y-74905385D01*
G75*
G02*
X129198172Y-73925589I207055J772741D01*
G01*
X129198172Y-73925589D01*
G75*
G02*
X130177968Y-73359903I772741J-207055D01*
G01*
G37*
G36*
X131377429Y-65792493D02*
G01*
X132922910Y-66206604D01*
X132508799Y-67752085D01*
X130963318Y-67337974D01*
X131377429Y-65792493D01*
G37*
%TD*%
%TO.C,D20*%
G36*
G01*
X135108471Y-54959016D02*
X135108471Y-54959016D01*
G75*
G02*
X135674157Y-55938812I-207055J-772741D01*
G01*
X135674157Y-55938812D01*
G75*
G02*
X134694361Y-56504498I-772741J207055D01*
G01*
X134694361Y-56504498D01*
G75*
G02*
X134128675Y-55524702I207055J772741D01*
G01*
X134128675Y-55524702D01*
G75*
G02*
X135108471Y-54959016I772741J-207055D01*
G01*
G37*
G36*
X136307932Y-47391606D02*
G01*
X137853413Y-47805717D01*
X137439302Y-49351198D01*
X135893821Y-48937087D01*
X136307932Y-47391606D01*
G37*
%TD*%
%TO.C,D13*%
G36*
G01*
X100683450Y-109831396D02*
X100683450Y-109831396D01*
G75*
G02*
X101249136Y-110811192I-207055J-772741D01*
G01*
X101249136Y-110811192D01*
G75*
G02*
X100269340Y-111376878I-772741J207055D01*
G01*
X100269340Y-111376878D01*
G75*
G02*
X99703654Y-110397082I207055J772741D01*
G01*
X99703654Y-110397082D01*
G75*
G02*
X100683450Y-109831396I772741J-207055D01*
G01*
G37*
G36*
X101882911Y-102263986D02*
G01*
X103428392Y-102678097D01*
X103014281Y-104223578D01*
X101468800Y-103809467D01*
X101882911Y-102263986D01*
G37*
%TD*%
%TO.C,D12*%
G36*
G01*
X105613953Y-91430509D02*
X105613953Y-91430509D01*
G75*
G02*
X106179639Y-92410305I-207055J-772741D01*
G01*
X106179639Y-92410305D01*
G75*
G02*
X105199843Y-92975991I-772741J207055D01*
G01*
X105199843Y-92975991D01*
G75*
G02*
X104634157Y-91996195I207055J772741D01*
G01*
X104634157Y-91996195D01*
G75*
G02*
X105613953Y-91430509I772741J-207055D01*
G01*
G37*
G36*
X106813414Y-83863099D02*
G01*
X108358895Y-84277210D01*
X107944784Y-85822691D01*
X106399303Y-85408580D01*
X106813414Y-83863099D01*
G37*
%TD*%
%TO.C,D11*%
G36*
G01*
X110544456Y-73029622D02*
X110544456Y-73029622D01*
G75*
G02*
X111110142Y-74009418I-207055J-772741D01*
G01*
X111110142Y-74009418D01*
G75*
G02*
X110130346Y-74575104I-772741J207055D01*
G01*
X110130346Y-74575104D01*
G75*
G02*
X109564660Y-73595308I207055J772741D01*
G01*
X109564660Y-73595308D01*
G75*
G02*
X110544456Y-73029622I772741J-207055D01*
G01*
G37*
G36*
X111743917Y-65462212D02*
G01*
X113289398Y-65876323D01*
X112875287Y-67421804D01*
X111329806Y-67007693D01*
X111743917Y-65462212D01*
G37*
%TD*%
%TO.C,D10*%
G36*
G01*
X115474959Y-54628735D02*
X115474959Y-54628735D01*
G75*
G02*
X116040645Y-55608531I-207055J-772741D01*
G01*
X116040645Y-55608531D01*
G75*
G02*
X115060849Y-56174217I-772741J207055D01*
G01*
X115060849Y-56174217D01*
G75*
G02*
X114495163Y-55194421I207055J772741D01*
G01*
X114495163Y-55194421D01*
G75*
G02*
X115474959Y-54628735I772741J-207055D01*
G01*
G37*
G36*
X116674420Y-47061325D02*
G01*
X118219901Y-47475436D01*
X117805790Y-49020917D01*
X116260309Y-48606806D01*
X116674420Y-47061325D01*
G37*
%TD*%
%TO.C,D4*%
G36*
G01*
X76119435Y-127902002D02*
X76119435Y-127902002D01*
G75*
G02*
X76685121Y-128881798I-207055J-772741D01*
G01*
X76685121Y-128881798D01*
G75*
G02*
X75705325Y-129447484I-772741J207055D01*
G01*
X75705325Y-129447484D01*
G75*
G02*
X75139639Y-128467688I207055J772741D01*
G01*
X75139639Y-128467688D01*
G75*
G02*
X76119435Y-127902002I772741J-207055D01*
G01*
G37*
G36*
X77318896Y-120334592D02*
G01*
X78864377Y-120748703D01*
X78450266Y-122294184D01*
X76904785Y-121880073D01*
X77318896Y-120334592D01*
G37*
%TD*%
%TO.C,D3*%
G36*
G01*
X78749827Y-108884802D02*
X78749827Y-108884802D01*
G75*
G02*
X79315513Y-109864598I-207055J-772741D01*
G01*
X79315513Y-109864598D01*
G75*
G02*
X78335717Y-110430284I-772741J207055D01*
G01*
X78335717Y-110430284D01*
G75*
G02*
X77770031Y-109450488I207055J772741D01*
G01*
X77770031Y-109450488D01*
G75*
G02*
X78749827Y-108884802I772741J-207055D01*
G01*
G37*
G36*
X79949288Y-101317392D02*
G01*
X81494769Y-101731503D01*
X81080658Y-103276984D01*
X79535177Y-102862873D01*
X79949288Y-101317392D01*
G37*
%TD*%
%TO.C,D2*%
G36*
G01*
X82146922Y-90073040D02*
X82146922Y-90073040D01*
G75*
G02*
X82712608Y-91052836I-207055J-772741D01*
G01*
X82712608Y-91052836D01*
G75*
G02*
X81732812Y-91618522I-772741J207055D01*
G01*
X81732812Y-91618522D01*
G75*
G02*
X81167126Y-90638726I207055J772741D01*
G01*
X81167126Y-90638726D01*
G75*
G02*
X82146922Y-90073040I772741J-207055D01*
G01*
G37*
G36*
X83346383Y-82505630D02*
G01*
X84891864Y-82919741D01*
X84477753Y-84465222D01*
X82932272Y-84051111D01*
X83346383Y-82505630D01*
G37*
%TD*%
%TO.C,D1*%
G36*
G01*
X89377536Y-72288466D02*
X89377536Y-72288466D01*
G75*
G02*
X89943222Y-73268262I-207055J-772741D01*
G01*
X89943222Y-73268262D01*
G75*
G02*
X88963426Y-73833948I-772741J207055D01*
G01*
X88963426Y-73833948D01*
G75*
G02*
X88397740Y-72854152I207055J772741D01*
G01*
X88397740Y-72854152D01*
G75*
G02*
X89377536Y-72288466I772741J-207055D01*
G01*
G37*
G36*
X90576997Y-64721056D02*
G01*
X92122478Y-65135167D01*
X91708367Y-66680648D01*
X90162886Y-66266537D01*
X90576997Y-64721056D01*
G37*
%TD*%
%TO.C,D0*%
G36*
G01*
X95841446Y-54298454D02*
X95841446Y-54298454D01*
G75*
G02*
X96407132Y-55278250I-207055J-772741D01*
G01*
X96407132Y-55278250D01*
G75*
G02*
X95427336Y-55843936I-772741J207055D01*
G01*
X95427336Y-55843936D01*
G75*
G02*
X94861650Y-54864140I207055J772741D01*
G01*
X94861650Y-54864140D01*
G75*
G02*
X95841446Y-54298454I772741J-207055D01*
G01*
G37*
G36*
X97040907Y-46731044D02*
G01*
X98586388Y-47145155D01*
X98172277Y-48690636D01*
X96626796Y-48276525D01*
X97040907Y-46731044D01*
G37*
%TD*%
M02*
