%TF.GenerationSoftware,KiCad,Pcbnew,(5.1.9)-1*%
%TF.CreationDate,2022-03-20T18:05:12-04:00*%
%TF.ProjectId,essence-pcb-rev_1,65737365-6e63-4652-9d70-63622d726576,rev?*%
%TF.SameCoordinates,Original*%
%TF.FileFunction,Soldermask,Bot*%
%TF.FilePolarity,Negative*%
%FSLAX46Y46*%
G04 Gerber Fmt 4.6, Leading zero omitted, Abs format (unit mm)*
G04 Created by KiCad (PCBNEW (5.1.9)-1) date 2022-03-20 18:05:12*
%MOMM*%
%LPD*%
G01*
G04 APERTURE LIST*
%ADD10C,0.150000*%
%ADD11C,1.200000*%
%ADD12C,2.100000*%
%ADD13C,1.750000*%
%ADD14C,1.752600*%
%ADD15R,1.752600X1.752600*%
%ADD16C,2.000000*%
%ADD17R,2.000000X3.200000*%
%ADD18R,2.000000X2.000000*%
%ADD19C,2.250000*%
%ADD20C,3.987800*%
%ADD21C,3.048000*%
%ADD22C,1.905000*%
%ADD23C,0.100000*%
%ADD24O,1.600000X1.600000*%
%ADD25R,1.600000X1.600000*%
G04 APERTURE END LIST*
D10*
X331912797Y-130532142D02*
X331960416Y-130579761D01*
X332103273Y-130627380D01*
X332198511Y-130627380D01*
X332341369Y-130579761D01*
X332436607Y-130484523D01*
X332484226Y-130389285D01*
X332531845Y-130198809D01*
X332531845Y-130055952D01*
X332484226Y-129865476D01*
X332436607Y-129770238D01*
X332341369Y-129675000D01*
X332198511Y-129627380D01*
X332103273Y-129627380D01*
X331960416Y-129675000D01*
X331912797Y-129722619D01*
X331484226Y-130627380D02*
X331484226Y-129960714D01*
X331484226Y-130151190D02*
X331436607Y-130055952D01*
X331388988Y-130008333D01*
X331293750Y-129960714D01*
X331198511Y-129960714D01*
X330484226Y-130579761D02*
X330579464Y-130627380D01*
X330769940Y-130627380D01*
X330865178Y-130579761D01*
X330912797Y-130484523D01*
X330912797Y-130103571D01*
X330865178Y-130008333D01*
X330769940Y-129960714D01*
X330579464Y-129960714D01*
X330484226Y-130008333D01*
X330436607Y-130103571D01*
X330436607Y-130198809D01*
X330912797Y-130294047D01*
X329579464Y-130627380D02*
X329579464Y-130103571D01*
X329627083Y-130008333D01*
X329722321Y-129960714D01*
X329912797Y-129960714D01*
X330008035Y-130008333D01*
X329579464Y-130579761D02*
X329674702Y-130627380D01*
X329912797Y-130627380D01*
X330008035Y-130579761D01*
X330055654Y-130484523D01*
X330055654Y-130389285D01*
X330008035Y-130294047D01*
X329912797Y-130246428D01*
X329674702Y-130246428D01*
X329579464Y-130198809D01*
X329246130Y-129960714D02*
X328865178Y-129960714D01*
X329103273Y-129627380D02*
X329103273Y-130484523D01*
X329055654Y-130579761D01*
X328960416Y-130627380D01*
X328865178Y-130627380D01*
X328150892Y-130579761D02*
X328246130Y-130627380D01*
X328436607Y-130627380D01*
X328531845Y-130579761D01*
X328579464Y-130484523D01*
X328579464Y-130103571D01*
X328531845Y-130008333D01*
X328436607Y-129960714D01*
X328246130Y-129960714D01*
X328150892Y-130008333D01*
X328103273Y-130103571D01*
X328103273Y-130198809D01*
X328579464Y-130294047D01*
X327246130Y-130627380D02*
X327246130Y-129627380D01*
X327246130Y-130579761D02*
X327341369Y-130627380D01*
X327531845Y-130627380D01*
X327627083Y-130579761D01*
X327674702Y-130532142D01*
X327722321Y-130436904D01*
X327722321Y-130151190D01*
X327674702Y-130055952D01*
X327627083Y-130008333D01*
X327531845Y-129960714D01*
X327341369Y-129960714D01*
X327246130Y-130008333D01*
X326150892Y-129960714D02*
X325769940Y-129960714D01*
X326008035Y-130627380D02*
X326008035Y-129770238D01*
X325960416Y-129675000D01*
X325865178Y-129627380D01*
X325769940Y-129627380D01*
X325293750Y-130627380D02*
X325388988Y-130579761D01*
X325436607Y-130532142D01*
X325484226Y-130436904D01*
X325484226Y-130151190D01*
X325436607Y-130055952D01*
X325388988Y-130008333D01*
X325293750Y-129960714D01*
X325150892Y-129960714D01*
X325055654Y-130008333D01*
X325008035Y-130055952D01*
X324960416Y-130151190D01*
X324960416Y-130436904D01*
X325008035Y-130532142D01*
X325055654Y-130579761D01*
X325150892Y-130627380D01*
X325293750Y-130627380D01*
X324531845Y-130627380D02*
X324531845Y-129960714D01*
X324531845Y-130151190D02*
X324484226Y-130055952D01*
X324436607Y-130008333D01*
X324341369Y-129960714D01*
X324246130Y-129960714D01*
X323198511Y-130579761D02*
X323055654Y-130627380D01*
X322817559Y-130627380D01*
X322722321Y-130579761D01*
X322674702Y-130532142D01*
X322627083Y-130436904D01*
X322627083Y-130341666D01*
X322674702Y-130246428D01*
X322722321Y-130198809D01*
X322817559Y-130151190D01*
X323008035Y-130103571D01*
X323103273Y-130055952D01*
X323150892Y-130008333D01*
X323198511Y-129913095D01*
X323198511Y-129817857D01*
X323150892Y-129722619D01*
X323103273Y-129675000D01*
X323008035Y-129627380D01*
X322769940Y-129627380D01*
X322627083Y-129675000D01*
X322198511Y-130627380D02*
X322198511Y-129627380D01*
X322198511Y-130103571D02*
X321627083Y-130103571D01*
X321627083Y-130627380D02*
X321627083Y-129627380D01*
X321198511Y-130579761D02*
X321055654Y-130627380D01*
X320817559Y-130627380D01*
X320722321Y-130579761D01*
X320674702Y-130532142D01*
X320627083Y-130436904D01*
X320627083Y-130341666D01*
X320674702Y-130246428D01*
X320722321Y-130198809D01*
X320817559Y-130151190D01*
X321008035Y-130103571D01*
X321103273Y-130055952D01*
X321150892Y-130008333D01*
X321198511Y-129913095D01*
X321198511Y-129817857D01*
X321150892Y-129722619D01*
X321103273Y-129675000D01*
X321008035Y-129627380D01*
X320769940Y-129627380D01*
X320627083Y-129675000D01*
X319484226Y-130579761D02*
X319341369Y-130627380D01*
X319103273Y-130627380D01*
X319008035Y-130579761D01*
X318960416Y-130532142D01*
X318912797Y-130436904D01*
X318912797Y-130341666D01*
X318960416Y-130246428D01*
X319008035Y-130198809D01*
X319103273Y-130151190D01*
X319293750Y-130103571D01*
X319388988Y-130055952D01*
X319436607Y-130008333D01*
X319484226Y-129913095D01*
X319484226Y-129817857D01*
X319436607Y-129722619D01*
X319388988Y-129675000D01*
X319293750Y-129627380D01*
X319055654Y-129627380D01*
X318912797Y-129675000D01*
X318103273Y-130579761D02*
X318198511Y-130627380D01*
X318388988Y-130627380D01*
X318484226Y-130579761D01*
X318531845Y-130484523D01*
X318531845Y-130103571D01*
X318484226Y-130008333D01*
X318388988Y-129960714D01*
X318198511Y-129960714D01*
X318103273Y-130008333D01*
X318055654Y-130103571D01*
X318055654Y-130198809D01*
X318531845Y-130294047D01*
X317627083Y-129960714D02*
X317627083Y-130627380D01*
X317627083Y-130055952D02*
X317579464Y-130008333D01*
X317484226Y-129960714D01*
X317341369Y-129960714D01*
X317246130Y-130008333D01*
X317198511Y-130103571D01*
X317198511Y-130627380D01*
X316722321Y-130627380D02*
X316722321Y-129960714D01*
X316722321Y-129627380D02*
X316769940Y-129675000D01*
X316722321Y-129722619D01*
X316674702Y-129675000D01*
X316722321Y-129627380D01*
X316722321Y-129722619D01*
X316103273Y-130627380D02*
X316198511Y-130579761D01*
X316246130Y-130532142D01*
X316293750Y-130436904D01*
X316293750Y-130151190D01*
X316246130Y-130055952D01*
X316198511Y-130008333D01*
X316103273Y-129960714D01*
X315960416Y-129960714D01*
X315865178Y-130008333D01*
X315817559Y-130055952D01*
X315769940Y-130151190D01*
X315769940Y-130436904D01*
X315817559Y-130532142D01*
X315865178Y-130579761D01*
X315960416Y-130627380D01*
X316103273Y-130627380D01*
X315341369Y-130627380D02*
X315341369Y-129960714D01*
X315341369Y-130151190D02*
X315293750Y-130055952D01*
X315246130Y-130008333D01*
X315150892Y-129960714D01*
X315055654Y-129960714D01*
X313960416Y-130627380D02*
X313960416Y-129627380D01*
X313579464Y-129627380D01*
X313484226Y-129675000D01*
X313436607Y-129722619D01*
X313388988Y-129817857D01*
X313388988Y-129960714D01*
X313436607Y-130055952D01*
X313484226Y-130103571D01*
X313579464Y-130151190D01*
X313960416Y-130151190D01*
X312960416Y-130627380D02*
X312960416Y-129960714D01*
X312960416Y-130151190D02*
X312912797Y-130055952D01*
X312865178Y-130008333D01*
X312769940Y-129960714D01*
X312674702Y-129960714D01*
X312198511Y-130627380D02*
X312293750Y-130579761D01*
X312341369Y-130532142D01*
X312388988Y-130436904D01*
X312388988Y-130151190D01*
X312341369Y-130055952D01*
X312293750Y-130008333D01*
X312198511Y-129960714D01*
X312055654Y-129960714D01*
X311960416Y-130008333D01*
X311912797Y-130055952D01*
X311865178Y-130151190D01*
X311865178Y-130436904D01*
X311912797Y-130532142D01*
X311960416Y-130579761D01*
X312055654Y-130627380D01*
X312198511Y-130627380D01*
X311436607Y-129960714D02*
X311436607Y-130817857D01*
X311484226Y-130913095D01*
X311579464Y-130960714D01*
X311627083Y-130960714D01*
X311436607Y-129627380D02*
X311484226Y-129675000D01*
X311436607Y-129722619D01*
X311388988Y-129675000D01*
X311436607Y-129627380D01*
X311436607Y-129722619D01*
X310579464Y-130579761D02*
X310674702Y-130627380D01*
X310865178Y-130627380D01*
X310960416Y-130579761D01*
X311008035Y-130484523D01*
X311008035Y-130103571D01*
X310960416Y-130008333D01*
X310865178Y-129960714D01*
X310674702Y-129960714D01*
X310579464Y-130008333D01*
X310531845Y-130103571D01*
X310531845Y-130198809D01*
X311008035Y-130294047D01*
X309674702Y-130579761D02*
X309769940Y-130627380D01*
X309960416Y-130627380D01*
X310055654Y-130579761D01*
X310103273Y-130532142D01*
X310150892Y-130436904D01*
X310150892Y-130151190D01*
X310103273Y-130055952D01*
X310055654Y-130008333D01*
X309960416Y-129960714D01*
X309769940Y-129960714D01*
X309674702Y-130008333D01*
X309388988Y-129960714D02*
X309008035Y-129960714D01*
X309246130Y-129627380D02*
X309246130Y-130484523D01*
X309198511Y-130579761D01*
X309103273Y-130627380D01*
X309008035Y-130627380D01*
X308627083Y-130579761D02*
X308627083Y-130627380D01*
X308674702Y-130722619D01*
X308722321Y-130770238D01*
X307484226Y-129722619D02*
X307436607Y-129675000D01*
X307341369Y-129627380D01*
X307103273Y-129627380D01*
X307008035Y-129675000D01*
X306960416Y-129722619D01*
X306912797Y-129817857D01*
X306912797Y-129913095D01*
X306960416Y-130055952D01*
X307531845Y-130627380D01*
X306912797Y-130627380D01*
X306293750Y-129627380D02*
X306198511Y-129627380D01*
X306103273Y-129675000D01*
X306055654Y-129722619D01*
X306008035Y-129817857D01*
X305960416Y-130008333D01*
X305960416Y-130246428D01*
X306008035Y-130436904D01*
X306055654Y-130532142D01*
X306103273Y-130579761D01*
X306198511Y-130627380D01*
X306293750Y-130627380D01*
X306388988Y-130579761D01*
X306436607Y-130532142D01*
X306484226Y-130436904D01*
X306531845Y-130246428D01*
X306531845Y-130008333D01*
X306484226Y-129817857D01*
X306436607Y-129722619D01*
X306388988Y-129675000D01*
X306293750Y-129627380D01*
X305579464Y-129722619D02*
X305531845Y-129675000D01*
X305436607Y-129627380D01*
X305198511Y-129627380D01*
X305103273Y-129675000D01*
X305055654Y-129722619D01*
X305008035Y-129817857D01*
X305008035Y-129913095D01*
X305055654Y-130055952D01*
X305627083Y-130627380D01*
X305008035Y-130627380D01*
X304627083Y-129722619D02*
X304579464Y-129675000D01*
X304484226Y-129627380D01*
X304246130Y-129627380D01*
X304150892Y-129675000D01*
X304103273Y-129722619D01*
X304055654Y-129817857D01*
X304055654Y-129913095D01*
X304103273Y-130055952D01*
X304674702Y-130627380D01*
X304055654Y-130627380D01*
X118480952Y-134596130D02*
X118480952Y-133596130D01*
X118242857Y-133596130D01*
X118100000Y-133643750D01*
X118004761Y-133738988D01*
X117957142Y-133834226D01*
X117909523Y-134024702D01*
X117909523Y-134167559D01*
X117957142Y-134358035D01*
X118004761Y-134453273D01*
X118100000Y-134548511D01*
X118242857Y-134596130D01*
X118480952Y-134596130D01*
X117100000Y-134548511D02*
X117195238Y-134596130D01*
X117385714Y-134596130D01*
X117480952Y-134548511D01*
X117528571Y-134453273D01*
X117528571Y-134072321D01*
X117480952Y-133977083D01*
X117385714Y-133929464D01*
X117195238Y-133929464D01*
X117100000Y-133977083D01*
X117052380Y-134072321D01*
X117052380Y-134167559D01*
X117528571Y-134262797D01*
X116671428Y-134548511D02*
X116576190Y-134596130D01*
X116385714Y-134596130D01*
X116290476Y-134548511D01*
X116242857Y-134453273D01*
X116242857Y-134405654D01*
X116290476Y-134310416D01*
X116385714Y-134262797D01*
X116528571Y-134262797D01*
X116623809Y-134215178D01*
X116671428Y-134119940D01*
X116671428Y-134072321D01*
X116623809Y-133977083D01*
X116528571Y-133929464D01*
X116385714Y-133929464D01*
X116290476Y-133977083D01*
X115814285Y-134596130D02*
X115814285Y-133929464D01*
X115814285Y-133596130D02*
X115861904Y-133643750D01*
X115814285Y-133691369D01*
X115766666Y-133643750D01*
X115814285Y-133596130D01*
X115814285Y-133691369D01*
X114909523Y-133929464D02*
X114909523Y-134738988D01*
X114957142Y-134834226D01*
X115004761Y-134881845D01*
X115100000Y-134929464D01*
X115242857Y-134929464D01*
X115338095Y-134881845D01*
X114909523Y-134548511D02*
X115004761Y-134596130D01*
X115195238Y-134596130D01*
X115290476Y-134548511D01*
X115338095Y-134500892D01*
X115385714Y-134405654D01*
X115385714Y-134119940D01*
X115338095Y-134024702D01*
X115290476Y-133977083D01*
X115195238Y-133929464D01*
X115004761Y-133929464D01*
X114909523Y-133977083D01*
X114433333Y-133929464D02*
X114433333Y-134596130D01*
X114433333Y-134024702D02*
X114385714Y-133977083D01*
X114290476Y-133929464D01*
X114147619Y-133929464D01*
X114052380Y-133977083D01*
X114004761Y-134072321D01*
X114004761Y-134596130D01*
X113147619Y-134548511D02*
X113242857Y-134596130D01*
X113433333Y-134596130D01*
X113528571Y-134548511D01*
X113576190Y-134453273D01*
X113576190Y-134072321D01*
X113528571Y-133977083D01*
X113433333Y-133929464D01*
X113242857Y-133929464D01*
X113147619Y-133977083D01*
X113100000Y-134072321D01*
X113100000Y-134167559D01*
X113576190Y-134262797D01*
X112242857Y-134596130D02*
X112242857Y-133596130D01*
X112242857Y-134548511D02*
X112338095Y-134596130D01*
X112528571Y-134596130D01*
X112623809Y-134548511D01*
X112671428Y-134500892D01*
X112719047Y-134405654D01*
X112719047Y-134119940D01*
X112671428Y-134024702D01*
X112623809Y-133977083D01*
X112528571Y-133929464D01*
X112338095Y-133929464D01*
X112242857Y-133977083D01*
X111004761Y-134596130D02*
X111004761Y-133596130D01*
X111004761Y-133977083D02*
X110909523Y-133929464D01*
X110719047Y-133929464D01*
X110623809Y-133977083D01*
X110576190Y-134024702D01*
X110528571Y-134119940D01*
X110528571Y-134405654D01*
X110576190Y-134500892D01*
X110623809Y-134548511D01*
X110719047Y-134596130D01*
X110909523Y-134596130D01*
X111004761Y-134548511D01*
X110195238Y-133929464D02*
X109957142Y-134596130D01*
X109719047Y-133929464D02*
X109957142Y-134596130D01*
X110052380Y-134834226D01*
X110100000Y-134881845D01*
X110195238Y-134929464D01*
X108576190Y-134596130D02*
X108576190Y-133596130D01*
X108576190Y-134072321D02*
X108004761Y-134072321D01*
X108004761Y-134596130D02*
X108004761Y-133596130D01*
X107623809Y-133929464D02*
X107385714Y-134596130D01*
X107147619Y-133929464D02*
X107385714Y-134596130D01*
X107480952Y-134834226D01*
X107528571Y-134881845D01*
X107623809Y-134929464D01*
X106766666Y-133929464D02*
X106766666Y-134929464D01*
X106766666Y-133977083D02*
X106671428Y-133929464D01*
X106480952Y-133929464D01*
X106385714Y-133977083D01*
X106338095Y-134024702D01*
X106290476Y-134119940D01*
X106290476Y-134405654D01*
X106338095Y-134500892D01*
X106385714Y-134548511D01*
X106480952Y-134596130D01*
X106671428Y-134596130D01*
X106766666Y-134548511D01*
X105480952Y-134548511D02*
X105576190Y-134596130D01*
X105766666Y-134596130D01*
X105861904Y-134548511D01*
X105909523Y-134453273D01*
X105909523Y-134072321D01*
X105861904Y-133977083D01*
X105766666Y-133929464D01*
X105576190Y-133929464D01*
X105480952Y-133977083D01*
X105433333Y-134072321D01*
X105433333Y-134167559D01*
X105909523Y-134262797D01*
X105004761Y-134596130D02*
X105004761Y-133929464D01*
X105004761Y-134119940D02*
X104957142Y-134024702D01*
X104909523Y-133977083D01*
X104814285Y-133929464D01*
X104719047Y-133929464D01*
X104385714Y-134215178D02*
X103623809Y-134215178D01*
X103242857Y-133929464D02*
X103052380Y-134596130D01*
X102861904Y-134119940D01*
X102671428Y-134596130D01*
X102480952Y-133929464D01*
X101957142Y-134596130D02*
X102052380Y-134548511D01*
X102100000Y-134500892D01*
X102147619Y-134405654D01*
X102147619Y-134119940D01*
X102100000Y-134024702D01*
X102052380Y-133977083D01*
X101957142Y-133929464D01*
X101814285Y-133929464D01*
X101719047Y-133977083D01*
X101671428Y-134024702D01*
X101623809Y-134119940D01*
X101623809Y-134405654D01*
X101671428Y-134500892D01*
X101719047Y-134548511D01*
X101814285Y-134596130D01*
X101957142Y-134596130D01*
X101195238Y-134596130D02*
X101195238Y-133929464D01*
X101195238Y-134119940D02*
X101147619Y-134024702D01*
X101100000Y-133977083D01*
X101004761Y-133929464D01*
X100909523Y-133929464D01*
X100576190Y-134596130D02*
X100576190Y-133596130D01*
X100480952Y-134215178D02*
X100195238Y-134596130D01*
X100195238Y-133929464D02*
X100576190Y-134310416D01*
X99814285Y-134548511D02*
X99719047Y-134596130D01*
X99528571Y-134596130D01*
X99433333Y-134548511D01*
X99385714Y-134453273D01*
X99385714Y-134405654D01*
X99433333Y-134310416D01*
X99528571Y-134262797D01*
X99671428Y-134262797D01*
X99766666Y-134215178D01*
X99814285Y-134119940D01*
X99814285Y-134072321D01*
X99766666Y-133977083D01*
X99671428Y-133929464D01*
X99528571Y-133929464D01*
X99433333Y-133977083D01*
X98909523Y-134548511D02*
X98909523Y-134596130D01*
X98957142Y-134691369D01*
X99004761Y-134738988D01*
X97290476Y-134548511D02*
X97385714Y-134596130D01*
X97576190Y-134596130D01*
X97671428Y-134548511D01*
X97719047Y-134500892D01*
X97766666Y-134405654D01*
X97766666Y-134119940D01*
X97719047Y-134024702D01*
X97671428Y-133977083D01*
X97576190Y-133929464D01*
X97385714Y-133929464D01*
X97290476Y-133977083D01*
X96861904Y-134596130D02*
X96861904Y-133929464D01*
X96861904Y-133596130D02*
X96909523Y-133643750D01*
X96861904Y-133691369D01*
X96814285Y-133643750D01*
X96861904Y-133596130D01*
X96861904Y-133691369D01*
X96385714Y-134596130D02*
X96385714Y-133929464D01*
X96385714Y-134119940D02*
X96338095Y-134024702D01*
X96290476Y-133977083D01*
X96195238Y-133929464D01*
X96100000Y-133929464D01*
X95338095Y-134548511D02*
X95433333Y-134596130D01*
X95623809Y-134596130D01*
X95719047Y-134548511D01*
X95766666Y-134500892D01*
X95814285Y-134405654D01*
X95814285Y-134119940D01*
X95766666Y-134024702D01*
X95719047Y-133977083D01*
X95623809Y-133929464D01*
X95433333Y-133929464D01*
X95338095Y-133977083D01*
X94480952Y-134596130D02*
X94480952Y-134072321D01*
X94528571Y-133977083D01*
X94623809Y-133929464D01*
X94814285Y-133929464D01*
X94909523Y-133977083D01*
X94480952Y-134548511D02*
X94576190Y-134596130D01*
X94814285Y-134596130D01*
X94909523Y-134548511D01*
X94957142Y-134453273D01*
X94957142Y-134358035D01*
X94909523Y-134262797D01*
X94814285Y-134215178D01*
X94576190Y-134215178D01*
X94480952Y-134167559D01*
X93242857Y-134596130D02*
X93242857Y-133596130D01*
X92909523Y-134310416D01*
X92576190Y-133596130D01*
X92576190Y-134596130D01*
X91671428Y-134596130D02*
X91671428Y-134072321D01*
X91719047Y-133977083D01*
X91814285Y-133929464D01*
X92004761Y-133929464D01*
X92100000Y-133977083D01*
X91671428Y-134548511D02*
X91766666Y-134596130D01*
X92004761Y-134596130D01*
X92100000Y-134548511D01*
X92147619Y-134453273D01*
X92147619Y-134358035D01*
X92100000Y-134262797D01*
X92004761Y-134215178D01*
X91766666Y-134215178D01*
X91671428Y-134167559D01*
X91195238Y-134596130D02*
X91195238Y-133929464D01*
X91195238Y-134119940D02*
X91147619Y-134024702D01*
X91100000Y-133977083D01*
X91004761Y-133929464D01*
X90909523Y-133929464D01*
X90147619Y-134548511D02*
X90242857Y-134596130D01*
X90433333Y-134596130D01*
X90528571Y-134548511D01*
X90576190Y-134500892D01*
X90623809Y-134405654D01*
X90623809Y-134119940D01*
X90576190Y-134024702D01*
X90528571Y-133977083D01*
X90433333Y-133929464D01*
X90242857Y-133929464D01*
X90147619Y-133977083D01*
X89719047Y-134596130D02*
X89719047Y-133596130D01*
X89290476Y-134596130D02*
X89290476Y-134072321D01*
X89338095Y-133977083D01*
X89433333Y-133929464D01*
X89576190Y-133929464D01*
X89671428Y-133977083D01*
X89719047Y-134024702D01*
X88100000Y-133691369D02*
X88052380Y-133643750D01*
X87957142Y-133596130D01*
X87719047Y-133596130D01*
X87623809Y-133643750D01*
X87576190Y-133691369D01*
X87528571Y-133786607D01*
X87528571Y-133881845D01*
X87576190Y-134024702D01*
X88147619Y-134596130D01*
X87528571Y-134596130D01*
X86909523Y-133596130D02*
X86814285Y-133596130D01*
X86719047Y-133643750D01*
X86671428Y-133691369D01*
X86623809Y-133786607D01*
X86576190Y-133977083D01*
X86576190Y-134215178D01*
X86623809Y-134405654D01*
X86671428Y-134500892D01*
X86719047Y-134548511D01*
X86814285Y-134596130D01*
X86909523Y-134596130D01*
X87004761Y-134548511D01*
X87052380Y-134500892D01*
X87100000Y-134405654D01*
X87147619Y-134215178D01*
X87147619Y-133977083D01*
X87100000Y-133786607D01*
X87052380Y-133691369D01*
X87004761Y-133643750D01*
X86909523Y-133596130D01*
X86195238Y-133691369D02*
X86147619Y-133643750D01*
X86052380Y-133596130D01*
X85814285Y-133596130D01*
X85719047Y-133643750D01*
X85671428Y-133691369D01*
X85623809Y-133786607D01*
X85623809Y-133881845D01*
X85671428Y-134024702D01*
X86242857Y-134596130D01*
X85623809Y-134596130D01*
X85242857Y-133691369D02*
X85195238Y-133643750D01*
X85100000Y-133596130D01*
X84861904Y-133596130D01*
X84766666Y-133643750D01*
X84719047Y-133691369D01*
X84671428Y-133786607D01*
X84671428Y-133881845D01*
X84719047Y-134024702D01*
X85290476Y-134596130D01*
X84671428Y-134596130D01*
X113544345Y-128516071D02*
X113211011Y-128516071D01*
X113068154Y-129039880D02*
X113544345Y-129039880D01*
X113544345Y-128039880D01*
X113068154Y-128039880D01*
X112687202Y-128992261D02*
X112591964Y-129039880D01*
X112401488Y-129039880D01*
X112306250Y-128992261D01*
X112258630Y-128897023D01*
X112258630Y-128849404D01*
X112306250Y-128754166D01*
X112401488Y-128706547D01*
X112544345Y-128706547D01*
X112639583Y-128658928D01*
X112687202Y-128563690D01*
X112687202Y-128516071D01*
X112639583Y-128420833D01*
X112544345Y-128373214D01*
X112401488Y-128373214D01*
X112306250Y-128420833D01*
X111877678Y-128992261D02*
X111782440Y-129039880D01*
X111591964Y-129039880D01*
X111496726Y-128992261D01*
X111449107Y-128897023D01*
X111449107Y-128849404D01*
X111496726Y-128754166D01*
X111591964Y-128706547D01*
X111734821Y-128706547D01*
X111830059Y-128658928D01*
X111877678Y-128563690D01*
X111877678Y-128516071D01*
X111830059Y-128420833D01*
X111734821Y-128373214D01*
X111591964Y-128373214D01*
X111496726Y-128420833D01*
X110639583Y-128992261D02*
X110734821Y-129039880D01*
X110925297Y-129039880D01*
X111020535Y-128992261D01*
X111068154Y-128897023D01*
X111068154Y-128516071D01*
X111020535Y-128420833D01*
X110925297Y-128373214D01*
X110734821Y-128373214D01*
X110639583Y-128420833D01*
X110591964Y-128516071D01*
X110591964Y-128611309D01*
X111068154Y-128706547D01*
X110163392Y-128373214D02*
X110163392Y-129039880D01*
X110163392Y-128468452D02*
X110115773Y-128420833D01*
X110020535Y-128373214D01*
X109877678Y-128373214D01*
X109782440Y-128420833D01*
X109734821Y-128516071D01*
X109734821Y-129039880D01*
X108830059Y-128992261D02*
X108925297Y-129039880D01*
X109115773Y-129039880D01*
X109211011Y-128992261D01*
X109258630Y-128944642D01*
X109306250Y-128849404D01*
X109306250Y-128563690D01*
X109258630Y-128468452D01*
X109211011Y-128420833D01*
X109115773Y-128373214D01*
X108925297Y-128373214D01*
X108830059Y-128420833D01*
X108020535Y-128992261D02*
X108115773Y-129039880D01*
X108306250Y-129039880D01*
X108401488Y-128992261D01*
X108449107Y-128897023D01*
X108449107Y-128516071D01*
X108401488Y-128420833D01*
X108306250Y-128373214D01*
X108115773Y-128373214D01*
X108020535Y-128420833D01*
X107972916Y-128516071D01*
X107972916Y-128611309D01*
X108449107Y-128706547D01*
X106782440Y-128516071D02*
X106449107Y-128516071D01*
X106306250Y-129039880D02*
X106782440Y-129039880D01*
X106782440Y-128039880D01*
X106306250Y-128039880D01*
X105877678Y-129039880D02*
X105877678Y-128373214D01*
X105877678Y-128563690D02*
X105830059Y-128468452D01*
X105782440Y-128420833D01*
X105687202Y-128373214D01*
X105591964Y-128373214D01*
X104830059Y-128373214D02*
X104830059Y-129182738D01*
X104877678Y-129277976D01*
X104925297Y-129325595D01*
X105020535Y-129373214D01*
X105163392Y-129373214D01*
X105258630Y-129325595D01*
X104830059Y-128992261D02*
X104925297Y-129039880D01*
X105115773Y-129039880D01*
X105211011Y-128992261D01*
X105258630Y-128944642D01*
X105306250Y-128849404D01*
X105306250Y-128563690D01*
X105258630Y-128468452D01*
X105211011Y-128420833D01*
X105115773Y-128373214D01*
X104925297Y-128373214D01*
X104830059Y-128420833D01*
X104211011Y-129039880D02*
X104306250Y-128992261D01*
X104353869Y-128944642D01*
X104401488Y-128849404D01*
X104401488Y-128563690D01*
X104353869Y-128468452D01*
X104306250Y-128420833D01*
X104211011Y-128373214D01*
X104068154Y-128373214D01*
X103972916Y-128420833D01*
X103925297Y-128468452D01*
X103877678Y-128563690D01*
X103877678Y-128849404D01*
X103925297Y-128944642D01*
X103972916Y-128992261D01*
X104068154Y-129039880D01*
X104211011Y-129039880D01*
X102687202Y-129039880D02*
X102687202Y-128039880D01*
X102115773Y-129039880D02*
X102544345Y-128468452D01*
X102115773Y-128039880D02*
X102687202Y-128611309D01*
X101306250Y-128992261D02*
X101401488Y-129039880D01*
X101591964Y-129039880D01*
X101687202Y-128992261D01*
X101734821Y-128897023D01*
X101734821Y-128516071D01*
X101687202Y-128420833D01*
X101591964Y-128373214D01*
X101401488Y-128373214D01*
X101306250Y-128420833D01*
X101258630Y-128516071D01*
X101258630Y-128611309D01*
X101734821Y-128706547D01*
X100925297Y-128373214D02*
X100687202Y-129039880D01*
X100449107Y-128373214D02*
X100687202Y-129039880D01*
X100782440Y-129277976D01*
X100830059Y-129325595D01*
X100925297Y-129373214D01*
X100068154Y-129039880D02*
X100068154Y-128039880D01*
X100068154Y-128420833D02*
X99972916Y-128373214D01*
X99782440Y-128373214D01*
X99687202Y-128420833D01*
X99639583Y-128468452D01*
X99591964Y-128563690D01*
X99591964Y-128849404D01*
X99639583Y-128944642D01*
X99687202Y-128992261D01*
X99782440Y-129039880D01*
X99972916Y-129039880D01*
X100068154Y-128992261D01*
X99020535Y-129039880D02*
X99115773Y-128992261D01*
X99163392Y-128944642D01*
X99211011Y-128849404D01*
X99211011Y-128563690D01*
X99163392Y-128468452D01*
X99115773Y-128420833D01*
X99020535Y-128373214D01*
X98877678Y-128373214D01*
X98782440Y-128420833D01*
X98734821Y-128468452D01*
X98687202Y-128563690D01*
X98687202Y-128849404D01*
X98734821Y-128944642D01*
X98782440Y-128992261D01*
X98877678Y-129039880D01*
X99020535Y-129039880D01*
X97830059Y-129039880D02*
X97830059Y-128516071D01*
X97877678Y-128420833D01*
X97972916Y-128373214D01*
X98163392Y-128373214D01*
X98258630Y-128420833D01*
X97830059Y-128992261D02*
X97925297Y-129039880D01*
X98163392Y-129039880D01*
X98258630Y-128992261D01*
X98306250Y-128897023D01*
X98306250Y-128801785D01*
X98258630Y-128706547D01*
X98163392Y-128658928D01*
X97925297Y-128658928D01*
X97830059Y-128611309D01*
X97353869Y-129039880D02*
X97353869Y-128373214D01*
X97353869Y-128563690D02*
X97306250Y-128468452D01*
X97258630Y-128420833D01*
X97163392Y-128373214D01*
X97068154Y-128373214D01*
X96306250Y-129039880D02*
X96306250Y-128039880D01*
X96306250Y-128992261D02*
X96401488Y-129039880D01*
X96591964Y-129039880D01*
X96687202Y-128992261D01*
X96734821Y-128944642D01*
X96782440Y-128849404D01*
X96782440Y-128563690D01*
X96734821Y-128468452D01*
X96687202Y-128420833D01*
X96591964Y-128373214D01*
X96401488Y-128373214D01*
X96306250Y-128420833D01*
X95068154Y-129039880D02*
X95068154Y-128039880D01*
X94734821Y-128754166D01*
X94401488Y-128039880D01*
X94401488Y-129039880D01*
X93782440Y-129039880D02*
X93877678Y-128992261D01*
X93925297Y-128944642D01*
X93972916Y-128849404D01*
X93972916Y-128563690D01*
X93925297Y-128468452D01*
X93877678Y-128420833D01*
X93782440Y-128373214D01*
X93639583Y-128373214D01*
X93544345Y-128420833D01*
X93496726Y-128468452D01*
X93449107Y-128563690D01*
X93449107Y-128849404D01*
X93496726Y-128944642D01*
X93544345Y-128992261D01*
X93639583Y-129039880D01*
X93782440Y-129039880D01*
X92591964Y-129039880D02*
X92591964Y-128039880D01*
X92591964Y-128992261D02*
X92687202Y-129039880D01*
X92877678Y-129039880D01*
X92972916Y-128992261D01*
X93020535Y-128944642D01*
X93068154Y-128849404D01*
X93068154Y-128563690D01*
X93020535Y-128468452D01*
X92972916Y-128420833D01*
X92877678Y-128373214D01*
X92687202Y-128373214D01*
X92591964Y-128420833D01*
X91734821Y-128992261D02*
X91830059Y-129039880D01*
X92020535Y-129039880D01*
X92115773Y-128992261D01*
X92163392Y-128897023D01*
X92163392Y-128516071D01*
X92115773Y-128420833D01*
X92020535Y-128373214D01*
X91830059Y-128373214D01*
X91734821Y-128420833D01*
X91687202Y-128516071D01*
X91687202Y-128611309D01*
X92163392Y-128706547D01*
X91115773Y-129039880D02*
X91211011Y-128992261D01*
X91258630Y-128897023D01*
X91258630Y-128039880D01*
X89782440Y-128039880D02*
X89687202Y-128039880D01*
X89591964Y-128087500D01*
X89544345Y-128135119D01*
X89496726Y-128230357D01*
X89449107Y-128420833D01*
X89449107Y-128658928D01*
X89496726Y-128849404D01*
X89544345Y-128944642D01*
X89591964Y-128992261D01*
X89687202Y-129039880D01*
X89782440Y-129039880D01*
X89877678Y-128992261D01*
X89925297Y-128944642D01*
X89972916Y-128849404D01*
X90020535Y-128658928D01*
X90020535Y-128420833D01*
X89972916Y-128230357D01*
X89925297Y-128135119D01*
X89877678Y-128087500D01*
X89782440Y-128039880D01*
X89020535Y-128944642D02*
X88972916Y-128992261D01*
X89020535Y-129039880D01*
X89068154Y-128992261D01*
X89020535Y-128944642D01*
X89020535Y-129039880D01*
X88353869Y-128039880D02*
X88258630Y-128039880D01*
X88163392Y-128087500D01*
X88115773Y-128135119D01*
X88068154Y-128230357D01*
X88020535Y-128420833D01*
X88020535Y-128658928D01*
X88068154Y-128849404D01*
X88115773Y-128944642D01*
X88163392Y-128992261D01*
X88258630Y-129039880D01*
X88353869Y-129039880D01*
X88449107Y-128992261D01*
X88496726Y-128944642D01*
X88544345Y-128849404D01*
X88591964Y-128658928D01*
X88591964Y-128420833D01*
X88544345Y-128230357D01*
X88496726Y-128135119D01*
X88449107Y-128087500D01*
X88353869Y-128039880D01*
D11*
%TO.C,SW-Rst1*%
X246975000Y-43240000D03*
D12*
X243475000Y-46940000D03*
D13*
X244475000Y-44450000D03*
X249475000Y-44450000D03*
D12*
X250485000Y-46940000D03*
%TD*%
D14*
%TO.C,U1*%
X209232500Y-63182500D03*
X211772500Y-63182500D03*
X214312500Y-63182500D03*
X216852500Y-63182500D03*
X219392500Y-63182500D03*
X221932500Y-35242500D03*
X206921100Y-63182500D03*
X221932500Y-37782500D03*
X221932500Y-40322500D03*
X221932500Y-42862500D03*
X221932500Y-45402500D03*
X221932500Y-47942500D03*
X221932500Y-50482500D03*
X221932500Y-53022500D03*
X221932500Y-55562500D03*
X221932500Y-58102500D03*
X221932500Y-60642500D03*
X221932500Y-63182500D03*
X206692500Y-60642500D03*
X206692500Y-58102500D03*
X206692500Y-55562500D03*
X206692500Y-53022500D03*
X206692500Y-50482500D03*
X206692500Y-47942500D03*
X206692500Y-45402500D03*
X206692500Y-42862500D03*
X206692500Y-40322500D03*
X206692500Y-37782500D03*
D15*
X206692500Y-35242500D03*
%TD*%
D16*
%TO.C,SW1*%
X211812500Y-137175000D03*
X216812500Y-137175000D03*
D17*
X208712500Y-130175000D03*
X219912500Y-130175000D03*
D16*
X211812500Y-122675000D03*
X214312500Y-122675000D03*
D18*
X216812500Y-122675000D03*
%TD*%
D13*
%TO.C,MX-134*%
X369409991Y-125369233D03*
X359596185Y-127998835D03*
D19*
X361052997Y-123467378D03*
D20*
X364503088Y-126684034D03*
G36*
G01*
X359656521Y-126219955D02*
X359656514Y-126219952D01*
G75*
G02*
X359162241Y-124707687I508996J1003269D01*
G01*
X360049729Y-122958383D01*
G75*
G02*
X361561994Y-122464110I1003269J-508996D01*
G01*
X361561994Y-122464110D01*
G75*
G02*
X362056267Y-123976375I-508996J-1003269D01*
G01*
X361168779Y-125725679D01*
G75*
G02*
X359656514Y-126219952I-1003269J508996D01*
G01*
G37*
D19*
X365641739Y-121119730D03*
G36*
G01*
X365969804Y-122794274D02*
X365968933Y-122794445D01*
G75*
G02*
X364649092Y-121906036I-215716J1104125D01*
G01*
X364537614Y-121335446D01*
G75*
G02*
X365426023Y-120015605I1104125J215716D01*
G01*
X365426023Y-120015605D01*
G75*
G02*
X366745864Y-120904014I215716J-1104125D01*
G01*
X366857342Y-121474604D01*
G75*
G02*
X365968933Y-122794445I-1104125J-215716D01*
G01*
G37*
%TD*%
D13*
%TO.C,MX-133*%
X369079709Y-105735720D03*
X359265903Y-108365322D03*
D19*
X360722715Y-103833865D03*
D20*
X364172806Y-107050521D03*
G36*
G01*
X359326239Y-106586442D02*
X359326232Y-106586439D01*
G75*
G02*
X358831959Y-105074174I508996J1003269D01*
G01*
X359719447Y-103324870D01*
G75*
G02*
X361231712Y-102830597I1003269J-508996D01*
G01*
X361231712Y-102830597D01*
G75*
G02*
X361725985Y-104342862I-508996J-1003269D01*
G01*
X360838497Y-106092166D01*
G75*
G02*
X359326232Y-106586439I-1003269J508996D01*
G01*
G37*
D19*
X365311457Y-101486217D03*
G36*
G01*
X365639522Y-103160761D02*
X365638651Y-103160932D01*
G75*
G02*
X364318810Y-102272523I-215716J1104125D01*
G01*
X364207332Y-101701933D01*
G75*
G02*
X365095741Y-100382092I1104125J215716D01*
G01*
X365095741Y-100382092D01*
G75*
G02*
X366415582Y-101270501I215716J-1104125D01*
G01*
X366527060Y-101841091D01*
G75*
G02*
X365638651Y-103160932I-1104125J-215716D01*
G01*
G37*
%TD*%
D20*
%TO.C,MX-132*%
X377510299Y-92300945D03*
X354447854Y-98480508D03*
D21*
X373565896Y-77580235D03*
X350503451Y-83759799D03*
D13*
X368749428Y-86102208D03*
X358935622Y-88731810D03*
D19*
X360392434Y-84200353D03*
D20*
X363842525Y-87417009D03*
G36*
G01*
X358995958Y-86952930D02*
X358995951Y-86952927D01*
G75*
G02*
X358501678Y-85440662I508996J1003269D01*
G01*
X359389166Y-83691358D01*
G75*
G02*
X360901431Y-83197085I1003269J-508996D01*
G01*
X360901431Y-83197085D01*
G75*
G02*
X361395704Y-84709350I-508996J-1003269D01*
G01*
X360508216Y-86458654D01*
G75*
G02*
X358995951Y-86952927I-1003269J508996D01*
G01*
G37*
D19*
X364981176Y-81852705D03*
G36*
G01*
X365309241Y-83527249D02*
X365308370Y-83527420D01*
G75*
G02*
X363988529Y-82639011I-215716J1104125D01*
G01*
X363877051Y-82068421D01*
G75*
G02*
X364765460Y-80748580I1104125J215716D01*
G01*
X364765460Y-80748580D01*
G75*
G02*
X366085301Y-81636989I215716J-1104125D01*
G01*
X366196779Y-82207579D01*
G75*
G02*
X365308370Y-83527420I-1104125J-215716D01*
G01*
G37*
%TD*%
D20*
%TO.C,MX-131*%
X370279686Y-74516370D03*
X347217241Y-80695933D03*
D21*
X366335283Y-59795660D03*
X343272838Y-65975224D03*
D13*
X361518815Y-68317633D03*
X351705009Y-70947235D03*
D19*
X353161821Y-66415778D03*
D20*
X356611912Y-69632434D03*
G36*
G01*
X351765345Y-69168355D02*
X351765338Y-69168352D01*
G75*
G02*
X351271065Y-67656087I508996J1003269D01*
G01*
X352158553Y-65906783D01*
G75*
G02*
X353670818Y-65412510I1003269J-508996D01*
G01*
X353670818Y-65412510D01*
G75*
G02*
X354165091Y-66924775I-508996J-1003269D01*
G01*
X353277603Y-68674079D01*
G75*
G02*
X351765338Y-69168352I-1003269J508996D01*
G01*
G37*
D19*
X357750563Y-64068130D03*
G36*
G01*
X358078628Y-65742674D02*
X358077757Y-65742845D01*
G75*
G02*
X356757916Y-64854436I-215716J1104125D01*
G01*
X356646438Y-64283846D01*
G75*
G02*
X357534847Y-62964005I1104125J215716D01*
G01*
X357534847Y-62964005D01*
G75*
G02*
X358854688Y-63852414I215716J-1104125D01*
G01*
X358966166Y-64423004D01*
G75*
G02*
X358077757Y-65742845I-1104125J-215716D01*
G01*
G37*
%TD*%
D13*
%TO.C,MX-130*%
X347387868Y-52381998D03*
X337574062Y-55011600D03*
D19*
X339030874Y-50480143D03*
D20*
X342480965Y-53696799D03*
G36*
G01*
X337634398Y-53232720D02*
X337634391Y-53232717D01*
G75*
G02*
X337140118Y-51720452I508996J1003269D01*
G01*
X338027606Y-49971148D01*
G75*
G02*
X339539871Y-49476875I1003269J-508996D01*
G01*
X339539871Y-49476875D01*
G75*
G02*
X340034144Y-50989140I-508996J-1003269D01*
G01*
X339146656Y-52738444D01*
G75*
G02*
X337634391Y-53232717I-1003269J508996D01*
G01*
G37*
D19*
X343619616Y-48132495D03*
G36*
G01*
X343947681Y-49807039D02*
X343946810Y-49807210D01*
G75*
G02*
X342626969Y-48918801I-215716J1104125D01*
G01*
X342515491Y-48348211D01*
G75*
G02*
X343403900Y-47028370I1104125J215716D01*
G01*
X343403900Y-47028370D01*
G75*
G02*
X344723741Y-47916779I215716J-1104125D01*
G01*
X344835219Y-48487369D01*
G75*
G02*
X343946810Y-49807210I-1104125J-215716D01*
G01*
G37*
%TD*%
D13*
%TO.C,MX-123*%
X342545864Y-107914940D03*
X332732058Y-110544542D03*
D19*
X334188870Y-106013085D03*
D20*
X337638961Y-109229741D03*
G36*
G01*
X332792394Y-108765662D02*
X332792387Y-108765659D01*
G75*
G02*
X332298114Y-107253394I508996J1003269D01*
G01*
X333185602Y-105504090D01*
G75*
G02*
X334697867Y-105009817I1003269J-508996D01*
G01*
X334697867Y-105009817D01*
G75*
G02*
X335192140Y-106522082I-508996J-1003269D01*
G01*
X334304652Y-108271386D01*
G75*
G02*
X332792387Y-108765659I-1003269J508996D01*
G01*
G37*
D19*
X338777612Y-103665437D03*
G36*
G01*
X339105677Y-105339981D02*
X339104806Y-105340152D01*
G75*
G02*
X337784965Y-104451743I-215716J1104125D01*
G01*
X337673487Y-103881153D01*
G75*
G02*
X338561896Y-102561312I1104125J215716D01*
G01*
X338561896Y-102561312D01*
G75*
G02*
X339881737Y-103449721I215716J-1104125D01*
G01*
X339993215Y-104020311D01*
G75*
G02*
X339104806Y-105340152I-1104125J-215716D01*
G01*
G37*
%TD*%
D13*
%TO.C,MX-122*%
X337615361Y-89514053D03*
X327801555Y-92143655D03*
D19*
X329258367Y-87612198D03*
D20*
X332708458Y-90828854D03*
G36*
G01*
X327861891Y-90364775D02*
X327861884Y-90364772D01*
G75*
G02*
X327367611Y-88852507I508996J1003269D01*
G01*
X328255099Y-87103203D01*
G75*
G02*
X329767364Y-86608930I1003269J-508996D01*
G01*
X329767364Y-86608930D01*
G75*
G02*
X330261637Y-88121195I-508996J-1003269D01*
G01*
X329374149Y-89870499D01*
G75*
G02*
X327861884Y-90364772I-1003269J508996D01*
G01*
G37*
D19*
X333847109Y-85264550D03*
G36*
G01*
X334175174Y-86939094D02*
X334174303Y-86939265D01*
G75*
G02*
X332854462Y-86050856I-215716J1104125D01*
G01*
X332742984Y-85480266D01*
G75*
G02*
X333631393Y-84160425I1104125J215716D01*
G01*
X333631393Y-84160425D01*
G75*
G02*
X334951234Y-85048834I215716J-1104125D01*
G01*
X335062712Y-85619424D01*
G75*
G02*
X334174303Y-86939265I-1104125J-215716D01*
G01*
G37*
%TD*%
D13*
%TO.C,MX-121*%
X332684859Y-71113166D03*
X322871053Y-73742768D03*
D19*
X324327865Y-69211311D03*
D20*
X327777956Y-72427967D03*
G36*
G01*
X322931389Y-71963888D02*
X322931382Y-71963885D01*
G75*
G02*
X322437109Y-70451620I508996J1003269D01*
G01*
X323324597Y-68702316D01*
G75*
G02*
X324836862Y-68208043I1003269J-508996D01*
G01*
X324836862Y-68208043D01*
G75*
G02*
X325331135Y-69720308I-508996J-1003269D01*
G01*
X324443647Y-71469612D01*
G75*
G02*
X322931382Y-71963885I-1003269J508996D01*
G01*
G37*
D19*
X328916607Y-66863663D03*
G36*
G01*
X329244672Y-68538207D02*
X329243801Y-68538378D01*
G75*
G02*
X327923960Y-67649969I-215716J1104125D01*
G01*
X327812482Y-67079379D01*
G75*
G02*
X328700891Y-65759538I1104125J215716D01*
G01*
X328700891Y-65759538D01*
G75*
G02*
X330020732Y-66647947I215716J-1104125D01*
G01*
X330132210Y-67218537D01*
G75*
G02*
X329243801Y-68538378I-1104125J-215716D01*
G01*
G37*
%TD*%
D13*
%TO.C,MX-120*%
X327754356Y-52712279D03*
X317940550Y-55341881D03*
D19*
X319397362Y-50810424D03*
D20*
X322847453Y-54027080D03*
G36*
G01*
X318000886Y-53563001D02*
X318000879Y-53562998D01*
G75*
G02*
X317506606Y-52050733I508996J1003269D01*
G01*
X318394094Y-50301429D01*
G75*
G02*
X319906359Y-49807156I1003269J-508996D01*
G01*
X319906359Y-49807156D01*
G75*
G02*
X320400632Y-51319421I-508996J-1003269D01*
G01*
X319513144Y-53068725D01*
G75*
G02*
X318000879Y-53562998I-1003269J508996D01*
G01*
G37*
D19*
X323986104Y-48462776D03*
G36*
G01*
X324314169Y-50137320D02*
X324313298Y-50137491D01*
G75*
G02*
X322993457Y-49249082I-215716J1104125D01*
G01*
X322881979Y-48678492D01*
G75*
G02*
X323770388Y-47358651I1104125J215716D01*
G01*
X323770388Y-47358651D01*
G75*
G02*
X325090229Y-48247060I215716J-1104125D01*
G01*
X325201707Y-48817650D01*
G75*
G02*
X324313298Y-50137491I-1104125J-215716D01*
G01*
G37*
%TD*%
D13*
%TO.C,MX-113*%
X322912351Y-108245221D03*
X313098545Y-110874823D03*
D19*
X314555357Y-106343366D03*
D20*
X318005448Y-109560022D03*
G36*
G01*
X313158881Y-109095943D02*
X313158874Y-109095940D01*
G75*
G02*
X312664601Y-107583675I508996J1003269D01*
G01*
X313552089Y-105834371D01*
G75*
G02*
X315064354Y-105340098I1003269J-508996D01*
G01*
X315064354Y-105340098D01*
G75*
G02*
X315558627Y-106852363I-508996J-1003269D01*
G01*
X314671139Y-108601667D01*
G75*
G02*
X313158874Y-109095940I-1003269J508996D01*
G01*
G37*
D19*
X319144099Y-103995718D03*
G36*
G01*
X319472164Y-105670262D02*
X319471293Y-105670433D01*
G75*
G02*
X318151452Y-104782024I-215716J1104125D01*
G01*
X318039974Y-104211434D01*
G75*
G02*
X318928383Y-102891593I1104125J215716D01*
G01*
X318928383Y-102891593D01*
G75*
G02*
X320248224Y-103780002I215716J-1104125D01*
G01*
X320359702Y-104350592D01*
G75*
G02*
X319471293Y-105670433I-1104125J-215716D01*
G01*
G37*
%TD*%
D13*
%TO.C,MX-112*%
X317981849Y-89844334D03*
X308168043Y-92473936D03*
D19*
X309624855Y-87942479D03*
D20*
X313074946Y-91159135D03*
G36*
G01*
X308228379Y-90695056D02*
X308228372Y-90695053D01*
G75*
G02*
X307734099Y-89182788I508996J1003269D01*
G01*
X308621587Y-87433484D01*
G75*
G02*
X310133852Y-86939211I1003269J-508996D01*
G01*
X310133852Y-86939211D01*
G75*
G02*
X310628125Y-88451476I-508996J-1003269D01*
G01*
X309740637Y-90200780D01*
G75*
G02*
X308228372Y-90695053I-1003269J508996D01*
G01*
G37*
D19*
X314213597Y-85594831D03*
G36*
G01*
X314541662Y-87269375D02*
X314540791Y-87269546D01*
G75*
G02*
X313220950Y-86381137I-215716J1104125D01*
G01*
X313109472Y-85810547D01*
G75*
G02*
X313997881Y-84490706I1104125J215716D01*
G01*
X313997881Y-84490706D01*
G75*
G02*
X315317722Y-85379115I215716J-1104125D01*
G01*
X315429200Y-85949705D01*
G75*
G02*
X314540791Y-87269546I-1104125J-215716D01*
G01*
G37*
%TD*%
D13*
%TO.C,MX-111*%
X313051346Y-71443447D03*
X303237540Y-74073049D03*
D19*
X304694352Y-69541592D03*
D20*
X308144443Y-72758248D03*
G36*
G01*
X303297876Y-72294169D02*
X303297869Y-72294166D01*
G75*
G02*
X302803596Y-70781901I508996J1003269D01*
G01*
X303691084Y-69032597D01*
G75*
G02*
X305203349Y-68538324I1003269J-508996D01*
G01*
X305203349Y-68538324D01*
G75*
G02*
X305697622Y-70050589I-508996J-1003269D01*
G01*
X304810134Y-71799893D01*
G75*
G02*
X303297869Y-72294166I-1003269J508996D01*
G01*
G37*
D19*
X309283094Y-67193944D03*
G36*
G01*
X309611159Y-68868488D02*
X309610288Y-68868659D01*
G75*
G02*
X308290447Y-67980250I-215716J1104125D01*
G01*
X308178969Y-67409660D01*
G75*
G02*
X309067378Y-66089819I1104125J215716D01*
G01*
X309067378Y-66089819D01*
G75*
G02*
X310387219Y-66978228I215716J-1104125D01*
G01*
X310498697Y-67548818D01*
G75*
G02*
X309610288Y-68868659I-1104125J-215716D01*
G01*
G37*
%TD*%
D13*
%TO.C,MX-110*%
X308120843Y-53042560D03*
X298307037Y-55672162D03*
D19*
X299763849Y-51140705D03*
D20*
X303213940Y-54357361D03*
G36*
G01*
X298367373Y-53893282D02*
X298367366Y-53893279D01*
G75*
G02*
X297873093Y-52381014I508996J1003269D01*
G01*
X298760581Y-50631710D01*
G75*
G02*
X300272846Y-50137437I1003269J-508996D01*
G01*
X300272846Y-50137437D01*
G75*
G02*
X300767119Y-51649702I-508996J-1003269D01*
G01*
X299879631Y-53399006D01*
G75*
G02*
X298367366Y-53893279I-1003269J508996D01*
G01*
G37*
D19*
X304352591Y-48793057D03*
G36*
G01*
X304680656Y-50467601D02*
X304679785Y-50467772D01*
G75*
G02*
X303359944Y-49579363I-215716J1104125D01*
G01*
X303248466Y-49008773D01*
G75*
G02*
X304136875Y-47688932I1104125J215716D01*
G01*
X304136875Y-47688932D01*
G75*
G02*
X305456716Y-48577341I215716J-1104125D01*
G01*
X305568194Y-49147931D01*
G75*
G02*
X304679785Y-50467772I-1104125J-215716D01*
G01*
G37*
%TD*%
D13*
%TO.C,MX-104*%
X289973595Y-141723648D03*
X280159789Y-144353250D03*
D19*
X281616601Y-139821793D03*
D20*
X285066692Y-143038449D03*
G36*
G01*
X280220125Y-142574370D02*
X280220118Y-142574367D01*
G75*
G02*
X279725845Y-141062102I508996J1003269D01*
G01*
X280613333Y-139312798D01*
G75*
G02*
X282125598Y-138818525I1003269J-508996D01*
G01*
X282125598Y-138818525D01*
G75*
G02*
X282619871Y-140330790I-508996J-1003269D01*
G01*
X281732383Y-142080094D01*
G75*
G02*
X280220118Y-142574367I-1003269J508996D01*
G01*
G37*
D19*
X286205343Y-137474145D03*
G36*
G01*
X286533408Y-139148689D02*
X286532537Y-139148860D01*
G75*
G02*
X285212696Y-138260451I-215716J1104125D01*
G01*
X285101218Y-137689861D01*
G75*
G02*
X285989627Y-136370020I1104125J215716D01*
G01*
X285989627Y-136370020D01*
G75*
G02*
X287309468Y-137258429I215716J-1104125D01*
G01*
X287420946Y-137829019D01*
G75*
G02*
X286532537Y-139148860I-1104125J-215716D01*
G01*
G37*
%TD*%
D13*
%TO.C,MX-103*%
X303278839Y-108575502D03*
X293465033Y-111205104D03*
D19*
X294921845Y-106673647D03*
D20*
X298371936Y-109890303D03*
G36*
G01*
X293525369Y-109426224D02*
X293525362Y-109426221D01*
G75*
G02*
X293031089Y-107913956I508996J1003269D01*
G01*
X293918577Y-106164652D01*
G75*
G02*
X295430842Y-105670379I1003269J-508996D01*
G01*
X295430842Y-105670379D01*
G75*
G02*
X295925115Y-107182644I-508996J-1003269D01*
G01*
X295037627Y-108931948D01*
G75*
G02*
X293525362Y-109426221I-1003269J508996D01*
G01*
G37*
D19*
X299510587Y-104325999D03*
G36*
G01*
X299838652Y-106000543D02*
X299837781Y-106000714D01*
G75*
G02*
X298517940Y-105112305I-215716J1104125D01*
G01*
X298406462Y-104541715D01*
G75*
G02*
X299294871Y-103221874I1104125J215716D01*
G01*
X299294871Y-103221874D01*
G75*
G02*
X300614712Y-104110283I215716J-1104125D01*
G01*
X300726190Y-104680873D01*
G75*
G02*
X299837781Y-106000714I-1104125J-215716D01*
G01*
G37*
%TD*%
D13*
%TO.C,MX-102*%
X298348336Y-90174615D03*
X288534530Y-92804217D03*
D19*
X289991342Y-88272760D03*
D20*
X293441433Y-91489416D03*
G36*
G01*
X288594866Y-91025337D02*
X288594859Y-91025334D01*
G75*
G02*
X288100586Y-89513069I508996J1003269D01*
G01*
X288988074Y-87763765D01*
G75*
G02*
X290500339Y-87269492I1003269J-508996D01*
G01*
X290500339Y-87269492D01*
G75*
G02*
X290994612Y-88781757I-508996J-1003269D01*
G01*
X290107124Y-90531061D01*
G75*
G02*
X288594859Y-91025334I-1003269J508996D01*
G01*
G37*
D19*
X294580084Y-85925112D03*
G36*
G01*
X294908149Y-87599656D02*
X294907278Y-87599827D01*
G75*
G02*
X293587437Y-86711418I-215716J1104125D01*
G01*
X293475959Y-86140828D01*
G75*
G02*
X294364368Y-84820987I1104125J215716D01*
G01*
X294364368Y-84820987D01*
G75*
G02*
X295684209Y-85709396I215716J-1104125D01*
G01*
X295795687Y-86279986D01*
G75*
G02*
X294907278Y-87599827I-1104125J-215716D01*
G01*
G37*
%TD*%
D13*
%TO.C,MX-101*%
X293417833Y-71773728D03*
X283604027Y-74403330D03*
D19*
X285060839Y-69871873D03*
D20*
X288510930Y-73088529D03*
G36*
G01*
X283664363Y-72624450D02*
X283664356Y-72624447D01*
G75*
G02*
X283170083Y-71112182I508996J1003269D01*
G01*
X284057571Y-69362878D01*
G75*
G02*
X285569836Y-68868605I1003269J-508996D01*
G01*
X285569836Y-68868605D01*
G75*
G02*
X286064109Y-70380870I-508996J-1003269D01*
G01*
X285176621Y-72130174D01*
G75*
G02*
X283664356Y-72624447I-1003269J508996D01*
G01*
G37*
D19*
X289649581Y-67524225D03*
G36*
G01*
X289977646Y-69198769D02*
X289976775Y-69198940D01*
G75*
G02*
X288656934Y-68310531I-215716J1104125D01*
G01*
X288545456Y-67739941D01*
G75*
G02*
X289433865Y-66420100I1104125J215716D01*
G01*
X289433865Y-66420100D01*
G75*
G02*
X290753706Y-67308509I215716J-1104125D01*
G01*
X290865184Y-67879099D01*
G75*
G02*
X289976775Y-69198940I-1104125J-215716D01*
G01*
G37*
%TD*%
D13*
%TO.C,MX-100*%
X288487330Y-53372841D03*
X278673524Y-56002443D03*
D19*
X280130336Y-51470986D03*
D20*
X283580427Y-54687642D03*
G36*
G01*
X278733860Y-54223563D02*
X278733853Y-54223560D01*
G75*
G02*
X278239580Y-52711295I508996J1003269D01*
G01*
X279127068Y-50961991D01*
G75*
G02*
X280639333Y-50467718I1003269J-508996D01*
G01*
X280639333Y-50467718D01*
G75*
G02*
X281133606Y-51979983I-508996J-1003269D01*
G01*
X280246118Y-53729287D01*
G75*
G02*
X278733853Y-54223560I-1003269J508996D01*
G01*
G37*
D19*
X284719078Y-49123338D03*
G36*
G01*
X285047143Y-50797882D02*
X285046272Y-50798053D01*
G75*
G02*
X283726431Y-49909644I-215716J1104125D01*
G01*
X283614953Y-49339054D01*
G75*
G02*
X284503362Y-48019213I1104125J215716D01*
G01*
X284503362Y-48019213D01*
G75*
G02*
X285823203Y-48907622I215716J-1104125D01*
G01*
X285934681Y-49478212D01*
G75*
G02*
X285046272Y-50798053I-1104125J-215716D01*
G01*
G37*
%TD*%
D13*
%TO.C,MX-94*%
X294904098Y-160124535D03*
X285090292Y-162754137D03*
D19*
X286547104Y-158222680D03*
D20*
X289997195Y-161439336D03*
G36*
G01*
X285150628Y-160975257D02*
X285150621Y-160975254D01*
G75*
G02*
X284656348Y-159462989I508996J1003269D01*
G01*
X285543836Y-157713685D01*
G75*
G02*
X287056101Y-157219412I1003269J-508996D01*
G01*
X287056101Y-157219412D01*
G75*
G02*
X287550374Y-158731677I-508996J-1003269D01*
G01*
X286662886Y-160480981D01*
G75*
G02*
X285150621Y-160975254I-1003269J508996D01*
G01*
G37*
D19*
X291135846Y-155875032D03*
G36*
G01*
X291463911Y-157549576D02*
X291463040Y-157549747D01*
G75*
G02*
X290143199Y-156661338I-215716J1104125D01*
G01*
X290031721Y-156090748D01*
G75*
G02*
X290920130Y-154770907I1104125J215716D01*
G01*
X290920130Y-154770907D01*
G75*
G02*
X292239971Y-155659316I215716J-1104125D01*
G01*
X292351449Y-156229906D01*
G75*
G02*
X291463040Y-157549747I-1104125J-215716D01*
G01*
G37*
%TD*%
D13*
%TO.C,MX-93*%
X286110577Y-118106227D03*
X276296771Y-120735829D03*
D19*
X277753583Y-116204372D03*
D20*
X281203674Y-119421028D03*
G36*
G01*
X276357107Y-118956949D02*
X276357100Y-118956946D01*
G75*
G02*
X275862827Y-117444681I508996J1003269D01*
G01*
X276750315Y-115695377D01*
G75*
G02*
X278262580Y-115201104I1003269J-508996D01*
G01*
X278262580Y-115201104D01*
G75*
G02*
X278756853Y-116713369I-508996J-1003269D01*
G01*
X277869365Y-118462673D01*
G75*
G02*
X276357100Y-118956946I-1003269J508996D01*
G01*
G37*
D19*
X282342325Y-113856724D03*
G36*
G01*
X282670390Y-115531268D02*
X282669519Y-115531439D01*
G75*
G02*
X281349678Y-114643030I-215716J1104125D01*
G01*
X281238200Y-114072440D01*
G75*
G02*
X282126609Y-112752599I1104125J215716D01*
G01*
X282126609Y-112752599D01*
G75*
G02*
X283446450Y-113641008I215716J-1104125D01*
G01*
X283557928Y-114211598D01*
G75*
G02*
X282669519Y-115531439I-1104125J-215716D01*
G01*
G37*
%TD*%
D13*
%TO.C,MX-92*%
X281180075Y-99705340D03*
X271366269Y-102334942D03*
D19*
X272823081Y-97803485D03*
D20*
X276273172Y-101020141D03*
G36*
G01*
X271426605Y-100556062D02*
X271426598Y-100556059D01*
G75*
G02*
X270932325Y-99043794I508996J1003269D01*
G01*
X271819813Y-97294490D01*
G75*
G02*
X273332078Y-96800217I1003269J-508996D01*
G01*
X273332078Y-96800217D01*
G75*
G02*
X273826351Y-98312482I-508996J-1003269D01*
G01*
X272938863Y-100061786D01*
G75*
G02*
X271426598Y-100556059I-1003269J508996D01*
G01*
G37*
D19*
X277411823Y-95455837D03*
G36*
G01*
X277739888Y-97130381D02*
X277739017Y-97130552D01*
G75*
G02*
X276419176Y-96242143I-215716J1104125D01*
G01*
X276307698Y-95671553D01*
G75*
G02*
X277196107Y-94351712I1104125J215716D01*
G01*
X277196107Y-94351712D01*
G75*
G02*
X278515948Y-95240121I215716J-1104125D01*
G01*
X278627426Y-95810711D01*
G75*
G02*
X277739017Y-97130552I-1104125J-215716D01*
G01*
G37*
%TD*%
D13*
%TO.C,MX-91*%
X276249572Y-81304453D03*
X266435766Y-83934055D03*
D19*
X267892578Y-79402598D03*
D20*
X271342669Y-82619254D03*
G36*
G01*
X266496102Y-82155175D02*
X266496095Y-82155172D01*
G75*
G02*
X266001822Y-80642907I508996J1003269D01*
G01*
X266889310Y-78893603D01*
G75*
G02*
X268401575Y-78399330I1003269J-508996D01*
G01*
X268401575Y-78399330D01*
G75*
G02*
X268895848Y-79911595I-508996J-1003269D01*
G01*
X268008360Y-81660899D01*
G75*
G02*
X266496095Y-82155172I-1003269J508996D01*
G01*
G37*
D19*
X272481320Y-77054950D03*
G36*
G01*
X272809385Y-78729494D02*
X272808514Y-78729665D01*
G75*
G02*
X271488673Y-77841256I-215716J1104125D01*
G01*
X271377195Y-77270666D01*
G75*
G02*
X272265604Y-75950825I1104125J215716D01*
G01*
X272265604Y-75950825D01*
G75*
G02*
X273585445Y-76839234I215716J-1104125D01*
G01*
X273696923Y-77409824D01*
G75*
G02*
X272808514Y-78729665I-1104125J-215716D01*
G01*
G37*
%TD*%
D13*
%TO.C,MX-90*%
X271319069Y-62903566D03*
X261505263Y-65533168D03*
D19*
X262962075Y-61001711D03*
D20*
X266412166Y-64218367D03*
G36*
G01*
X261565599Y-63754288D02*
X261565592Y-63754285D01*
G75*
G02*
X261071319Y-62242020I508996J1003269D01*
G01*
X261958807Y-60492716D01*
G75*
G02*
X263471072Y-59998443I1003269J-508996D01*
G01*
X263471072Y-59998443D01*
G75*
G02*
X263965345Y-61510708I-508996J-1003269D01*
G01*
X263077857Y-63260012D01*
G75*
G02*
X261565592Y-63754285I-1003269J508996D01*
G01*
G37*
D19*
X267550817Y-58654063D03*
G36*
G01*
X267878882Y-60328607D02*
X267878011Y-60328778D01*
G75*
G02*
X266558170Y-59440369I-215716J1104125D01*
G01*
X266446692Y-58869779D01*
G75*
G02*
X267335101Y-57549938I1104125J215716D01*
G01*
X267335101Y-57549938D01*
G75*
G02*
X268654942Y-58438347I215716J-1104125D01*
G01*
X268766420Y-59008937D01*
G75*
G02*
X267878011Y-60328778I-1104125J-215716D01*
G01*
G37*
%TD*%
%TO.C,MX-84*%
G36*
G01*
X268297662Y-153895948D02*
X268296791Y-153896119D01*
G75*
G02*
X266976950Y-153007710I-215716J1104125D01*
G01*
X266865472Y-152437120D01*
G75*
G02*
X267753881Y-151117279I1104125J215716D01*
G01*
X267753881Y-151117279D01*
G75*
G02*
X269073722Y-152005688I215716J-1104125D01*
G01*
X269185200Y-152576278D01*
G75*
G02*
X268296791Y-153896119I-1104125J-215716D01*
G01*
G37*
X267969597Y-152221404D03*
G36*
G01*
X261984379Y-157321629D02*
X261984372Y-157321626D01*
G75*
G02*
X261490099Y-155809361I508996J1003269D01*
G01*
X262377587Y-154060057D01*
G75*
G02*
X263889852Y-153565784I1003269J-508996D01*
G01*
X263889852Y-153565784D01*
G75*
G02*
X264384125Y-155078049I-508996J-1003269D01*
G01*
X263496637Y-156827353D01*
G75*
G02*
X261984372Y-157321626I-1003269J508996D01*
G01*
G37*
D20*
X266830946Y-157785708D03*
D19*
X263380855Y-154569052D03*
D22*
X266919021Y-163021311D03*
D23*
G36*
X268698954Y-163530480D02*
G01*
X268205904Y-161690392D01*
X270045992Y-161197342D01*
X270539042Y-163037430D01*
X268698954Y-163530480D01*
G37*
D13*
X261924043Y-159100509D03*
X271737849Y-156470907D03*
%TD*%
%TO.C,MX-83*%
X268942316Y-127636951D03*
X259128510Y-130266553D03*
D19*
X260585322Y-125735096D03*
D20*
X264035413Y-128951752D03*
G36*
G01*
X259188846Y-128487673D02*
X259188839Y-128487670D01*
G75*
G02*
X258694566Y-126975405I508996J1003269D01*
G01*
X259582054Y-125226101D01*
G75*
G02*
X261094319Y-124731828I1003269J-508996D01*
G01*
X261094319Y-124731828D01*
G75*
G02*
X261588592Y-126244093I-508996J-1003269D01*
G01*
X260701104Y-127993397D01*
G75*
G02*
X259188839Y-128487670I-1003269J508996D01*
G01*
G37*
D19*
X265174064Y-123387448D03*
G36*
G01*
X265502129Y-125061992D02*
X265501258Y-125062163D01*
G75*
G02*
X264181417Y-124173754I-215716J1104125D01*
G01*
X264069939Y-123603164D01*
G75*
G02*
X264958348Y-122283323I1104125J215716D01*
G01*
X264958348Y-122283323D01*
G75*
G02*
X266278189Y-123171732I215716J-1104125D01*
G01*
X266389667Y-123742322D01*
G75*
G02*
X265501258Y-125062163I-1104125J-215716D01*
G01*
G37*
%TD*%
D13*
%TO.C,MX-82*%
X264011813Y-109236064D03*
X254198007Y-111865666D03*
D19*
X255654819Y-107334209D03*
D20*
X259104910Y-110550865D03*
G36*
G01*
X254258343Y-110086786D02*
X254258336Y-110086783D01*
G75*
G02*
X253764063Y-108574518I508996J1003269D01*
G01*
X254651551Y-106825214D01*
G75*
G02*
X256163816Y-106330941I1003269J-508996D01*
G01*
X256163816Y-106330941D01*
G75*
G02*
X256658089Y-107843206I-508996J-1003269D01*
G01*
X255770601Y-109592510D01*
G75*
G02*
X254258336Y-110086783I-1003269J508996D01*
G01*
G37*
D19*
X260243561Y-104986561D03*
G36*
G01*
X260571626Y-106661105D02*
X260570755Y-106661276D01*
G75*
G02*
X259250914Y-105772867I-215716J1104125D01*
G01*
X259139436Y-105202277D01*
G75*
G02*
X260027845Y-103882436I1104125J215716D01*
G01*
X260027845Y-103882436D01*
G75*
G02*
X261347686Y-104770845I215716J-1104125D01*
G01*
X261459164Y-105341435D01*
G75*
G02*
X260570755Y-106661276I-1104125J-215716D01*
G01*
G37*
%TD*%
D13*
%TO.C,MX-81*%
X259081311Y-90835177D03*
X249267505Y-93464779D03*
D19*
X250724317Y-88933322D03*
D20*
X254174408Y-92149978D03*
G36*
G01*
X249327841Y-91685899D02*
X249327834Y-91685896D01*
G75*
G02*
X248833561Y-90173631I508996J1003269D01*
G01*
X249721049Y-88424327D01*
G75*
G02*
X251233314Y-87930054I1003269J-508996D01*
G01*
X251233314Y-87930054D01*
G75*
G02*
X251727587Y-89442319I-508996J-1003269D01*
G01*
X250840099Y-91191623D01*
G75*
G02*
X249327834Y-91685896I-1003269J508996D01*
G01*
G37*
D19*
X255313059Y-86585674D03*
G36*
G01*
X255641124Y-88260218D02*
X255640253Y-88260389D01*
G75*
G02*
X254320412Y-87371980I-215716J1104125D01*
G01*
X254208934Y-86801390D01*
G75*
G02*
X255097343Y-85481549I1104125J215716D01*
G01*
X255097343Y-85481549D01*
G75*
G02*
X256417184Y-86369958I215716J-1104125D01*
G01*
X256528662Y-86940548D01*
G75*
G02*
X255640253Y-88260389I-1104125J-215716D01*
G01*
G37*
%TD*%
D13*
%TO.C,MX-80*%
X254150808Y-72434290D03*
X244337002Y-75063892D03*
D19*
X245793814Y-70532435D03*
D20*
X249243905Y-73749091D03*
G36*
G01*
X244397338Y-73285012D02*
X244397331Y-73285009D01*
G75*
G02*
X243903058Y-71772744I508996J1003269D01*
G01*
X244790546Y-70023440D01*
G75*
G02*
X246302811Y-69529167I1003269J-508996D01*
G01*
X246302811Y-69529167D01*
G75*
G02*
X246797084Y-71041432I-508996J-1003269D01*
G01*
X245909596Y-72790736D01*
G75*
G02*
X244397331Y-73285009I-1003269J508996D01*
G01*
G37*
D19*
X250382556Y-68184787D03*
G36*
G01*
X250710621Y-69859331D02*
X250709750Y-69859502D01*
G75*
G02*
X249389909Y-68971093I-215716J1104125D01*
G01*
X249278431Y-68400503D01*
G75*
G02*
X250166840Y-67080662I1104125J215716D01*
G01*
X250166840Y-67080662D01*
G75*
G02*
X251486681Y-67969071I215716J-1104125D01*
G01*
X251598159Y-68539661D01*
G75*
G02*
X250709750Y-69859502I-1104125J-215716D01*
G01*
G37*
%TD*%
%TO.C,MX-74*%
G36*
G01*
X248664149Y-154226229D02*
X248663278Y-154226400D01*
G75*
G02*
X247343437Y-153337991I-215716J1104125D01*
G01*
X247231959Y-152767401D01*
G75*
G02*
X248120368Y-151447560I1104125J215716D01*
G01*
X248120368Y-151447560D01*
G75*
G02*
X249440209Y-152335969I215716J-1104125D01*
G01*
X249551687Y-152906559D01*
G75*
G02*
X248663278Y-154226400I-1104125J-215716D01*
G01*
G37*
X248336084Y-152551685D03*
G36*
G01*
X242350866Y-157651910D02*
X242350859Y-157651907D01*
G75*
G02*
X241856586Y-156139642I508996J1003269D01*
G01*
X242744074Y-154390338D01*
G75*
G02*
X244256339Y-153896065I1003269J-508996D01*
G01*
X244256339Y-153896065D01*
G75*
G02*
X244750612Y-155408330I-508996J-1003269D01*
G01*
X243863124Y-157157634D01*
G75*
G02*
X242350859Y-157651907I-1003269J508996D01*
G01*
G37*
D20*
X247197433Y-158115989D03*
D19*
X243747342Y-154899333D03*
D22*
X247285508Y-163351592D03*
D23*
G36*
X249065441Y-163860761D02*
G01*
X248572391Y-162020673D01*
X250412479Y-161527623D01*
X250905529Y-163367711D01*
X249065441Y-163860761D01*
G37*
D13*
X242290530Y-159430790D03*
X252104336Y-156801188D03*
%TD*%
%TO.C,MX-72*%
X246843552Y-118766789D03*
X237029746Y-121396391D03*
D19*
X238486558Y-116864934D03*
D20*
X241936649Y-120081590D03*
G36*
G01*
X237090082Y-119617511D02*
X237090075Y-119617508D01*
G75*
G02*
X236595802Y-118105243I508996J1003269D01*
G01*
X237483290Y-116355939D01*
G75*
G02*
X238995555Y-115861666I1003269J-508996D01*
G01*
X238995555Y-115861666D01*
G75*
G02*
X239489828Y-117373931I-508996J-1003269D01*
G01*
X238602340Y-119123235D01*
G75*
G02*
X237090075Y-119617508I-1003269J508996D01*
G01*
G37*
D19*
X243075300Y-114517286D03*
G36*
G01*
X243403365Y-116191830D02*
X243402494Y-116192001D01*
G75*
G02*
X242082653Y-115303592I-215716J1104125D01*
G01*
X241971175Y-114733002D01*
G75*
G02*
X242859584Y-113413161I1104125J215716D01*
G01*
X242859584Y-113413161D01*
G75*
G02*
X244179425Y-114301570I215716J-1104125D01*
G01*
X244290903Y-114872160D01*
G75*
G02*
X243402494Y-116192001I-1104125J-215716D01*
G01*
G37*
%TD*%
D13*
%TO.C,MX-71*%
X241913049Y-100365902D03*
X232099243Y-102995504D03*
D19*
X233556055Y-98464047D03*
D20*
X237006146Y-101680703D03*
G36*
G01*
X232159579Y-101216624D02*
X232159572Y-101216621D01*
G75*
G02*
X231665299Y-99704356I508996J1003269D01*
G01*
X232552787Y-97955052D01*
G75*
G02*
X234065052Y-97460779I1003269J-508996D01*
G01*
X234065052Y-97460779D01*
G75*
G02*
X234559325Y-98973044I-508996J-1003269D01*
G01*
X233671837Y-100722348D01*
G75*
G02*
X232159572Y-101216621I-1003269J508996D01*
G01*
G37*
D19*
X238144797Y-96116399D03*
G36*
G01*
X238472862Y-97790943D02*
X238471991Y-97791114D01*
G75*
G02*
X237152150Y-96902705I-215716J1104125D01*
G01*
X237040672Y-96332115D01*
G75*
G02*
X237929081Y-95012274I1104125J215716D01*
G01*
X237929081Y-95012274D01*
G75*
G02*
X239248922Y-95900683I215716J-1104125D01*
G01*
X239360400Y-96471273D01*
G75*
G02*
X238471991Y-97791114I-1104125J-215716D01*
G01*
G37*
%TD*%
D13*
%TO.C,MX-70*%
X236982546Y-81965015D03*
X227168740Y-84594617D03*
D19*
X228625552Y-80063160D03*
D20*
X232075643Y-83279816D03*
G36*
G01*
X227229076Y-82815737D02*
X227229069Y-82815734D01*
G75*
G02*
X226734796Y-81303469I508996J1003269D01*
G01*
X227622284Y-79554165D01*
G75*
G02*
X229134549Y-79059892I1003269J-508996D01*
G01*
X229134549Y-79059892D01*
G75*
G02*
X229628822Y-80572157I-508996J-1003269D01*
G01*
X228741334Y-82321461D01*
G75*
G02*
X227229069Y-82815734I-1003269J508996D01*
G01*
G37*
D19*
X233214294Y-77715512D03*
G36*
G01*
X233542359Y-79390056D02*
X233541488Y-79390227D01*
G75*
G02*
X232221647Y-78501818I-215716J1104125D01*
G01*
X232110169Y-77931228D01*
G75*
G02*
X232998578Y-76611387I1104125J215716D01*
G01*
X232998578Y-76611387D01*
G75*
G02*
X234318419Y-77499796I215716J-1104125D01*
G01*
X234429897Y-78070386D01*
G75*
G02*
X233541488Y-79390227I-1104125J-215716D01*
G01*
G37*
%TD*%
%TO.C,MX-64*%
G36*
G01*
X184644960Y-155463246D02*
X184644120Y-155462958D01*
G75*
G02*
X183945309Y-154033653I365247J1064058D01*
G01*
X184134061Y-153483769D01*
G75*
G02*
X185563366Y-152784958I1064058J-365247D01*
G01*
X185563366Y-152784958D01*
G75*
G02*
X186262177Y-154214263I-365247J-1064058D01*
G01*
X186073425Y-154764147D01*
G75*
G02*
X184644120Y-155462958I-1064058J365247D01*
G01*
G37*
X185198119Y-153849016D03*
G36*
G01*
X177464656Y-155273332D02*
X177464652Y-155273325D01*
G75*
G02*
X177792732Y-153716529I942438J614358D01*
G01*
X179435972Y-152645331D01*
G75*
G02*
X180992768Y-152973411I614358J-942438D01*
G01*
X180992768Y-152973411D01*
G75*
G02*
X180664688Y-154530207I-942438J-614358D01*
G01*
X179021448Y-155601405D01*
G75*
G02*
X177464652Y-155273325I-614358J942438D01*
G01*
G37*
D20*
X181429867Y-158098519D03*
D19*
X180050329Y-153587768D03*
D22*
X178888340Y-162676722D03*
D23*
G36*
X180175223Y-164007641D02*
G01*
X180668273Y-162167553D01*
X182508361Y-162660603D01*
X182015311Y-164500691D01*
X180175223Y-164007641D01*
G37*
D13*
X176522964Y-156783718D03*
X186336770Y-159413320D03*
%TD*%
%TO.C,MX-62*%
X191597554Y-121378921D03*
X181783748Y-118749319D03*
D19*
X185311113Y-115553369D03*
D20*
X186690651Y-120064120D03*
G36*
G01*
X182725440Y-117238933D02*
X182725436Y-117238926D01*
G75*
G02*
X183053516Y-115682130I942438J614358D01*
G01*
X184696756Y-114610932D01*
G75*
G02*
X186253552Y-114939012I614358J-942438D01*
G01*
X186253552Y-114939012D01*
G75*
G02*
X185925472Y-116495808I-942438J-614358D01*
G01*
X184282232Y-117567006D01*
G75*
G02*
X182725436Y-117238926I-614358J942438D01*
G01*
G37*
D19*
X190458903Y-115814617D03*
G36*
G01*
X189905744Y-117428847D02*
X189904904Y-117428559D01*
G75*
G02*
X189206093Y-115999254I365247J1064058D01*
G01*
X189394845Y-115449370D01*
G75*
G02*
X190824150Y-114750559I1064058J-365247D01*
G01*
X190824150Y-114750559D01*
G75*
G02*
X191522961Y-116179864I-365247J-1064058D01*
G01*
X191334209Y-116729748D01*
G75*
G02*
X189904904Y-117428559I-1064058J365247D01*
G01*
G37*
%TD*%
D13*
%TO.C,MX-61*%
X196528057Y-102978034D03*
X186714251Y-100348432D03*
D19*
X190241616Y-97152482D03*
D20*
X191621154Y-101663233D03*
G36*
G01*
X187655943Y-98838046D02*
X187655939Y-98838039D01*
G75*
G02*
X187984019Y-97281243I942438J614358D01*
G01*
X189627259Y-96210045D01*
G75*
G02*
X191184055Y-96538125I614358J-942438D01*
G01*
X191184055Y-96538125D01*
G75*
G02*
X190855975Y-98094921I-942438J-614358D01*
G01*
X189212735Y-99166119D01*
G75*
G02*
X187655939Y-98838039I-614358J942438D01*
G01*
G37*
D19*
X195389406Y-97413730D03*
G36*
G01*
X194836247Y-99027960D02*
X194835407Y-99027672D01*
G75*
G02*
X194136596Y-97598367I365247J1064058D01*
G01*
X194325348Y-97048483D01*
G75*
G02*
X195754653Y-96349672I1064058J-365247D01*
G01*
X195754653Y-96349672D01*
G75*
G02*
X196453464Y-97778977I-365247J-1064058D01*
G01*
X196264712Y-98328861D01*
G75*
G02*
X194835407Y-99027672I-1064058J365247D01*
G01*
G37*
%TD*%
D13*
%TO.C,MX-60*%
X201458559Y-84577147D03*
X191644753Y-81947545D03*
D19*
X195172118Y-78751595D03*
D20*
X196551656Y-83262346D03*
G36*
G01*
X192586445Y-80437159D02*
X192586441Y-80437152D01*
G75*
G02*
X192914521Y-78880356I942438J614358D01*
G01*
X194557761Y-77809158D01*
G75*
G02*
X196114557Y-78137238I614358J-942438D01*
G01*
X196114557Y-78137238D01*
G75*
G02*
X195786477Y-79694034I-942438J-614358D01*
G01*
X194143237Y-80765232D01*
G75*
G02*
X192586441Y-80437152I-614358J942438D01*
G01*
G37*
D19*
X200319908Y-79012843D03*
G36*
G01*
X199766749Y-80627073D02*
X199765909Y-80626785D01*
G75*
G02*
X199067098Y-79197480I365247J1064058D01*
G01*
X199255850Y-78647596D01*
G75*
G02*
X200685155Y-77948785I1064058J-365247D01*
G01*
X200685155Y-77948785D01*
G75*
G02*
X201383966Y-79378090I-365247J-1064058D01*
G01*
X201195214Y-79927974D01*
G75*
G02*
X199765909Y-80626785I-1064058J365247D01*
G01*
G37*
%TD*%
%TO.C,MX-54*%
G36*
G01*
X165011447Y-155132965D02*
X165010607Y-155132677D01*
G75*
G02*
X164311796Y-153703372I365247J1064058D01*
G01*
X164500548Y-153153488D01*
G75*
G02*
X165929853Y-152454677I1064058J-365247D01*
G01*
X165929853Y-152454677D01*
G75*
G02*
X166628664Y-153883982I-365247J-1064058D01*
G01*
X166439912Y-154433866D01*
G75*
G02*
X165010607Y-155132677I-1064058J365247D01*
G01*
G37*
X165564606Y-153518735D03*
G36*
G01*
X157831143Y-154943051D02*
X157831139Y-154943044D01*
G75*
G02*
X158159219Y-153386248I942438J614358D01*
G01*
X159802459Y-152315050D01*
G75*
G02*
X161359255Y-152643130I614358J-942438D01*
G01*
X161359255Y-152643130D01*
G75*
G02*
X161031175Y-154199926I-942438J-614358D01*
G01*
X159387935Y-155271124D01*
G75*
G02*
X157831139Y-154943044I-614358J942438D01*
G01*
G37*
D20*
X161796354Y-157768238D03*
D19*
X160416816Y-153257487D03*
D22*
X159254827Y-162346441D03*
D23*
G36*
X160541710Y-163677360D02*
G01*
X161034760Y-161837272D01*
X162874848Y-162330322D01*
X162381798Y-164170410D01*
X160541710Y-163677360D01*
G37*
D13*
X156889451Y-156453437D03*
X166703257Y-159083039D03*
%TD*%
%TO.C,MX-53*%
X169498790Y-130249083D03*
X159684984Y-127619481D03*
D19*
X163212349Y-124423531D03*
D20*
X164591887Y-128934282D03*
G36*
G01*
X160626676Y-126109095D02*
X160626672Y-126109088D01*
G75*
G02*
X160954752Y-124552292I942438J614358D01*
G01*
X162597992Y-123481094D01*
G75*
G02*
X164154788Y-123809174I614358J-942438D01*
G01*
X164154788Y-123809174D01*
G75*
G02*
X163826708Y-125365970I-942438J-614358D01*
G01*
X162183468Y-126437168D01*
G75*
G02*
X160626672Y-126109088I-614358J942438D01*
G01*
G37*
D19*
X168360139Y-124684779D03*
G36*
G01*
X167806980Y-126299009D02*
X167806140Y-126298721D01*
G75*
G02*
X167107329Y-124869416I365247J1064058D01*
G01*
X167296081Y-124319532D01*
G75*
G02*
X168725386Y-123620721I1064058J-365247D01*
G01*
X168725386Y-123620721D01*
G75*
G02*
X169424197Y-125050026I-365247J-1064058D01*
G01*
X169235445Y-125599910D01*
G75*
G02*
X167806140Y-126298721I-1064058J365247D01*
G01*
G37*
%TD*%
D13*
%TO.C,MX-52*%
X174429293Y-111848196D03*
X164615487Y-109218594D03*
D19*
X168142852Y-106022644D03*
D20*
X169522390Y-110533395D03*
G36*
G01*
X165557179Y-107708208D02*
X165557175Y-107708201D01*
G75*
G02*
X165885255Y-106151405I942438J614358D01*
G01*
X167528495Y-105080207D01*
G75*
G02*
X169085291Y-105408287I614358J-942438D01*
G01*
X169085291Y-105408287D01*
G75*
G02*
X168757211Y-106965083I-942438J-614358D01*
G01*
X167113971Y-108036281D01*
G75*
G02*
X165557175Y-107708201I-614358J942438D01*
G01*
G37*
D19*
X173290642Y-106283892D03*
G36*
G01*
X172737483Y-107898122D02*
X172736643Y-107897834D01*
G75*
G02*
X172037832Y-106468529I365247J1064058D01*
G01*
X172226584Y-105918645D01*
G75*
G02*
X173655889Y-105219834I1064058J-365247D01*
G01*
X173655889Y-105219834D01*
G75*
G02*
X174354700Y-106649139I-365247J-1064058D01*
G01*
X174165948Y-107199023D01*
G75*
G02*
X172736643Y-107897834I-1064058J365247D01*
G01*
G37*
%TD*%
D13*
%TO.C,MX-51*%
X179359795Y-93447309D03*
X169545989Y-90817707D03*
D19*
X173073354Y-87621757D03*
D20*
X174452892Y-92132508D03*
G36*
G01*
X170487681Y-89307321D02*
X170487677Y-89307314D01*
G75*
G02*
X170815757Y-87750518I942438J614358D01*
G01*
X172458997Y-86679320D01*
G75*
G02*
X174015793Y-87007400I614358J-942438D01*
G01*
X174015793Y-87007400D01*
G75*
G02*
X173687713Y-88564196I-942438J-614358D01*
G01*
X172044473Y-89635394D01*
G75*
G02*
X170487677Y-89307314I-614358J942438D01*
G01*
G37*
D19*
X178221144Y-87883005D03*
G36*
G01*
X177667985Y-89497235D02*
X177667145Y-89496947D01*
G75*
G02*
X176968334Y-88067642I365247J1064058D01*
G01*
X177157086Y-87517758D01*
G75*
G02*
X178586391Y-86818947I1064058J-365247D01*
G01*
X178586391Y-86818947D01*
G75*
G02*
X179285202Y-88248252I-365247J-1064058D01*
G01*
X179096450Y-88798136D01*
G75*
G02*
X177667145Y-89496947I-1064058J365247D01*
G01*
G37*
%TD*%
D13*
%TO.C,MX-50*%
X184290298Y-75046422D03*
X174476492Y-72416820D03*
D19*
X178003857Y-69220870D03*
D20*
X179383395Y-73731621D03*
G36*
G01*
X175418184Y-70906434D02*
X175418180Y-70906427D01*
G75*
G02*
X175746260Y-69349631I942438J614358D01*
G01*
X177389500Y-68278433D01*
G75*
G02*
X178946296Y-68606513I614358J-942438D01*
G01*
X178946296Y-68606513D01*
G75*
G02*
X178618216Y-70163309I-942438J-614358D01*
G01*
X176974976Y-71234507D01*
G75*
G02*
X175418180Y-70906427I-614358J942438D01*
G01*
G37*
D19*
X183151647Y-69482118D03*
G36*
G01*
X182598488Y-71096348D02*
X182597648Y-71096060D01*
G75*
G02*
X181898837Y-69666755I365247J1064058D01*
G01*
X182087589Y-69116871D01*
G75*
G02*
X183516894Y-68418060I1064058J-365247D01*
G01*
X183516894Y-68418060D01*
G75*
G02*
X184215705Y-69847365I-365247J-1064058D01*
G01*
X184026953Y-70397249D01*
G75*
G02*
X182597648Y-71096060I-1064058J365247D01*
G01*
G37*
%TD*%
D13*
%TO.C,MX-44*%
X143537008Y-162736667D03*
X133723202Y-160107065D03*
D19*
X137250567Y-156911115D03*
D20*
X138630105Y-161421866D03*
G36*
G01*
X134664894Y-158596679D02*
X134664890Y-158596672D01*
G75*
G02*
X134992970Y-157039876I942438J614358D01*
G01*
X136636210Y-155968678D01*
G75*
G02*
X138193006Y-156296758I614358J-942438D01*
G01*
X138193006Y-156296758D01*
G75*
G02*
X137864926Y-157853554I-942438J-614358D01*
G01*
X136221686Y-158924752D01*
G75*
G02*
X134664890Y-158596672I-614358J942438D01*
G01*
G37*
D19*
X142398357Y-157172363D03*
G36*
G01*
X141845198Y-158786593D02*
X141844358Y-158786305D01*
G75*
G02*
X141145547Y-157357000I365247J1064058D01*
G01*
X141334299Y-156807116D01*
G75*
G02*
X142763604Y-156108305I1064058J-365247D01*
G01*
X142763604Y-156108305D01*
G75*
G02*
X143462415Y-157537610I-365247J-1064058D01*
G01*
X143273663Y-158087494D01*
G75*
G02*
X141844358Y-158786305I-1064058J365247D01*
G01*
G37*
%TD*%
D13*
%TO.C,MX-43*%
X152330528Y-120718358D03*
X142516722Y-118088756D03*
D19*
X146044087Y-114892806D03*
D20*
X147423625Y-119403557D03*
G36*
G01*
X143458414Y-116578370D02*
X143458410Y-116578363D01*
G75*
G02*
X143786490Y-115021567I942438J614358D01*
G01*
X145429730Y-113950369D01*
G75*
G02*
X146986526Y-114278449I614358J-942438D01*
G01*
X146986526Y-114278449D01*
G75*
G02*
X146658446Y-115835245I-942438J-614358D01*
G01*
X145015206Y-116906443D01*
G75*
G02*
X143458410Y-116578363I-614358J942438D01*
G01*
G37*
D19*
X151191877Y-115154054D03*
G36*
G01*
X150638718Y-116768284D02*
X150637878Y-116767996D01*
G75*
G02*
X149939067Y-115338691I365247J1064058D01*
G01*
X150127819Y-114788807D01*
G75*
G02*
X151557124Y-114089996I1064058J-365247D01*
G01*
X151557124Y-114089996D01*
G75*
G02*
X152255935Y-115519301I-365247J-1064058D01*
G01*
X152067183Y-116069185D01*
G75*
G02*
X150637878Y-116767996I-1064058J365247D01*
G01*
G37*
%TD*%
D13*
%TO.C,MX-42*%
X157261031Y-102317472D03*
X147447225Y-99687870D03*
D19*
X150974590Y-96491920D03*
D20*
X152354128Y-101002671D03*
G36*
G01*
X148388917Y-98177484D02*
X148388913Y-98177477D01*
G75*
G02*
X148716993Y-96620681I942438J614358D01*
G01*
X150360233Y-95549483D01*
G75*
G02*
X151917029Y-95877563I614358J-942438D01*
G01*
X151917029Y-95877563D01*
G75*
G02*
X151588949Y-97434359I-942438J-614358D01*
G01*
X149945709Y-98505557D01*
G75*
G02*
X148388913Y-98177477I-614358J942438D01*
G01*
G37*
D19*
X156122380Y-96753168D03*
G36*
G01*
X155569221Y-98367398D02*
X155568381Y-98367110D01*
G75*
G02*
X154869570Y-96937805I365247J1064058D01*
G01*
X155058322Y-96387921D01*
G75*
G02*
X156487627Y-95689110I1064058J-365247D01*
G01*
X156487627Y-95689110D01*
G75*
G02*
X157186438Y-97118415I-365247J-1064058D01*
G01*
X156997686Y-97668299D01*
G75*
G02*
X155568381Y-98367110I-1064058J365247D01*
G01*
G37*
%TD*%
D13*
%TO.C,MX-41*%
X162191534Y-83916585D03*
X152377728Y-81286983D03*
D19*
X155905093Y-78091033D03*
D20*
X157284631Y-82601784D03*
G36*
G01*
X153319420Y-79776597D02*
X153319416Y-79776590D01*
G75*
G02*
X153647496Y-78219794I942438J614358D01*
G01*
X155290736Y-77148596D01*
G75*
G02*
X156847532Y-77476676I614358J-942438D01*
G01*
X156847532Y-77476676D01*
G75*
G02*
X156519452Y-79033472I-942438J-614358D01*
G01*
X154876212Y-80104670D01*
G75*
G02*
X153319416Y-79776590I-614358J942438D01*
G01*
G37*
D19*
X161052883Y-78352281D03*
G36*
G01*
X160499724Y-79966511D02*
X160498884Y-79966223D01*
G75*
G02*
X159800073Y-78536918I365247J1064058D01*
G01*
X159988825Y-77987034D01*
G75*
G02*
X161418130Y-77288223I1064058J-365247D01*
G01*
X161418130Y-77288223D01*
G75*
G02*
X162116941Y-78717528I-365247J-1064058D01*
G01*
X161928189Y-79267412D01*
G75*
G02*
X160498884Y-79966223I-1064058J365247D01*
G01*
G37*
%TD*%
D13*
%TO.C,MX-40*%
X167122037Y-65515698D03*
X157308231Y-62886096D03*
D19*
X160835596Y-59690146D03*
D20*
X162215134Y-64200897D03*
G36*
G01*
X158249923Y-61375710D02*
X158249919Y-61375703D01*
G75*
G02*
X158577999Y-59818907I942438J614358D01*
G01*
X160221239Y-58747709D01*
G75*
G02*
X161778035Y-59075789I614358J-942438D01*
G01*
X161778035Y-59075789D01*
G75*
G02*
X161449955Y-60632585I-942438J-614358D01*
G01*
X159806715Y-61703783D01*
G75*
G02*
X158249919Y-61375703I-614358J942438D01*
G01*
G37*
D19*
X165983386Y-59951394D03*
G36*
G01*
X165430227Y-61565624D02*
X165429387Y-61565336D01*
G75*
G02*
X164730576Y-60136031I365247J1064058D01*
G01*
X164919328Y-59586147D01*
G75*
G02*
X166348633Y-58887336I1064058J-365247D01*
G01*
X166348633Y-58887336D01*
G75*
G02*
X167047444Y-60316641I-365247J-1064058D01*
G01*
X166858692Y-60866525D01*
G75*
G02*
X165429387Y-61565336I-1064058J365247D01*
G01*
G37*
%TD*%
D13*
%TO.C,MX-34*%
X148467511Y-144335780D03*
X138653705Y-141706178D03*
D19*
X142181070Y-138510228D03*
D20*
X143560608Y-143020979D03*
G36*
G01*
X139595397Y-140195792D02*
X139595393Y-140195785D01*
G75*
G02*
X139923473Y-138638989I942438J614358D01*
G01*
X141566713Y-137567791D01*
G75*
G02*
X143123509Y-137895871I614358J-942438D01*
G01*
X143123509Y-137895871D01*
G75*
G02*
X142795429Y-139452667I-942438J-614358D01*
G01*
X141152189Y-140523865D01*
G75*
G02*
X139595393Y-140195785I-614358J942438D01*
G01*
G37*
D19*
X147328860Y-138771476D03*
G36*
G01*
X146775701Y-140385706D02*
X146774861Y-140385418D01*
G75*
G02*
X146076050Y-138956113I365247J1064058D01*
G01*
X146264802Y-138406229D01*
G75*
G02*
X147694107Y-137707418I1064058J-365247D01*
G01*
X147694107Y-137707418D01*
G75*
G02*
X148392918Y-139136723I-365247J-1064058D01*
G01*
X148204166Y-139686607D01*
G75*
G02*
X146774861Y-140385418I-1064058J365247D01*
G01*
G37*
%TD*%
D13*
%TO.C,MX-33*%
X135162267Y-111187634D03*
X125348461Y-108558032D03*
D19*
X128875826Y-105362082D03*
D20*
X130255364Y-109872833D03*
G36*
G01*
X126290153Y-107047646D02*
X126290149Y-107047639D01*
G75*
G02*
X126618229Y-105490843I942438J614358D01*
G01*
X128261469Y-104419645D01*
G75*
G02*
X129818265Y-104747725I614358J-942438D01*
G01*
X129818265Y-104747725D01*
G75*
G02*
X129490185Y-106304521I-942438J-614358D01*
G01*
X127846945Y-107375719D01*
G75*
G02*
X126290149Y-107047639I-614358J942438D01*
G01*
G37*
D19*
X134023616Y-105623330D03*
G36*
G01*
X133470457Y-107237560D02*
X133469617Y-107237272D01*
G75*
G02*
X132770806Y-105807967I365247J1064058D01*
G01*
X132959558Y-105258083D01*
G75*
G02*
X134388863Y-104559272I1064058J-365247D01*
G01*
X134388863Y-104559272D01*
G75*
G02*
X135087674Y-105988577I-365247J-1064058D01*
G01*
X134898922Y-106538461D01*
G75*
G02*
X133469617Y-107237272I-1064058J365247D01*
G01*
G37*
%TD*%
D13*
%TO.C,MX-32*%
X140092770Y-92786747D03*
X130278964Y-90157145D03*
D19*
X133806329Y-86961195D03*
D20*
X135185867Y-91471946D03*
G36*
G01*
X131220656Y-88646759D02*
X131220652Y-88646752D01*
G75*
G02*
X131548732Y-87089956I942438J614358D01*
G01*
X133191972Y-86018758D01*
G75*
G02*
X134748768Y-86346838I614358J-942438D01*
G01*
X134748768Y-86346838D01*
G75*
G02*
X134420688Y-87903634I-942438J-614358D01*
G01*
X132777448Y-88974832D01*
G75*
G02*
X131220652Y-88646752I-614358J942438D01*
G01*
G37*
D19*
X138954119Y-87222443D03*
G36*
G01*
X138400960Y-88836673D02*
X138400120Y-88836385D01*
G75*
G02*
X137701309Y-87407080I365247J1064058D01*
G01*
X137890061Y-86857196D01*
G75*
G02*
X139319366Y-86158385I1064058J-365247D01*
G01*
X139319366Y-86158385D01*
G75*
G02*
X140018177Y-87587690I-365247J-1064058D01*
G01*
X139829425Y-88137574D01*
G75*
G02*
X138400120Y-88836385I-1064058J365247D01*
G01*
G37*
%TD*%
D13*
%TO.C,MX-31*%
X145023273Y-74385860D03*
X135209467Y-71756258D03*
D19*
X138736832Y-68560308D03*
D20*
X140116370Y-73071059D03*
G36*
G01*
X136151159Y-70245872D02*
X136151155Y-70245865D01*
G75*
G02*
X136479235Y-68689069I942438J614358D01*
G01*
X138122475Y-67617871D01*
G75*
G02*
X139679271Y-67945951I614358J-942438D01*
G01*
X139679271Y-67945951D01*
G75*
G02*
X139351191Y-69502747I-942438J-614358D01*
G01*
X137707951Y-70573945D01*
G75*
G02*
X136151155Y-70245865I-614358J942438D01*
G01*
G37*
D19*
X143884622Y-68821556D03*
G36*
G01*
X143331463Y-70435786D02*
X143330623Y-70435498D01*
G75*
G02*
X142631812Y-69006193I365247J1064058D01*
G01*
X142820564Y-68456309D01*
G75*
G02*
X144249869Y-67757498I1064058J-365247D01*
G01*
X144249869Y-67757498D01*
G75*
G02*
X144948680Y-69186803I-365247J-1064058D01*
G01*
X144759928Y-69736687D01*
G75*
G02*
X143330623Y-70435498I-1064058J365247D01*
G01*
G37*
%TD*%
D13*
%TO.C,MX-30*%
X149953776Y-55984973D03*
X140139970Y-53355371D03*
D19*
X143667335Y-50159421D03*
D20*
X145046873Y-54670172D03*
G36*
G01*
X141081662Y-51844985D02*
X141081658Y-51844978D01*
G75*
G02*
X141409738Y-50288182I942438J614358D01*
G01*
X143052978Y-49216984D01*
G75*
G02*
X144609774Y-49545064I614358J-942438D01*
G01*
X144609774Y-49545064D01*
G75*
G02*
X144281694Y-51101860I-942438J-614358D01*
G01*
X142638454Y-52173058D01*
G75*
G02*
X141081658Y-51844978I-614358J942438D01*
G01*
G37*
D19*
X148815125Y-50420669D03*
G36*
G01*
X148261966Y-52034899D02*
X148261126Y-52034611D01*
G75*
G02*
X147562315Y-50605306I365247J1064058D01*
G01*
X147751067Y-50055422D01*
G75*
G02*
X149180372Y-49356611I1064058J-365247D01*
G01*
X149180372Y-49356611D01*
G75*
G02*
X149879183Y-50785916I-365247J-1064058D01*
G01*
X149690431Y-51335800D01*
G75*
G02*
X148261126Y-52034611I-1064058J365247D01*
G01*
G37*
%TD*%
D13*
%TO.C,MX-23*%
X115528755Y-110857353D03*
X105714949Y-108227751D03*
D19*
X109242314Y-105031801D03*
D20*
X110621852Y-109542552D03*
G36*
G01*
X106656641Y-106717365D02*
X106656637Y-106717358D01*
G75*
G02*
X106984717Y-105160562I942438J614358D01*
G01*
X108627957Y-104089364D01*
G75*
G02*
X110184753Y-104417444I614358J-942438D01*
G01*
X110184753Y-104417444D01*
G75*
G02*
X109856673Y-105974240I-942438J-614358D01*
G01*
X108213433Y-107045438D01*
G75*
G02*
X106656637Y-106717358I-614358J942438D01*
G01*
G37*
D19*
X114390104Y-105293049D03*
G36*
G01*
X113836945Y-106907279D02*
X113836105Y-106906991D01*
G75*
G02*
X113137294Y-105477686I365247J1064058D01*
G01*
X113326046Y-104927802D01*
G75*
G02*
X114755351Y-104228991I1064058J-365247D01*
G01*
X114755351Y-104228991D01*
G75*
G02*
X115454162Y-105658296I-365247J-1064058D01*
G01*
X115265410Y-106208180D01*
G75*
G02*
X113836105Y-106906991I-1064058J365247D01*
G01*
G37*
%TD*%
D13*
%TO.C,MX-22*%
X120459257Y-92456466D03*
X110645451Y-89826864D03*
D19*
X114172816Y-86630914D03*
D20*
X115552354Y-91141665D03*
G36*
G01*
X111587143Y-88316478D02*
X111587139Y-88316471D01*
G75*
G02*
X111915219Y-86759675I942438J614358D01*
G01*
X113558459Y-85688477D01*
G75*
G02*
X115115255Y-86016557I614358J-942438D01*
G01*
X115115255Y-86016557D01*
G75*
G02*
X114787175Y-87573353I-942438J-614358D01*
G01*
X113143935Y-88644551D01*
G75*
G02*
X111587139Y-88316471I-614358J942438D01*
G01*
G37*
D19*
X119320606Y-86892162D03*
G36*
G01*
X118767447Y-88506392D02*
X118766607Y-88506104D01*
G75*
G02*
X118067796Y-87076799I365247J1064058D01*
G01*
X118256548Y-86526915D01*
G75*
G02*
X119685853Y-85828104I1064058J-365247D01*
G01*
X119685853Y-85828104D01*
G75*
G02*
X120384664Y-87257409I-365247J-1064058D01*
G01*
X120195912Y-87807293D01*
G75*
G02*
X118766607Y-88506104I-1064058J365247D01*
G01*
G37*
%TD*%
D13*
%TO.C,MX-21*%
X125389760Y-74055579D03*
X115575954Y-71425977D03*
D19*
X119103319Y-68230027D03*
D20*
X120482857Y-72740778D03*
G36*
G01*
X116517646Y-69915591D02*
X116517642Y-69915584D01*
G75*
G02*
X116845722Y-68358788I942438J614358D01*
G01*
X118488962Y-67287590D01*
G75*
G02*
X120045758Y-67615670I614358J-942438D01*
G01*
X120045758Y-67615670D01*
G75*
G02*
X119717678Y-69172466I-942438J-614358D01*
G01*
X118074438Y-70243664D01*
G75*
G02*
X116517642Y-69915584I-614358J942438D01*
G01*
G37*
D19*
X124251109Y-68491275D03*
G36*
G01*
X123697950Y-70105505D02*
X123697110Y-70105217D01*
G75*
G02*
X122998299Y-68675912I365247J1064058D01*
G01*
X123187051Y-68126028D01*
G75*
G02*
X124616356Y-67427217I1064058J-365247D01*
G01*
X124616356Y-67427217D01*
G75*
G02*
X125315167Y-68856522I-365247J-1064058D01*
G01*
X125126415Y-69406406D01*
G75*
G02*
X123697110Y-70105217I-1064058J365247D01*
G01*
G37*
%TD*%
D13*
%TO.C,MX-20*%
X130320263Y-55654692D03*
X120506457Y-53025090D03*
D19*
X124033822Y-49829140D03*
D20*
X125413360Y-54339891D03*
G36*
G01*
X121448149Y-51514704D02*
X121448145Y-51514697D01*
G75*
G02*
X121776225Y-49957901I942438J614358D01*
G01*
X123419465Y-48886703D01*
G75*
G02*
X124976261Y-49214783I614358J-942438D01*
G01*
X124976261Y-49214783D01*
G75*
G02*
X124648181Y-50771579I-942438J-614358D01*
G01*
X123004941Y-51842777D01*
G75*
G02*
X121448145Y-51514697I-614358J942438D01*
G01*
G37*
D19*
X129181612Y-50090388D03*
G36*
G01*
X128628453Y-51704618D02*
X128627613Y-51704330D01*
G75*
G02*
X127928802Y-50275025I365247J1064058D01*
G01*
X128117554Y-49725141D01*
G75*
G02*
X129546859Y-49026330I1064058J-365247D01*
G01*
X129546859Y-49026330D01*
G75*
G02*
X130245670Y-50455635I-365247J-1064058D01*
G01*
X130056918Y-51005519D01*
G75*
G02*
X128627613Y-51704330I-1064058J365247D01*
G01*
G37*
%TD*%
D13*
%TO.C,MX-13*%
X95895242Y-110527072D03*
X86081436Y-107897470D03*
D19*
X89608801Y-104701520D03*
D20*
X90988339Y-109212271D03*
G36*
G01*
X87023128Y-106387084D02*
X87023124Y-106387077D01*
G75*
G02*
X87351204Y-104830281I942438J614358D01*
G01*
X88994444Y-103759083D01*
G75*
G02*
X90551240Y-104087163I614358J-942438D01*
G01*
X90551240Y-104087163D01*
G75*
G02*
X90223160Y-105643959I-942438J-614358D01*
G01*
X88579920Y-106715157D01*
G75*
G02*
X87023124Y-106387077I-614358J942438D01*
G01*
G37*
D19*
X94756591Y-104962768D03*
G36*
G01*
X94203432Y-106576998D02*
X94202592Y-106576710D01*
G75*
G02*
X93503781Y-105147405I365247J1064058D01*
G01*
X93692533Y-104597521D01*
G75*
G02*
X95121838Y-103898710I1064058J-365247D01*
G01*
X95121838Y-103898710D01*
G75*
G02*
X95820649Y-105328015I-365247J-1064058D01*
G01*
X95631897Y-105877899D01*
G75*
G02*
X94202592Y-106576710I-1064058J365247D01*
G01*
G37*
%TD*%
D13*
%TO.C,MX-12*%
X100825745Y-92126185D03*
X91011939Y-89496583D03*
D19*
X94539304Y-86300633D03*
D20*
X95918842Y-90811384D03*
G36*
G01*
X91953631Y-87986197D02*
X91953627Y-87986190D01*
G75*
G02*
X92281707Y-86429394I942438J614358D01*
G01*
X93924947Y-85358196D01*
G75*
G02*
X95481743Y-85686276I614358J-942438D01*
G01*
X95481743Y-85686276D01*
G75*
G02*
X95153663Y-87243072I-942438J-614358D01*
G01*
X93510423Y-88314270D01*
G75*
G02*
X91953627Y-87986190I-614358J942438D01*
G01*
G37*
D19*
X99687094Y-86561881D03*
G36*
G01*
X99133935Y-88176111D02*
X99133095Y-88175823D01*
G75*
G02*
X98434284Y-86746518I365247J1064058D01*
G01*
X98623036Y-86196634D01*
G75*
G02*
X100052341Y-85497823I1064058J-365247D01*
G01*
X100052341Y-85497823D01*
G75*
G02*
X100751152Y-86927128I-365247J-1064058D01*
G01*
X100562400Y-87477012D01*
G75*
G02*
X99133095Y-88175823I-1064058J365247D01*
G01*
G37*
%TD*%
D13*
%TO.C,MX-11*%
X105756247Y-73725298D03*
X95942441Y-71095696D03*
D19*
X99469806Y-67899746D03*
D20*
X100849344Y-72410497D03*
G36*
G01*
X96884133Y-69585310D02*
X96884129Y-69585303D01*
G75*
G02*
X97212209Y-68028507I942438J614358D01*
G01*
X98855449Y-66957309D01*
G75*
G02*
X100412245Y-67285389I614358J-942438D01*
G01*
X100412245Y-67285389D01*
G75*
G02*
X100084165Y-68842185I-942438J-614358D01*
G01*
X98440925Y-69913383D01*
G75*
G02*
X96884129Y-69585303I-614358J942438D01*
G01*
G37*
D19*
X104617596Y-68160994D03*
G36*
G01*
X104064437Y-69775224D02*
X104063597Y-69774936D01*
G75*
G02*
X103364786Y-68345631I365247J1064058D01*
G01*
X103553538Y-67795747D01*
G75*
G02*
X104982843Y-67096936I1064058J-365247D01*
G01*
X104982843Y-67096936D01*
G75*
G02*
X105681654Y-68526241I-365247J-1064058D01*
G01*
X105492902Y-69076125D01*
G75*
G02*
X104063597Y-69774936I-1064058J365247D01*
G01*
G37*
%TD*%
D13*
%TO.C,MX-10*%
X110686750Y-55324411D03*
X100872944Y-52694809D03*
D19*
X104400309Y-49498859D03*
D20*
X105779847Y-54009610D03*
G36*
G01*
X101814636Y-51184423D02*
X101814632Y-51184416D01*
G75*
G02*
X102142712Y-49627620I942438J614358D01*
G01*
X103785952Y-48556422D01*
G75*
G02*
X105342748Y-48884502I614358J-942438D01*
G01*
X105342748Y-48884502D01*
G75*
G02*
X105014668Y-50441298I-942438J-614358D01*
G01*
X103371428Y-51512496D01*
G75*
G02*
X101814632Y-51184416I-614358J942438D01*
G01*
G37*
D19*
X109548099Y-49760107D03*
G36*
G01*
X108994940Y-51374337D02*
X108994100Y-51374049D01*
G75*
G02*
X108295289Y-49944744I365247J1064058D01*
G01*
X108484041Y-49394860D01*
G75*
G02*
X109913346Y-48696049I1064058J-365247D01*
G01*
X109913346Y-48696049D01*
G75*
G02*
X110612157Y-50125354I-365247J-1064058D01*
G01*
X110423405Y-50675238D01*
G75*
G02*
X108994100Y-51374049I-1064058J365247D01*
G01*
G37*
%TD*%
D13*
%TO.C,MX-4*%
X69031115Y-127981365D03*
X59217309Y-125351763D03*
D19*
X62744674Y-122155813D03*
D20*
X64124212Y-126666564D03*
G36*
G01*
X60159001Y-123841377D02*
X60158997Y-123841370D01*
G75*
G02*
X60487077Y-122284574I942438J614358D01*
G01*
X62130317Y-121213376D01*
G75*
G02*
X63687113Y-121541456I614358J-942438D01*
G01*
X63687113Y-121541456D01*
G75*
G02*
X63359033Y-123098252I-942438J-614358D01*
G01*
X61715793Y-124169450D01*
G75*
G02*
X60158997Y-123841370I-614358J942438D01*
G01*
G37*
D19*
X67892464Y-122417061D03*
G36*
G01*
X67339305Y-124031291D02*
X67338465Y-124031003D01*
G75*
G02*
X66639654Y-122601698I365247J1064058D01*
G01*
X66828406Y-122051814D01*
G75*
G02*
X68257711Y-121353003I1064058J-365247D01*
G01*
X68257711Y-121353003D01*
G75*
G02*
X68956522Y-122782308I-365247J-1064058D01*
G01*
X68767770Y-123332192D01*
G75*
G02*
X67338465Y-124031003I-1064058J365247D01*
G01*
G37*
%TD*%
D20*
%TO.C,MX-3*%
X69248943Y-116863924D03*
X46186498Y-110684361D03*
D21*
X73193346Y-102143215D03*
X50130901Y-95963651D03*
D13*
X64761175Y-107115226D03*
X54947369Y-104485624D03*
D19*
X58474734Y-101289674D03*
D20*
X59854272Y-105800425D03*
G36*
G01*
X55889061Y-102975238D02*
X55889057Y-102975231D01*
G75*
G02*
X56217137Y-101418435I942438J614358D01*
G01*
X57860377Y-100347237D01*
G75*
G02*
X59417173Y-100675317I614358J-942438D01*
G01*
X59417173Y-100675317D01*
G75*
G02*
X59089093Y-102232113I-942438J-614358D01*
G01*
X57445853Y-103303311D01*
G75*
G02*
X55889057Y-102975231I-614358J942438D01*
G01*
G37*
D19*
X63622524Y-101550922D03*
G36*
G01*
X63069365Y-103165152D02*
X63068525Y-103164864D01*
G75*
G02*
X62369714Y-101735559I365247J1064058D01*
G01*
X62558466Y-101185675D01*
G75*
G02*
X63987771Y-100486864I1064058J-365247D01*
G01*
X63987771Y-100486864D01*
G75*
G02*
X64686582Y-101916169I-365247J-1064058D01*
G01*
X64497830Y-102466053D01*
G75*
G02*
X63068525Y-103164864I-1064058J365247D01*
G01*
G37*
%TD*%
D13*
%TO.C,MX-2*%
X74291899Y-89946965D03*
X64478093Y-87317363D03*
D19*
X68005458Y-84121413D03*
D20*
X69384996Y-88632164D03*
G36*
G01*
X65419785Y-85806977D02*
X65419781Y-85806970D01*
G75*
G02*
X65747861Y-84250174I942438J614358D01*
G01*
X67391101Y-83178976D01*
G75*
G02*
X68947897Y-83507056I614358J-942438D01*
G01*
X68947897Y-83507056D01*
G75*
G02*
X68619817Y-85063852I-942438J-614358D01*
G01*
X66976577Y-86135050D01*
G75*
G02*
X65419781Y-85806970I-614358J942438D01*
G01*
G37*
D19*
X73153248Y-84382661D03*
G36*
G01*
X72600089Y-85996891D02*
X72599249Y-85996603D01*
G75*
G02*
X71900438Y-84567298I365247J1064058D01*
G01*
X72089190Y-84017414D01*
G75*
G02*
X73518495Y-83318603I1064058J-365247D01*
G01*
X73518495Y-83318603D01*
G75*
G02*
X74217306Y-84747908I-365247J-1064058D01*
G01*
X74028554Y-85297792D01*
G75*
G02*
X72599249Y-85996603I-1064058J365247D01*
G01*
G37*
%TD*%
D13*
%TO.C,MX-1*%
X81522513Y-72162391D03*
X71708707Y-69532789D03*
D19*
X75236072Y-66336839D03*
D20*
X76615610Y-70847590D03*
G36*
G01*
X72650399Y-68022403D02*
X72650395Y-68022396D01*
G75*
G02*
X72978475Y-66465600I942438J614358D01*
G01*
X74621715Y-65394402D01*
G75*
G02*
X76178511Y-65722482I614358J-942438D01*
G01*
X76178511Y-65722482D01*
G75*
G02*
X75850431Y-67279278I-942438J-614358D01*
G01*
X74207191Y-68350476D01*
G75*
G02*
X72650395Y-68022396I-614358J942438D01*
G01*
G37*
D19*
X80383862Y-66598087D03*
G36*
G01*
X79830703Y-68212317D02*
X79829863Y-68212029D01*
G75*
G02*
X79131052Y-66782724I365247J1064058D01*
G01*
X79319804Y-66232840D01*
G75*
G02*
X80749109Y-65534029I1064058J-365247D01*
G01*
X80749109Y-65534029D01*
G75*
G02*
X81447920Y-66963334I-365247J-1064058D01*
G01*
X81259168Y-67513218D01*
G75*
G02*
X79829863Y-68212029I-1064058J365247D01*
G01*
G37*
%TD*%
D13*
%TO.C,MX-0*%
X91053238Y-54994130D03*
X81239432Y-52364528D03*
D19*
X84766797Y-49168578D03*
D20*
X86146335Y-53679329D03*
G36*
G01*
X82181124Y-50854142D02*
X82181120Y-50854135D01*
G75*
G02*
X82509200Y-49297339I942438J614358D01*
G01*
X84152440Y-48226141D01*
G75*
G02*
X85709236Y-48554221I614358J-942438D01*
G01*
X85709236Y-48554221D01*
G75*
G02*
X85381156Y-50111017I-942438J-614358D01*
G01*
X83737916Y-51182215D01*
G75*
G02*
X82181120Y-50854135I-614358J942438D01*
G01*
G37*
D19*
X89914587Y-49429826D03*
G36*
G01*
X89361428Y-51044056D02*
X89360588Y-51043768D01*
G75*
G02*
X88661777Y-49614463I365247J1064058D01*
G01*
X88850529Y-49064579D01*
G75*
G02*
X90279834Y-48365768I1064058J-365247D01*
G01*
X90279834Y-48365768D01*
G75*
G02*
X90978645Y-49795073I-365247J-1064058D01*
G01*
X90789893Y-50344957D01*
G75*
G02*
X89360588Y-51043768I-1064058J365247D01*
G01*
G37*
%TD*%
D24*
%TO.C,D73(Encoder)1*%
X217963750Y-142875000D03*
D25*
X210343750Y-142875000D03*
%TD*%
%TO.C,D134*%
G36*
G01*
X351949044Y-119700294D02*
X351949044Y-119700294D01*
G75*
G02*
X350969248Y-119134608I-207055J772741D01*
G01*
X350969248Y-119134608D01*
G75*
G02*
X351534934Y-118154812I772741J207055D01*
G01*
X351534934Y-118154812D01*
G75*
G02*
X352514730Y-118720498I207055J-772741D01*
G01*
X352514730Y-118720498D01*
G75*
G02*
X351949044Y-119700294I-772741J-207055D01*
G01*
G37*
D23*
G36*
X354693986Y-126853593D02*
G01*
X353148505Y-127267704D01*
X352734394Y-125722223D01*
X354279875Y-125308112D01*
X354693986Y-126853593D01*
G37*
%TD*%
%TO.C,D133*%
G36*
G01*
X350493786Y-111202383D02*
X350493786Y-111202383D01*
G75*
G02*
X351473582Y-111768069I207055J-772741D01*
G01*
X351473582Y-111768069D01*
G75*
G02*
X350907896Y-112747865I-772741J-207055D01*
G01*
X350907896Y-112747865D01*
G75*
G02*
X349928100Y-112182179I-207055J772741D01*
G01*
X349928100Y-112182179D01*
G75*
G02*
X350493786Y-111202383I772741J207055D01*
G01*
G37*
G36*
X347748844Y-104049084D02*
G01*
X349294325Y-103634973D01*
X349708436Y-105180454D01*
X348162955Y-105594565D01*
X347748844Y-104049084D01*
G37*
%TD*%
%TO.C,D132*%
G36*
G01*
X344180267Y-90706823D02*
X344180267Y-90706823D01*
G75*
G02*
X345160063Y-91272509I207055J-772741D01*
G01*
X345160063Y-91272509D01*
G75*
G02*
X344594377Y-92252305I-772741J-207055D01*
G01*
X344594377Y-92252305D01*
G75*
G02*
X343614581Y-91686619I-207055J772741D01*
G01*
X343614581Y-91686619D01*
G75*
G02*
X344180267Y-90706823I772741J207055D01*
G01*
G37*
G36*
X341435325Y-83553524D02*
G01*
X342980806Y-83139413D01*
X343394917Y-84684894D01*
X341849436Y-85099005D01*
X341435325Y-83553524D01*
G37*
%TD*%
%TO.C,D131*%
G36*
G01*
X338277623Y-71744670D02*
X338277623Y-71744670D01*
G75*
G02*
X339257419Y-72310356I207055J-772741D01*
G01*
X339257419Y-72310356D01*
G75*
G02*
X338691733Y-73290152I-772741J-207055D01*
G01*
X338691733Y-73290152D01*
G75*
G02*
X337711937Y-72724466I-207055J772741D01*
G01*
X337711937Y-72724466D01*
G75*
G02*
X338277623Y-71744670I772741J207055D01*
G01*
G37*
G36*
X335532681Y-64591371D02*
G01*
X337078162Y-64177260D01*
X337492273Y-65722741D01*
X335946792Y-66136852D01*
X335532681Y-64591371D01*
G37*
%TD*%
%TO.C,D130*%
G36*
G01*
X332785854Y-54315924D02*
X332785854Y-54315924D01*
G75*
G02*
X333765650Y-54881610I207055J-772741D01*
G01*
X333765650Y-54881610D01*
G75*
G02*
X333199964Y-55861406I-772741J-207055D01*
G01*
X333199964Y-55861406D01*
G75*
G02*
X332220168Y-55295720I-207055J772741D01*
G01*
X332220168Y-55295720D01*
G75*
G02*
X332785854Y-54315924I772741J207055D01*
G01*
G37*
G36*
X330040912Y-47162625D02*
G01*
X331586393Y-46748514D01*
X332000504Y-48293995D01*
X330455023Y-48708106D01*
X330040912Y-47162625D01*
G37*
%TD*%
%TO.C,D123*%
G36*
G01*
X327943850Y-109848866D02*
X327943850Y-109848866D01*
G75*
G02*
X328923646Y-110414552I207055J-772741D01*
G01*
X328923646Y-110414552D01*
G75*
G02*
X328357960Y-111394348I-772741J-207055D01*
G01*
X328357960Y-111394348D01*
G75*
G02*
X327378164Y-110828662I-207055J772741D01*
G01*
X327378164Y-110828662D01*
G75*
G02*
X327943850Y-109848866I772741J207055D01*
G01*
G37*
G36*
X325198908Y-102695567D02*
G01*
X326744389Y-102281456D01*
X327158500Y-103826937D01*
X325613019Y-104241048D01*
X325198908Y-102695567D01*
G37*
%TD*%
%TO.C,D122*%
G36*
G01*
X323013347Y-91447979D02*
X323013347Y-91447979D01*
G75*
G02*
X323993143Y-92013665I207055J-772741D01*
G01*
X323993143Y-92013665D01*
G75*
G02*
X323427457Y-92993461I-772741J-207055D01*
G01*
X323427457Y-92993461D01*
G75*
G02*
X322447661Y-92427775I-207055J772741D01*
G01*
X322447661Y-92427775D01*
G75*
G02*
X323013347Y-91447979I772741J207055D01*
G01*
G37*
G36*
X320268405Y-84294680D02*
G01*
X321813886Y-83880569D01*
X322227997Y-85426050D01*
X320682516Y-85840161D01*
X320268405Y-84294680D01*
G37*
%TD*%
%TO.C,D121*%
G36*
G01*
X318082844Y-73047092D02*
X318082844Y-73047092D01*
G75*
G02*
X319062640Y-73612778I207055J-772741D01*
G01*
X319062640Y-73612778D01*
G75*
G02*
X318496954Y-74592574I-772741J-207055D01*
G01*
X318496954Y-74592574D01*
G75*
G02*
X317517158Y-74026888I-207055J772741D01*
G01*
X317517158Y-74026888D01*
G75*
G02*
X318082844Y-73047092I772741J207055D01*
G01*
G37*
G36*
X315337902Y-65893793D02*
G01*
X316883383Y-65479682D01*
X317297494Y-67025163D01*
X315752013Y-67439274D01*
X315337902Y-65893793D01*
G37*
%TD*%
%TO.C,D120*%
G36*
G01*
X313152341Y-54646205D02*
X313152341Y-54646205D01*
G75*
G02*
X314132137Y-55211891I207055J-772741D01*
G01*
X314132137Y-55211891D01*
G75*
G02*
X313566451Y-56191687I-772741J-207055D01*
G01*
X313566451Y-56191687D01*
G75*
G02*
X312586655Y-55626001I-207055J772741D01*
G01*
X312586655Y-55626001D01*
G75*
G02*
X313152341Y-54646205I772741J207055D01*
G01*
G37*
G36*
X310407399Y-47492906D02*
G01*
X311952880Y-47078795D01*
X312366991Y-48624276D01*
X310821510Y-49038387D01*
X310407399Y-47492906D01*
G37*
%TD*%
%TO.C,D113*%
G36*
G01*
X308310337Y-110179147D02*
X308310337Y-110179147D01*
G75*
G02*
X309290133Y-110744833I207055J-772741D01*
G01*
X309290133Y-110744833D01*
G75*
G02*
X308724447Y-111724629I-772741J-207055D01*
G01*
X308724447Y-111724629D01*
G75*
G02*
X307744651Y-111158943I-207055J772741D01*
G01*
X307744651Y-111158943D01*
G75*
G02*
X308310337Y-110179147I772741J207055D01*
G01*
G37*
G36*
X305565395Y-103025848D02*
G01*
X307110876Y-102611737D01*
X307524987Y-104157218D01*
X305979506Y-104571329D01*
X305565395Y-103025848D01*
G37*
%TD*%
%TO.C,D112*%
G36*
G01*
X303379834Y-91778260D02*
X303379834Y-91778260D01*
G75*
G02*
X304359630Y-92343946I207055J-772741D01*
G01*
X304359630Y-92343946D01*
G75*
G02*
X303793944Y-93323742I-772741J-207055D01*
G01*
X303793944Y-93323742D01*
G75*
G02*
X302814148Y-92758056I-207055J772741D01*
G01*
X302814148Y-92758056D01*
G75*
G02*
X303379834Y-91778260I772741J207055D01*
G01*
G37*
G36*
X300634892Y-84624961D02*
G01*
X302180373Y-84210850D01*
X302594484Y-85756331D01*
X301049003Y-86170442D01*
X300634892Y-84624961D01*
G37*
%TD*%
%TO.C,D111*%
G36*
G01*
X298449332Y-73377373D02*
X298449332Y-73377373D01*
G75*
G02*
X299429128Y-73943059I207055J-772741D01*
G01*
X299429128Y-73943059D01*
G75*
G02*
X298863442Y-74922855I-772741J-207055D01*
G01*
X298863442Y-74922855D01*
G75*
G02*
X297883646Y-74357169I-207055J772741D01*
G01*
X297883646Y-74357169D01*
G75*
G02*
X298449332Y-73377373I772741J207055D01*
G01*
G37*
G36*
X295704390Y-66224074D02*
G01*
X297249871Y-65809963D01*
X297663982Y-67355444D01*
X296118501Y-67769555D01*
X295704390Y-66224074D01*
G37*
%TD*%
%TO.C,D110*%
G36*
G01*
X293518829Y-54976486D02*
X293518829Y-54976486D01*
G75*
G02*
X294498625Y-55542172I207055J-772741D01*
G01*
X294498625Y-55542172D01*
G75*
G02*
X293932939Y-56521968I-772741J-207055D01*
G01*
X293932939Y-56521968D01*
G75*
G02*
X292953143Y-55956282I-207055J772741D01*
G01*
X292953143Y-55956282D01*
G75*
G02*
X293518829Y-54976486I772741J207055D01*
G01*
G37*
G36*
X290773887Y-47823187D02*
G01*
X292319368Y-47409076D01*
X292733479Y-48954557D01*
X291187998Y-49368668D01*
X290773887Y-47823187D01*
G37*
%TD*%
%TO.C,D104*%
G36*
G01*
X273539837Y-139888228D02*
X273539837Y-139888228D01*
G75*
G02*
X272560041Y-139322542I-207055J772741D01*
G01*
X272560041Y-139322542D01*
G75*
G02*
X273125727Y-138342746I772741J207055D01*
G01*
X273125727Y-138342746D01*
G75*
G02*
X274105523Y-138908432I207055J-772741D01*
G01*
X274105523Y-138908432D01*
G75*
G02*
X273539837Y-139888228I-772741J-207055D01*
G01*
G37*
G36*
X276284779Y-147041527D02*
G01*
X274739298Y-147455638D01*
X274325187Y-145910157D01*
X275870668Y-145496046D01*
X276284779Y-147041527D01*
G37*
%TD*%
%TO.C,D103*%
G36*
G01*
X289909450Y-115109650D02*
X289909450Y-115109650D01*
G75*
G02*
X290889246Y-115675336I207055J-772741D01*
G01*
X290889246Y-115675336D01*
G75*
G02*
X290323560Y-116655132I-772741J-207055D01*
G01*
X290323560Y-116655132D01*
G75*
G02*
X289343764Y-116089446I-207055J772741D01*
G01*
X289343764Y-116089446D01*
G75*
G02*
X289909450Y-115109650I772741J207055D01*
G01*
G37*
G36*
X287164508Y-107956351D02*
G01*
X288709989Y-107542240D01*
X289124100Y-109087721D01*
X287578619Y-109501832D01*
X287164508Y-107956351D01*
G37*
%TD*%
%TO.C,D102*%
G36*
G01*
X284978947Y-96708763D02*
X284978947Y-96708763D01*
G75*
G02*
X285958743Y-97274449I207055J-772741D01*
G01*
X285958743Y-97274449D01*
G75*
G02*
X285393057Y-98254245I-772741J-207055D01*
G01*
X285393057Y-98254245D01*
G75*
G02*
X284413261Y-97688559I-207055J772741D01*
G01*
X284413261Y-97688559D01*
G75*
G02*
X284978947Y-96708763I772741J207055D01*
G01*
G37*
G36*
X282234005Y-89555464D02*
G01*
X283779486Y-89141353D01*
X284193597Y-90686834D01*
X282648116Y-91100945D01*
X282234005Y-89555464D01*
G37*
%TD*%
%TO.C,D101*%
G36*
G01*
X280048445Y-78307876D02*
X280048445Y-78307876D01*
G75*
G02*
X281028241Y-78873562I207055J-772741D01*
G01*
X281028241Y-78873562D01*
G75*
G02*
X280462555Y-79853358I-772741J-207055D01*
G01*
X280462555Y-79853358D01*
G75*
G02*
X279482759Y-79287672I-207055J772741D01*
G01*
X279482759Y-79287672D01*
G75*
G02*
X280048445Y-78307876I772741J207055D01*
G01*
G37*
G36*
X277303503Y-71154577D02*
G01*
X278848984Y-70740466D01*
X279263095Y-72285947D01*
X277717614Y-72700058D01*
X277303503Y-71154577D01*
G37*
%TD*%
%TO.C,D100*%
G36*
G01*
X275117942Y-59906989D02*
X275117942Y-59906989D01*
G75*
G02*
X276097738Y-60472675I207055J-772741D01*
G01*
X276097738Y-60472675D01*
G75*
G02*
X275532052Y-61452471I-772741J-207055D01*
G01*
X275532052Y-61452471D01*
G75*
G02*
X274552256Y-60886785I-207055J772741D01*
G01*
X274552256Y-60886785D01*
G75*
G02*
X275117942Y-59906989I772741J207055D01*
G01*
G37*
G36*
X272373000Y-52753690D02*
G01*
X273918481Y-52339579D01*
X274332592Y-53885060D01*
X272787111Y-54299171D01*
X272373000Y-52753690D01*
G37*
%TD*%
%TO.C,D94*%
G36*
G01*
X279535380Y-162263899D02*
X279535380Y-162263899D01*
G75*
G02*
X280515176Y-162829585I207055J-772741D01*
G01*
X280515176Y-162829585D01*
G75*
G02*
X279949490Y-163809381I-772741J-207055D01*
G01*
X279949490Y-163809381D01*
G75*
G02*
X278969694Y-163243695I-207055J772741D01*
G01*
X278969694Y-163243695D01*
G75*
G02*
X279535380Y-162263899I772741J207055D01*
G01*
G37*
G36*
X276790438Y-155110600D02*
G01*
X278335919Y-154696489D01*
X278750030Y-156241970D01*
X277204549Y-156656081D01*
X276790438Y-155110600D01*
G37*
%TD*%
%TO.C,D93*%
G36*
G01*
X272741189Y-124640375D02*
X272741189Y-124640375D01*
G75*
G02*
X273720985Y-125206061I207055J-772741D01*
G01*
X273720985Y-125206061D01*
G75*
G02*
X273155299Y-126185857I-772741J-207055D01*
G01*
X273155299Y-126185857D01*
G75*
G02*
X272175503Y-125620171I-207055J772741D01*
G01*
X272175503Y-125620171D01*
G75*
G02*
X272741189Y-124640375I772741J207055D01*
G01*
G37*
G36*
X269996247Y-117487076D02*
G01*
X271541728Y-117072965D01*
X271955839Y-118618446D01*
X270410358Y-119032557D01*
X269996247Y-117487076D01*
G37*
%TD*%
%TO.C,D92*%
G36*
G01*
X267810686Y-106239488D02*
X267810686Y-106239488D01*
G75*
G02*
X268790482Y-106805174I207055J-772741D01*
G01*
X268790482Y-106805174D01*
G75*
G02*
X268224796Y-107784970I-772741J-207055D01*
G01*
X268224796Y-107784970D01*
G75*
G02*
X267245000Y-107219284I-207055J772741D01*
G01*
X267245000Y-107219284D01*
G75*
G02*
X267810686Y-106239488I772741J207055D01*
G01*
G37*
G36*
X265065744Y-99086189D02*
G01*
X266611225Y-98672078D01*
X267025336Y-100217559D01*
X265479855Y-100631670D01*
X265065744Y-99086189D01*
G37*
%TD*%
%TO.C,D91*%
G36*
G01*
X262880183Y-87838601D02*
X262880183Y-87838601D01*
G75*
G02*
X263859979Y-88404287I207055J-772741D01*
G01*
X263859979Y-88404287D01*
G75*
G02*
X263294293Y-89384083I-772741J-207055D01*
G01*
X263294293Y-89384083D01*
G75*
G02*
X262314497Y-88818397I-207055J772741D01*
G01*
X262314497Y-88818397D01*
G75*
G02*
X262880183Y-87838601I772741J207055D01*
G01*
G37*
G36*
X260135241Y-80685302D02*
G01*
X261680722Y-80271191D01*
X262094833Y-81816672D01*
X260549352Y-82230783D01*
X260135241Y-80685302D01*
G37*
%TD*%
%TO.C,D90*%
G36*
G01*
X257949680Y-69437714D02*
X257949680Y-69437714D01*
G75*
G02*
X258929476Y-70003400I207055J-772741D01*
G01*
X258929476Y-70003400D01*
G75*
G02*
X258363790Y-70983196I-772741J-207055D01*
G01*
X258363790Y-70983196D01*
G75*
G02*
X257383994Y-70417510I-207055J772741D01*
G01*
X257383994Y-70417510D01*
G75*
G02*
X257949680Y-69437714I772741J207055D01*
G01*
G37*
G36*
X255204738Y-62284415D02*
G01*
X256750219Y-61870304D01*
X257164330Y-63415785D01*
X255618849Y-63829896D01*
X255204738Y-62284415D01*
G37*
%TD*%
%TO.C,D84*%
G36*
G01*
X266708915Y-146313900D02*
X266708915Y-146313900D01*
G75*
G02*
X267274601Y-145334104I772741J207055D01*
G01*
X267274601Y-145334104D01*
G75*
G02*
X268254397Y-145899790I207055J-772741D01*
G01*
X268254397Y-145899790D01*
G75*
G02*
X267688711Y-146879586I-772741J-207055D01*
G01*
X267688711Y-146879586D01*
G75*
G02*
X266708915Y-146313900I-207055J772741D01*
G01*
G37*
G36*
X259555616Y-149058842D02*
G01*
X259141505Y-147513361D01*
X260686986Y-147099250D01*
X261101097Y-148644731D01*
X259555616Y-149058842D01*
G37*
%TD*%
%TO.C,D83*%
G36*
G01*
X255162052Y-132637692D02*
X255162052Y-132637692D01*
G75*
G02*
X256141848Y-133203378I207055J-772741D01*
G01*
X256141848Y-133203378D01*
G75*
G02*
X255576162Y-134183174I-772741J-207055D01*
G01*
X255576162Y-134183174D01*
G75*
G02*
X254596366Y-133617488I-207055J772741D01*
G01*
X254596366Y-133617488D01*
G75*
G02*
X255162052Y-132637692I772741J207055D01*
G01*
G37*
G36*
X252417110Y-125484393D02*
G01*
X253962591Y-125070282D01*
X254376702Y-126615763D01*
X252831221Y-127029874D01*
X252417110Y-125484393D01*
G37*
%TD*%
%TO.C,D82*%
G36*
G01*
X250642425Y-115770212D02*
X250642425Y-115770212D01*
G75*
G02*
X251622221Y-116335898I207055J-772741D01*
G01*
X251622221Y-116335898D01*
G75*
G02*
X251056535Y-117315694I-772741J-207055D01*
G01*
X251056535Y-117315694D01*
G75*
G02*
X250076739Y-116750008I-207055J772741D01*
G01*
X250076739Y-116750008D01*
G75*
G02*
X250642425Y-115770212I772741J207055D01*
G01*
G37*
G36*
X247897483Y-108616913D02*
G01*
X249442964Y-108202802D01*
X249857075Y-109748283D01*
X248311594Y-110162394D01*
X247897483Y-108616913D01*
G37*
%TD*%
%TO.C,D81*%
G36*
G01*
X245711922Y-97369325D02*
X245711922Y-97369325D01*
G75*
G02*
X246691718Y-97935011I207055J-772741D01*
G01*
X246691718Y-97935011D01*
G75*
G02*
X246126032Y-98914807I-772741J-207055D01*
G01*
X246126032Y-98914807D01*
G75*
G02*
X245146236Y-98349121I-207055J772741D01*
G01*
X245146236Y-98349121D01*
G75*
G02*
X245711922Y-97369325I772741J207055D01*
G01*
G37*
G36*
X242966980Y-90216026D02*
G01*
X244512461Y-89801915D01*
X244926572Y-91347396D01*
X243381091Y-91761507D01*
X242966980Y-90216026D01*
G37*
%TD*%
%TO.C,D80*%
G36*
G01*
X240781419Y-78968438D02*
X240781419Y-78968438D01*
G75*
G02*
X241761215Y-79534124I207055J-772741D01*
G01*
X241761215Y-79534124D01*
G75*
G02*
X241195529Y-80513920I-772741J-207055D01*
G01*
X241195529Y-80513920D01*
G75*
G02*
X240215733Y-79948234I-207055J772741D01*
G01*
X240215733Y-79948234D01*
G75*
G02*
X240781419Y-78968438I772741J207055D01*
G01*
G37*
G36*
X238036477Y-71815139D02*
G01*
X239581958Y-71401028D01*
X239996069Y-72946509D01*
X238450588Y-73360620D01*
X238036477Y-71815139D01*
G37*
%TD*%
%TO.C,D74*%
G36*
G01*
X237502322Y-158735115D02*
X237502322Y-158735115D01*
G75*
G02*
X238482118Y-159300801I207055J-772741D01*
G01*
X238482118Y-159300801D01*
G75*
G02*
X237916432Y-160280597I-772741J-207055D01*
G01*
X237916432Y-160280597D01*
G75*
G02*
X236936636Y-159714911I-207055J772741D01*
G01*
X236936636Y-159714911D01*
G75*
G02*
X237502322Y-158735115I772741J207055D01*
G01*
G37*
G36*
X234757380Y-151581816D02*
G01*
X236302861Y-151167705D01*
X236716972Y-152713186D01*
X235171491Y-153127297D01*
X234757380Y-151581816D01*
G37*
%TD*%
%TO.C,D72*%
G36*
G01*
X232241538Y-120700715D02*
X232241538Y-120700715D01*
G75*
G02*
X233221334Y-121266401I207055J-772741D01*
G01*
X233221334Y-121266401D01*
G75*
G02*
X232655648Y-122246197I-772741J-207055D01*
G01*
X232655648Y-122246197D01*
G75*
G02*
X231675852Y-121680511I-207055J772741D01*
G01*
X231675852Y-121680511D01*
G75*
G02*
X232241538Y-120700715I772741J207055D01*
G01*
G37*
G36*
X229496596Y-113547416D02*
G01*
X231042077Y-113133305D01*
X231456188Y-114678786D01*
X229910707Y-115092897D01*
X229496596Y-113547416D01*
G37*
%TD*%
%TO.C,D71*%
G36*
G01*
X227311035Y-102299828D02*
X227311035Y-102299828D01*
G75*
G02*
X228290831Y-102865514I207055J-772741D01*
G01*
X228290831Y-102865514D01*
G75*
G02*
X227725145Y-103845310I-772741J-207055D01*
G01*
X227725145Y-103845310D01*
G75*
G02*
X226745349Y-103279624I-207055J772741D01*
G01*
X226745349Y-103279624D01*
G75*
G02*
X227311035Y-102299828I772741J207055D01*
G01*
G37*
G36*
X224566093Y-95146529D02*
G01*
X226111574Y-94732418D01*
X226525685Y-96277899D01*
X224980204Y-96692010D01*
X224566093Y-95146529D01*
G37*
%TD*%
%TO.C,D70*%
G36*
G01*
X222380532Y-83898941D02*
X222380532Y-83898941D01*
G75*
G02*
X223360328Y-84464627I207055J-772741D01*
G01*
X223360328Y-84464627D01*
G75*
G02*
X222794642Y-85444423I-772741J-207055D01*
G01*
X222794642Y-85444423D01*
G75*
G02*
X221814846Y-84878737I-207055J772741D01*
G01*
X221814846Y-84878737D01*
G75*
G02*
X222380532Y-83898941I772741J207055D01*
G01*
G37*
G36*
X219635590Y-76745642D02*
G01*
X221181071Y-76331531D01*
X221595182Y-77877012D01*
X220049701Y-78291123D01*
X219635590Y-76745642D01*
G37*
%TD*%
%TO.C,D64*%
G36*
G01*
X191124978Y-158717645D02*
X191124978Y-158717645D01*
G75*
G02*
X191690664Y-159697441I-207055J-772741D01*
G01*
X191690664Y-159697441D01*
G75*
G02*
X190710868Y-160263127I-772741J207055D01*
G01*
X190710868Y-160263127D01*
G75*
G02*
X190145182Y-159283331I207055J772741D01*
G01*
X190145182Y-159283331D01*
G75*
G02*
X191124978Y-158717645I772741J-207055D01*
G01*
G37*
G36*
X192324439Y-151150235D02*
G01*
X193869920Y-151564346D01*
X193455809Y-153109827D01*
X191910328Y-152695716D01*
X192324439Y-151150235D01*
G37*
%TD*%
%TO.C,D62*%
G36*
G01*
X196385762Y-120683245D02*
X196385762Y-120683245D01*
G75*
G02*
X196951448Y-121663041I-207055J-772741D01*
G01*
X196951448Y-121663041D01*
G75*
G02*
X195971652Y-122228727I-772741J207055D01*
G01*
X195971652Y-122228727D01*
G75*
G02*
X195405966Y-121248931I207055J772741D01*
G01*
X195405966Y-121248931D01*
G75*
G02*
X196385762Y-120683245I772741J-207055D01*
G01*
G37*
G36*
X197585223Y-113115835D02*
G01*
X199130704Y-113529946D01*
X198716593Y-115075427D01*
X197171112Y-114661316D01*
X197585223Y-113115835D01*
G37*
%TD*%
%TO.C,D61*%
G36*
G01*
X201316265Y-102282358D02*
X201316265Y-102282358D01*
G75*
G02*
X201881951Y-103262154I-207055J-772741D01*
G01*
X201881951Y-103262154D01*
G75*
G02*
X200902155Y-103827840I-772741J207055D01*
G01*
X200902155Y-103827840D01*
G75*
G02*
X200336469Y-102848044I207055J772741D01*
G01*
X200336469Y-102848044D01*
G75*
G02*
X201316265Y-102282358I772741J-207055D01*
G01*
G37*
G36*
X202515726Y-94714948D02*
G01*
X204061207Y-95129059D01*
X203647096Y-96674540D01*
X202101615Y-96260429D01*
X202515726Y-94714948D01*
G37*
%TD*%
%TO.C,D60*%
G36*
G01*
X206246768Y-83881471D02*
X206246768Y-83881471D01*
G75*
G02*
X206812454Y-84861267I-207055J-772741D01*
G01*
X206812454Y-84861267D01*
G75*
G02*
X205832658Y-85426953I-772741J207055D01*
G01*
X205832658Y-85426953D01*
G75*
G02*
X205266972Y-84447157I207055J772741D01*
G01*
X205266972Y-84447157D01*
G75*
G02*
X206246768Y-83881471I772741J-207055D01*
G01*
G37*
G36*
X207446229Y-76314061D02*
G01*
X208991710Y-76728172D01*
X208577599Y-78273653D01*
X207032118Y-77859542D01*
X207446229Y-76314061D01*
G37*
%TD*%
%TO.C,D54*%
G36*
G01*
X172518654Y-154553846D02*
X172518654Y-154553846D01*
G75*
G02*
X173084340Y-155533642I-207055J-772741D01*
G01*
X173084340Y-155533642D01*
G75*
G02*
X172104544Y-156099328I-772741J207055D01*
G01*
X172104544Y-156099328D01*
G75*
G02*
X171538858Y-155119532I207055J772741D01*
G01*
X171538858Y-155119532D01*
G75*
G02*
X172518654Y-154553846I772741J-207055D01*
G01*
G37*
G36*
X173718115Y-146986436D02*
G01*
X175263596Y-147400547D01*
X174849485Y-148946028D01*
X173304004Y-148531917D01*
X173718115Y-146986436D01*
G37*
%TD*%
%TO.C,D53*%
G36*
G01*
X173821076Y-134359067D02*
X173821076Y-134359067D01*
G75*
G02*
X174386762Y-135338863I-207055J-772741D01*
G01*
X174386762Y-135338863D01*
G75*
G02*
X173406966Y-135904549I-772741J207055D01*
G01*
X173406966Y-135904549D01*
G75*
G02*
X172841280Y-134924753I207055J772741D01*
G01*
X172841280Y-134924753D01*
G75*
G02*
X173821076Y-134359067I772741J-207055D01*
G01*
G37*
G36*
X175020537Y-126791657D02*
G01*
X176566018Y-127205768D01*
X176151907Y-128751249D01*
X174606426Y-128337138D01*
X175020537Y-126791657D01*
G37*
%TD*%
%TO.C,D52*%
G36*
G01*
X177984875Y-115752742D02*
X177984875Y-115752742D01*
G75*
G02*
X178550561Y-116732538I-207055J-772741D01*
G01*
X178550561Y-116732538D01*
G75*
G02*
X177570765Y-117298224I-772741J207055D01*
G01*
X177570765Y-117298224D01*
G75*
G02*
X177005079Y-116318428I207055J772741D01*
G01*
X177005079Y-116318428D01*
G75*
G02*
X177984875Y-115752742I772741J-207055D01*
G01*
G37*
G36*
X179184336Y-108185332D02*
G01*
X180729817Y-108599443D01*
X180315706Y-110144924D01*
X178770225Y-109730813D01*
X179184336Y-108185332D01*
G37*
%TD*%
%TO.C,D51*%
G36*
G01*
X182915378Y-97351855D02*
X182915378Y-97351855D01*
G75*
G02*
X183481064Y-98331651I-207055J-772741D01*
G01*
X183481064Y-98331651D01*
G75*
G02*
X182501268Y-98897337I-772741J207055D01*
G01*
X182501268Y-98897337D01*
G75*
G02*
X181935582Y-97917541I207055J772741D01*
G01*
X181935582Y-97917541D01*
G75*
G02*
X182915378Y-97351855I772741J-207055D01*
G01*
G37*
G36*
X184114839Y-89784445D02*
G01*
X185660320Y-90198556D01*
X185246209Y-91744037D01*
X183700728Y-91329926D01*
X184114839Y-89784445D01*
G37*
%TD*%
%TO.C,D50*%
G36*
G01*
X187845881Y-78950968D02*
X187845881Y-78950968D01*
G75*
G02*
X188411567Y-79930764I-207055J-772741D01*
G01*
X188411567Y-79930764D01*
G75*
G02*
X187431771Y-80496450I-772741J207055D01*
G01*
X187431771Y-80496450D01*
G75*
G02*
X186866085Y-79516654I207055J772741D01*
G01*
X186866085Y-79516654D01*
G75*
G02*
X187845881Y-78950968I772741J-207055D01*
G01*
G37*
G36*
X189045342Y-71383558D02*
G01*
X190590823Y-71797669D01*
X190176712Y-73343150D01*
X188631231Y-72929039D01*
X189045342Y-71383558D01*
G37*
%TD*%
%TO.C,D44*%
G36*
G01*
X150830765Y-161890601D02*
X150830765Y-161890601D01*
G75*
G02*
X151396451Y-162870397I-207055J-772741D01*
G01*
X151396451Y-162870397D01*
G75*
G02*
X150416655Y-163436083I-772741J207055D01*
G01*
X150416655Y-163436083D01*
G75*
G02*
X149850969Y-162456287I207055J772741D01*
G01*
X149850969Y-162456287D01*
G75*
G02*
X150830765Y-161890601I772741J-207055D01*
G01*
G37*
G36*
X152030226Y-154323191D02*
G01*
X153575707Y-154737302D01*
X153161596Y-156282783D01*
X151616115Y-155868672D01*
X152030226Y-154323191D01*
G37*
%TD*%
%TO.C,D43*%
G36*
G01*
X155886111Y-124622905D02*
X155886111Y-124622905D01*
G75*
G02*
X156451797Y-125602701I-207055J-772741D01*
G01*
X156451797Y-125602701D01*
G75*
G02*
X155472001Y-126168387I-772741J207055D01*
G01*
X155472001Y-126168387D01*
G75*
G02*
X154906315Y-125188591I207055J772741D01*
G01*
X154906315Y-125188591D01*
G75*
G02*
X155886111Y-124622905I772741J-207055D01*
G01*
G37*
G36*
X157085572Y-117055495D02*
G01*
X158631053Y-117469606D01*
X158216942Y-119015087D01*
X156671461Y-118600976D01*
X157085572Y-117055495D01*
G37*
%TD*%
%TO.C,D42*%
G36*
G01*
X160816614Y-106222018D02*
X160816614Y-106222018D01*
G75*
G02*
X161382300Y-107201814I-207055J-772741D01*
G01*
X161382300Y-107201814D01*
G75*
G02*
X160402504Y-107767500I-772741J207055D01*
G01*
X160402504Y-107767500D01*
G75*
G02*
X159836818Y-106787704I207055J772741D01*
G01*
X159836818Y-106787704D01*
G75*
G02*
X160816614Y-106222018I772741J-207055D01*
G01*
G37*
G36*
X162016075Y-98654608D02*
G01*
X163561556Y-99068719D01*
X163147445Y-100614200D01*
X161601964Y-100200089D01*
X162016075Y-98654608D01*
G37*
%TD*%
%TO.C,D41*%
G36*
G01*
X165747117Y-87821131D02*
X165747117Y-87821131D01*
G75*
G02*
X166312803Y-88800927I-207055J-772741D01*
G01*
X166312803Y-88800927D01*
G75*
G02*
X165333007Y-89366613I-772741J207055D01*
G01*
X165333007Y-89366613D01*
G75*
G02*
X164767321Y-88386817I207055J772741D01*
G01*
X164767321Y-88386817D01*
G75*
G02*
X165747117Y-87821131I772741J-207055D01*
G01*
G37*
G36*
X166946578Y-80253721D02*
G01*
X168492059Y-80667832D01*
X168077948Y-82213313D01*
X166532467Y-81799202D01*
X166946578Y-80253721D01*
G37*
%TD*%
%TO.C,D40*%
G36*
G01*
X170677619Y-69420244D02*
X170677619Y-69420244D01*
G75*
G02*
X171243305Y-70400040I-207055J-772741D01*
G01*
X171243305Y-70400040D01*
G75*
G02*
X170263509Y-70965726I-772741J207055D01*
G01*
X170263509Y-70965726D01*
G75*
G02*
X169697823Y-69985930I207055J772741D01*
G01*
X169697823Y-69985930D01*
G75*
G02*
X170677619Y-69420244I772741J-207055D01*
G01*
G37*
G36*
X171877080Y-61852834D02*
G01*
X173422561Y-62266945D01*
X173008450Y-63812426D01*
X171462969Y-63398315D01*
X171877080Y-61852834D01*
G37*
%TD*%
%TO.C,D34*%
G36*
G01*
X156620871Y-140281633D02*
X156620871Y-140281633D01*
G75*
G02*
X156055185Y-139301837I207055J772741D01*
G01*
X156055185Y-139301837D01*
G75*
G02*
X157034981Y-138736151I772741J-207055D01*
G01*
X157034981Y-138736151D01*
G75*
G02*
X157600667Y-139715947I-207055J-772741D01*
G01*
X157600667Y-139715947D01*
G75*
G02*
X156620871Y-140281633I-772741J207055D01*
G01*
G37*
G36*
X155421410Y-147849043D02*
G01*
X153875929Y-147434932D01*
X154290040Y-145889451D01*
X155835521Y-146303562D01*
X155421410Y-147849043D01*
G37*
%TD*%
%TO.C,D33*%
G36*
G01*
X138717850Y-115092180D02*
X138717850Y-115092180D01*
G75*
G02*
X139283536Y-116071976I-207055J-772741D01*
G01*
X139283536Y-116071976D01*
G75*
G02*
X138303740Y-116637662I-772741J207055D01*
G01*
X138303740Y-116637662D01*
G75*
G02*
X137738054Y-115657866I207055J772741D01*
G01*
X137738054Y-115657866D01*
G75*
G02*
X138717850Y-115092180I772741J-207055D01*
G01*
G37*
G36*
X139917311Y-107524770D02*
G01*
X141462792Y-107938881D01*
X141048681Y-109484362D01*
X139503200Y-109070251D01*
X139917311Y-107524770D01*
G37*
%TD*%
%TO.C,D32*%
G36*
G01*
X143648353Y-96691293D02*
X143648353Y-96691293D01*
G75*
G02*
X144214039Y-97671089I-207055J-772741D01*
G01*
X144214039Y-97671089D01*
G75*
G02*
X143234243Y-98236775I-772741J207055D01*
G01*
X143234243Y-98236775D01*
G75*
G02*
X142668557Y-97256979I207055J772741D01*
G01*
X142668557Y-97256979D01*
G75*
G02*
X143648353Y-96691293I772741J-207055D01*
G01*
G37*
G36*
X144847814Y-89123883D02*
G01*
X146393295Y-89537994D01*
X145979184Y-91083475D01*
X144433703Y-90669364D01*
X144847814Y-89123883D01*
G37*
%TD*%
%TO.C,D31*%
G36*
G01*
X148578855Y-78290406D02*
X148578855Y-78290406D01*
G75*
G02*
X149144541Y-79270202I-207055J-772741D01*
G01*
X149144541Y-79270202D01*
G75*
G02*
X148164745Y-79835888I-772741J207055D01*
G01*
X148164745Y-79835888D01*
G75*
G02*
X147599059Y-78856092I207055J772741D01*
G01*
X147599059Y-78856092D01*
G75*
G02*
X148578855Y-78290406I772741J-207055D01*
G01*
G37*
G36*
X149778316Y-70722996D02*
G01*
X151323797Y-71137107D01*
X150909686Y-72682588D01*
X149364205Y-72268477D01*
X149778316Y-70722996D01*
G37*
%TD*%
%TO.C,D30*%
G36*
G01*
X153509358Y-59889519D02*
X153509358Y-59889519D01*
G75*
G02*
X154075044Y-60869315I-207055J-772741D01*
G01*
X154075044Y-60869315D01*
G75*
G02*
X153095248Y-61435001I-772741J207055D01*
G01*
X153095248Y-61435001D01*
G75*
G02*
X152529562Y-60455205I207055J772741D01*
G01*
X152529562Y-60455205D01*
G75*
G02*
X153509358Y-59889519I772741J-207055D01*
G01*
G37*
G36*
X154708819Y-52322109D02*
G01*
X156254300Y-52736220D01*
X155840189Y-54281701D01*
X154294708Y-53867590D01*
X154708819Y-52322109D01*
G37*
%TD*%
%TO.C,D23*%
G36*
G01*
X120316963Y-110161677D02*
X120316963Y-110161677D01*
G75*
G02*
X120882649Y-111141473I-207055J-772741D01*
G01*
X120882649Y-111141473D01*
G75*
G02*
X119902853Y-111707159I-772741J207055D01*
G01*
X119902853Y-111707159D01*
G75*
G02*
X119337167Y-110727363I207055J772741D01*
G01*
X119337167Y-110727363D01*
G75*
G02*
X120316963Y-110161677I772741J-207055D01*
G01*
G37*
G36*
X121516424Y-102594267D02*
G01*
X123061905Y-103008378D01*
X122647794Y-104553859D01*
X121102313Y-104139748D01*
X121516424Y-102594267D01*
G37*
%TD*%
%TO.C,D22*%
G36*
G01*
X125247466Y-91760790D02*
X125247466Y-91760790D01*
G75*
G02*
X125813152Y-92740586I-207055J-772741D01*
G01*
X125813152Y-92740586D01*
G75*
G02*
X124833356Y-93306272I-772741J207055D01*
G01*
X124833356Y-93306272D01*
G75*
G02*
X124267670Y-92326476I207055J772741D01*
G01*
X124267670Y-92326476D01*
G75*
G02*
X125247466Y-91760790I772741J-207055D01*
G01*
G37*
G36*
X126446927Y-84193380D02*
G01*
X127992408Y-84607491D01*
X127578297Y-86152972D01*
X126032816Y-85738861D01*
X126446927Y-84193380D01*
G37*
%TD*%
%TO.C,D21*%
G36*
G01*
X130177968Y-73359903D02*
X130177968Y-73359903D01*
G75*
G02*
X130743654Y-74339699I-207055J-772741D01*
G01*
X130743654Y-74339699D01*
G75*
G02*
X129763858Y-74905385I-772741J207055D01*
G01*
X129763858Y-74905385D01*
G75*
G02*
X129198172Y-73925589I207055J772741D01*
G01*
X129198172Y-73925589D01*
G75*
G02*
X130177968Y-73359903I772741J-207055D01*
G01*
G37*
G36*
X131377429Y-65792493D02*
G01*
X132922910Y-66206604D01*
X132508799Y-67752085D01*
X130963318Y-67337974D01*
X131377429Y-65792493D01*
G37*
%TD*%
%TO.C,D20*%
G36*
G01*
X135108471Y-54959016D02*
X135108471Y-54959016D01*
G75*
G02*
X135674157Y-55938812I-207055J-772741D01*
G01*
X135674157Y-55938812D01*
G75*
G02*
X134694361Y-56504498I-772741J207055D01*
G01*
X134694361Y-56504498D01*
G75*
G02*
X134128675Y-55524702I207055J772741D01*
G01*
X134128675Y-55524702D01*
G75*
G02*
X135108471Y-54959016I772741J-207055D01*
G01*
G37*
G36*
X136307932Y-47391606D02*
G01*
X137853413Y-47805717D01*
X137439302Y-49351198D01*
X135893821Y-48937087D01*
X136307932Y-47391606D01*
G37*
%TD*%
%TO.C,D13*%
G36*
G01*
X100683450Y-109831396D02*
X100683450Y-109831396D01*
G75*
G02*
X101249136Y-110811192I-207055J-772741D01*
G01*
X101249136Y-110811192D01*
G75*
G02*
X100269340Y-111376878I-772741J207055D01*
G01*
X100269340Y-111376878D01*
G75*
G02*
X99703654Y-110397082I207055J772741D01*
G01*
X99703654Y-110397082D01*
G75*
G02*
X100683450Y-109831396I772741J-207055D01*
G01*
G37*
G36*
X101882911Y-102263986D02*
G01*
X103428392Y-102678097D01*
X103014281Y-104223578D01*
X101468800Y-103809467D01*
X101882911Y-102263986D01*
G37*
%TD*%
%TO.C,D12*%
G36*
G01*
X105613953Y-91430509D02*
X105613953Y-91430509D01*
G75*
G02*
X106179639Y-92410305I-207055J-772741D01*
G01*
X106179639Y-92410305D01*
G75*
G02*
X105199843Y-92975991I-772741J207055D01*
G01*
X105199843Y-92975991D01*
G75*
G02*
X104634157Y-91996195I207055J772741D01*
G01*
X104634157Y-91996195D01*
G75*
G02*
X105613953Y-91430509I772741J-207055D01*
G01*
G37*
G36*
X106813414Y-83863099D02*
G01*
X108358895Y-84277210D01*
X107944784Y-85822691D01*
X106399303Y-85408580D01*
X106813414Y-83863099D01*
G37*
%TD*%
%TO.C,D11*%
G36*
G01*
X110544456Y-73029622D02*
X110544456Y-73029622D01*
G75*
G02*
X111110142Y-74009418I-207055J-772741D01*
G01*
X111110142Y-74009418D01*
G75*
G02*
X110130346Y-74575104I-772741J207055D01*
G01*
X110130346Y-74575104D01*
G75*
G02*
X109564660Y-73595308I207055J772741D01*
G01*
X109564660Y-73595308D01*
G75*
G02*
X110544456Y-73029622I772741J-207055D01*
G01*
G37*
G36*
X111743917Y-65462212D02*
G01*
X113289398Y-65876323D01*
X112875287Y-67421804D01*
X111329806Y-67007693D01*
X111743917Y-65462212D01*
G37*
%TD*%
%TO.C,D10*%
G36*
G01*
X115474959Y-54628735D02*
X115474959Y-54628735D01*
G75*
G02*
X116040645Y-55608531I-207055J-772741D01*
G01*
X116040645Y-55608531D01*
G75*
G02*
X115060849Y-56174217I-772741J207055D01*
G01*
X115060849Y-56174217D01*
G75*
G02*
X114495163Y-55194421I207055J772741D01*
G01*
X114495163Y-55194421D01*
G75*
G02*
X115474959Y-54628735I772741J-207055D01*
G01*
G37*
G36*
X116674420Y-47061325D02*
G01*
X118219901Y-47475436D01*
X117805790Y-49020917D01*
X116260309Y-48606806D01*
X116674420Y-47061325D01*
G37*
%TD*%
%TO.C,D4*%
G36*
G01*
X76119435Y-127902002D02*
X76119435Y-127902002D01*
G75*
G02*
X76685121Y-128881798I-207055J-772741D01*
G01*
X76685121Y-128881798D01*
G75*
G02*
X75705325Y-129447484I-772741J207055D01*
G01*
X75705325Y-129447484D01*
G75*
G02*
X75139639Y-128467688I207055J772741D01*
G01*
X75139639Y-128467688D01*
G75*
G02*
X76119435Y-127902002I772741J-207055D01*
G01*
G37*
G36*
X77318896Y-120334592D02*
G01*
X78864377Y-120748703D01*
X78450266Y-122294184D01*
X76904785Y-121880073D01*
X77318896Y-120334592D01*
G37*
%TD*%
%TO.C,D3*%
G36*
G01*
X78749827Y-108884802D02*
X78749827Y-108884802D01*
G75*
G02*
X79315513Y-109864598I-207055J-772741D01*
G01*
X79315513Y-109864598D01*
G75*
G02*
X78335717Y-110430284I-772741J207055D01*
G01*
X78335717Y-110430284D01*
G75*
G02*
X77770031Y-109450488I207055J772741D01*
G01*
X77770031Y-109450488D01*
G75*
G02*
X78749827Y-108884802I772741J-207055D01*
G01*
G37*
G36*
X79949288Y-101317392D02*
G01*
X81494769Y-101731503D01*
X81080658Y-103276984D01*
X79535177Y-102862873D01*
X79949288Y-101317392D01*
G37*
%TD*%
%TO.C,D2*%
G36*
G01*
X82146922Y-90073040D02*
X82146922Y-90073040D01*
G75*
G02*
X82712608Y-91052836I-207055J-772741D01*
G01*
X82712608Y-91052836D01*
G75*
G02*
X81732812Y-91618522I-772741J207055D01*
G01*
X81732812Y-91618522D01*
G75*
G02*
X81167126Y-90638726I207055J772741D01*
G01*
X81167126Y-90638726D01*
G75*
G02*
X82146922Y-90073040I772741J-207055D01*
G01*
G37*
G36*
X83346383Y-82505630D02*
G01*
X84891864Y-82919741D01*
X84477753Y-84465222D01*
X82932272Y-84051111D01*
X83346383Y-82505630D01*
G37*
%TD*%
%TO.C,D1*%
G36*
G01*
X89377536Y-72288466D02*
X89377536Y-72288466D01*
G75*
G02*
X89943222Y-73268262I-207055J-772741D01*
G01*
X89943222Y-73268262D01*
G75*
G02*
X88963426Y-73833948I-772741J207055D01*
G01*
X88963426Y-73833948D01*
G75*
G02*
X88397740Y-72854152I207055J772741D01*
G01*
X88397740Y-72854152D01*
G75*
G02*
X89377536Y-72288466I772741J-207055D01*
G01*
G37*
G36*
X90576997Y-64721056D02*
G01*
X92122478Y-65135167D01*
X91708367Y-66680648D01*
X90162886Y-66266537D01*
X90576997Y-64721056D01*
G37*
%TD*%
%TO.C,D0*%
G36*
G01*
X95841446Y-54298454D02*
X95841446Y-54298454D01*
G75*
G02*
X96407132Y-55278250I-207055J-772741D01*
G01*
X96407132Y-55278250D01*
G75*
G02*
X95427336Y-55843936I-772741J207055D01*
G01*
X95427336Y-55843936D01*
G75*
G02*
X94861650Y-54864140I207055J772741D01*
G01*
X94861650Y-54864140D01*
G75*
G02*
X95841446Y-54298454I772741J-207055D01*
G01*
G37*
G36*
X97040907Y-46731044D02*
G01*
X98586388Y-47145155D01*
X98172277Y-48690636D01*
X96626796Y-48276525D01*
X97040907Y-46731044D01*
G37*
%TD*%
M02*
