M48
; DRILL file {KiCad (5.1.9)-1} date 03/20/22 18:05:28
; FORMAT={-:-/ absolute / inch / decimal}
; #@! TF.CreationDate,2022-03-20T18:05:28-04:00
; #@! TF.GenerationSoftware,Kicad,Pcbnew,(5.1.9)-1
; #@! TF.FileFunction,NonPlated,1,2,NPTH
FMAT,2
INCH
T1C0.0472
T2C0.0689
T3C0.1200
T4C0.1570
%
G90
G05
T1
X9.7234Y-1.7024
T2
X2.1633Y-4.1136
X2.3314Y-4.9351
X2.5385Y-3.4377
X2.5497Y-4.2171
X2.7178Y-5.0386
X2.8232Y-2.7375
X2.9249Y-3.5412
X3.1984Y-2.0616
X3.2095Y-2.841
X3.389Y-4.2479
X3.5831Y-3.5235
X3.5848Y-2.1651
X3.7754Y-4.3515
X3.7773Y-2.799
X3.9695Y-3.627
X3.9714Y-2.0746
X4.162Y-4.2609
X4.1636Y-2.9026
X4.3561Y-3.5365
X4.3577Y-2.1781
X4.5484Y-4.3645
X4.5502Y-2.812
X4.7425Y-3.64
X4.7443Y-2.0876
X4.935Y-4.2739
X4.9366Y-2.9156
X5.1291Y-3.5495
X5.1307Y-2.1911
X5.2647Y-6.3034
X5.3213Y-4.3775
X5.3232Y-2.825
X5.4588Y-5.579
X5.5155Y-3.653
X5.5173Y-2.1006
X5.6109Y-4.6492
X5.6511Y-6.407
X5.7096Y-2.9286
X5.805Y-3.9247
X5.8452Y-5.6825
X5.9037Y-2.2041
X5.9973Y-4.7527
X5.9991Y-3.2003
X6.1768Y-6.1596
X6.1914Y-4.0282
X6.1932Y-2.4758
X6.2868Y-5.0244
X6.3855Y-3.3038
X6.4809Y-4.2999
X6.5631Y-6.2631
X6.5796Y-2.5794
X6.6732Y-5.1279
X6.675Y-3.5755
X6.8673Y-4.4035
X6.8692Y-2.8511
X6.9497Y-6.1726
X7.0614Y-3.679
X7.1568Y-4.6752
X7.2555Y-2.9546
X7.3361Y-6.2761
X7.351Y-3.9507
X7.5432Y-4.7787
X7.5451Y-3.2263
X7.7373Y-4.0543
X7.9314Y-3.3298
X8.9437Y-3.3305
X9.1378Y-4.0549
X9.33Y-3.227
X9.3319Y-4.7794
X9.5241Y-3.9514
X9.539Y-6.2768
X9.6196Y-2.9553
X9.7183Y-4.6759
X9.8137Y-3.6797
X9.9254Y-6.1733
X10.0059Y-2.8517
X10.0078Y-4.4042
X10.2001Y-3.5762
X10.2019Y-5.1286
X10.2955Y-2.58
X10.312Y-6.2638
X10.3942Y-4.3006
X10.4896Y-3.3045
X10.5883Y-5.0251
X10.6819Y-2.4765
X10.6837Y-4.0289
X10.6983Y-6.1603
X10.876Y-3.201
X10.8778Y-4.7534
X10.9714Y-2.2048
X11.0299Y-5.6832
X11.0701Y-3.9254
X11.1655Y-2.9293
X11.224Y-6.4076
X11.2642Y-4.6499
X11.3578Y-2.1013
X11.3596Y-3.6537
X11.4163Y-5.5797
X11.5519Y-2.8257
X11.5537Y-4.3782
X11.6104Y-6.3041
X11.7444Y-2.1918
X11.746Y-3.5502
X11.9385Y-2.9163
X11.9401Y-4.2746
X12.1307Y-2.0883
X12.1326Y-3.6407
X12.3249Y-2.8127
X12.3267Y-4.3652
X12.5173Y-2.1788
X12.519Y-3.5372
X12.7115Y-2.9033
X12.7131Y-4.2616
X12.9037Y-2.0753
X12.9056Y-3.6277
X13.0978Y-2.7997
X13.0997Y-4.3521
X13.2903Y-2.1658
X13.2919Y-3.5242
X13.4861Y-4.2486
X13.6767Y-2.0623
X13.8467Y-2.7932
X14.1313Y-3.4934
X14.1443Y-4.2664
X14.1573Y-5.0393
X14.233Y-2.6897
X14.5177Y-3.3899
X14.5307Y-4.1628
X14.5437Y-4.9358
T3
X1.9737Y-3.7781
X2.8816Y-4.0214
X13.5147Y-2.5974
X13.7993Y-3.2976
X14.4226Y-2.3542
X14.7073Y-3.0543
T4
X1.8184Y-4.3577
X2.3565Y-4.1654
X2.5246Y-4.9869
X2.7263Y-4.6009
X2.7317Y-3.4895
X3.0164Y-2.7893
X3.3916Y-2.1134
X3.5822Y-4.2997
X3.7763Y-3.5753
X3.9704Y-2.8508
X4.1646Y-2.1264
X4.3552Y-4.3127
X4.5493Y-3.5883
X4.7434Y-2.8638
X4.9375Y-2.1394
X5.1282Y-4.3257
X5.3223Y-3.6013
X5.4579Y-6.3552
X5.5164Y-2.8768
X5.652Y-5.6307
X5.7105Y-2.1524
X5.8041Y-4.7009
X5.9982Y-3.9765
X6.1923Y-3.252
X6.3699Y-6.2113
X6.3864Y-2.5276
X6.48Y-5.0762
X6.6741Y-4.3517
X6.8682Y-3.6273
X7.0623Y-2.9028
X7.1429Y-6.2244
X7.35Y-4.7269
X7.5441Y-4.0025
X7.7383Y-3.278
X9.1368Y-3.2787
X9.331Y-4.0032
X9.5251Y-4.7276
X9.7322Y-6.225
X9.8128Y-2.9035
X10.0069Y-3.628
X10.201Y-4.3524
X10.3951Y-5.0768
X10.4887Y-2.5283
X10.5052Y-6.212
X10.6828Y-3.2527
X10.8769Y-3.9772
X11.071Y-4.7016
X11.1646Y-2.1531
X11.2231Y-5.6314
X11.3587Y-2.8775
X11.4172Y-6.3559
X11.5528Y-3.6019
X11.7469Y-4.3264
X11.9376Y-2.1401
X12.1317Y-2.8645
X12.3258Y-3.5889
X12.5199Y-4.3134
X12.7105Y-2.1271
X12.9046Y-2.8515
X13.0988Y-3.5759
X13.2929Y-4.3004
X13.4835Y-2.114
X13.67Y-3.177
X13.9546Y-3.8772
X14.0398Y-2.7414
X14.3245Y-3.4416
X14.3375Y-4.2146
X14.3505Y-4.9876
X14.5779Y-2.9337
X14.8626Y-3.6339
T0
M30
