%TF.GenerationSoftware,KiCad,Pcbnew,(5.1.9)-1*%
%TF.CreationDate,2022-03-20T18:05:12-04:00*%
%TF.ProjectId,essence-pcb-rev_1,65737365-6e63-4652-9d70-63622d726576,rev?*%
%TF.SameCoordinates,Original*%
%TF.FileFunction,Profile,NP*%
%FSLAX46Y46*%
G04 Gerber Fmt 4.6, Leading zero omitted, Abs format (unit mm)*
G04 Created by KiCad (PCBNEW (5.1.9)-1) date 2022-03-20 18:05:12*
%MOMM*%
%LPD*%
G01*
G04 APERTURE LIST*
%TA.AperFunction,Profile*%
%ADD10C,0.050000*%
%TD*%
G04 APERTURE END LIST*
D10*
X229393750Y-41275000D02*
X349250000Y-41275000D01*
X227012500Y-33337500D02*
X227012500Y-38893750D01*
X203993750Y-30956250D02*
X224631250Y-30956250D01*
X201612500Y-38893750D02*
X201612500Y-33337500D01*
X199231250Y-41275000D02*
X79375000Y-41275000D01*
X307181250Y-139700000D02*
X354806250Y-139700000D01*
X304800000Y-173037500D02*
X304800000Y-142081250D01*
X126206250Y-175418750D02*
X302418750Y-175418750D01*
X121443750Y-139700000D02*
X73025000Y-139700000D01*
X123825000Y-173037500D02*
X123825000Y-142081250D01*
X304800000Y-173037500D02*
G75*
G02*
X302418750Y-175418750I-2381250J0D01*
G01*
X304800000Y-142081250D02*
G75*
G02*
X307181250Y-139700000I2381250J0D01*
G01*
X229393750Y-41275000D02*
G75*
G02*
X227012500Y-38893750I0J2381250D01*
G01*
X224631250Y-30956250D02*
G75*
G02*
X227012500Y-33337500I0J-2381250D01*
G01*
X201612500Y-33337500D02*
G75*
G02*
X203993750Y-30956250I2381250J0D01*
G01*
X201612500Y-38893750D02*
G75*
G02*
X199231250Y-41275000I-2381250J0D01*
G01*
X49212500Y-133350000D02*
X35718750Y-111918750D01*
X121443750Y-139700000D02*
G75*
G02*
X123825000Y-142081250I0J-2381250D01*
G01*
X126206250Y-175418750D02*
G75*
G02*
X123825000Y-173037500I0J2381250D01*
G01*
X35718750Y-63500000D02*
X35718750Y-111918750D01*
X79375000Y-41275000D02*
X35718750Y-63500000D01*
X73025000Y-139700000D02*
X49212500Y-133350000D01*
X378618750Y-133350000D02*
X354806250Y-139700000D01*
X388143750Y-111918750D02*
X378618750Y-133350000D01*
X388143750Y-63500000D02*
X388143750Y-111918750D01*
X349250000Y-41275000D02*
X388143750Y-63500000D01*
M02*
