M48
; DRILL file {KiCad (5.1.9)-1} date 03/20/22 18:05:28
; FORMAT={-:-/ absolute / inch / decimal}
; #@! TF.CreationDate,2022-03-20T18:05:28-04:00
; #@! TF.GenerationSoftware,Kicad,Pcbnew,(5.1.9)-1
; #@! TF.FileFunction,Plated,1,2,PTH
FMAT,2
INCH
T1C0.0157
T2C0.0315
T3C0.0390
T4C0.0394
T5C0.0409
T6C0.0430
T7C0.0512
T8C0.0579
T9C0.0591
%
G90
G05
T1
X7.7812Y-4.9375
X8.9062Y-2.7188
T2
X2.9887Y-5.0659
X3.0663Y-4.7762
X3.0922Y-4.3172
X3.1699Y-4.0274
X3.226Y-3.5766
X3.3036Y-3.2868
X3.5106Y-2.8764
X3.5883Y-2.5866
X3.7651Y-2.1682
X3.8428Y-1.8784
X3.9558Y-4.3545
X4.0334Y-4.0647
X4.1499Y-3.63
X4.2275Y-3.3403
X4.344Y-2.9056
X4.4216Y-2.6158
X4.5381Y-2.1812
X4.6158Y-1.8914
X4.7287Y-4.3675
X4.8064Y-4.0777
X4.9229Y-3.6431
X5.0005Y-3.3533
X5.117Y-2.9186
X5.1946Y-2.6288
X5.3111Y-2.1942
X5.3887Y-1.9044
X5.4532Y-4.5616
X5.5308Y-4.2718
X5.6473Y-3.8372
X5.7249Y-3.5474
X5.8414Y-3.1127
X5.9191Y-2.8229
X5.9301Y-6.4041
X6.0077Y-6.1143
X6.0355Y-2.3883
X6.0967Y-5.7823
X6.1132Y-2.0985
X6.1291Y-4.9368
X6.1743Y-5.4925
X6.2067Y-4.6471
X6.3232Y-4.2124
X6.4009Y-3.9226
X6.5173Y-3.4879
X6.595Y-3.1982
X6.7114Y-2.7635
X6.7839Y-6.1152
X6.7891Y-2.4737
X6.8352Y-5.3201
X6.8616Y-5.8254
X6.9128Y-5.0304
X6.9991Y-4.5876
X7.0768Y-4.2978
X7.1932Y-3.8632
X7.2709Y-3.5734
X7.3874Y-3.1387
X7.465Y-2.849
X7.5165Y-6.2791
X7.5941Y-5.9894
X7.7236Y-4.7817
X7.8012Y-4.492
X7.9177Y-4.0573
X7.9953Y-3.7675
X8.1118Y-3.3328
X8.1894Y-3.0431
X8.2812Y-5.625
X8.5812Y-5.625
X8.6856Y-3.0438
X8.7633Y-3.3335
X8.8798Y-3.7682
X8.9574Y-4.058
X9.0739Y-4.4926
X9.1515Y-4.7824
X9.281Y-5.9901
X9.3586Y-6.2798
X9.4101Y-2.8496
X9.4877Y-3.1394
X9.6042Y-3.5741
X9.6818Y-3.8639
X9.7983Y-4.2985
X9.876Y-4.5883
X9.9763Y-4.9626
X10.0539Y-5.2524
X10.086Y-2.4744
X10.1637Y-2.7642
X10.241Y-5.8299
X10.2801Y-3.1989
X10.3578Y-3.4886
X10.4742Y-3.9233
X10.5308Y-5.7522
X10.5519Y-4.2131
X10.6683Y-4.6477
X10.746Y-4.9375
X10.7611Y-5.477
X10.7619Y-2.0992
X10.8388Y-5.7668
X10.8396Y-2.389
X10.9358Y-6.129
X10.956Y-2.8236
X11.0135Y-6.4188
X11.0337Y-3.1134
X11.1501Y-3.5481
X11.2278Y-3.8379
X11.3443Y-4.2725
X11.4219Y-4.5623
X11.4864Y-1.9051
X11.564Y-2.1949
X11.6805Y-2.6295
X11.7581Y-2.9193
X11.8746Y-3.354
X11.9522Y-3.6437
X12.0687Y-4.0784
X12.1464Y-4.3682
X12.2593Y-1.8921
X12.337Y-2.1818
X12.4535Y-2.6165
X12.5311Y-2.9063
X12.6476Y-3.341
X12.7252Y-3.6307
X12.8417Y-4.0654
X12.9193Y-4.3552
X13.0323Y-1.8791
X13.11Y-2.1688
X13.2485Y-2.5652
X13.3262Y-2.855
X13.4809Y-3.3118
X13.5586Y-3.6016
X13.7295Y-4.1187
X13.8071Y-4.4085
X13.8481Y-4.6822
X13.9258Y-4.972
T3
X9.625Y-1.75
X9.8219Y-1.75
T4
X8.3391Y-4.8297
X8.3391Y-5.4006
X8.4375Y-4.8297
X8.5359Y-4.8297
X8.5359Y-5.4006
T5
X6.2699Y-6.3916
X6.3665Y-6.4175
X7.0428Y-6.4046
X7.1394Y-6.4305
X9.7356Y-6.4312
X9.8322Y-6.4053
X10.5086Y-6.4182
X10.6052Y-6.3923
T6
X8.1375Y-1.3875
X8.1375Y-1.4875
X8.1375Y-1.5875
X8.1375Y-1.6875
X8.1375Y-1.7875
X8.1375Y-1.8875
X8.1375Y-1.9875
X8.1375Y-2.0875
X8.1375Y-2.1875
X8.1375Y-2.2875
X8.1375Y-2.3875
X8.1465Y-2.4875
X8.2375Y-2.4875
X8.3375Y-2.4875
X8.4375Y-2.4875
X8.5375Y-2.4875
X8.6375Y-2.4875
X8.7375Y-1.3875
X8.7375Y-1.4875
X8.7375Y-1.5875
X8.7375Y-1.6875
X8.7375Y-1.7875
X8.7375Y-1.8875
X8.7375Y-1.9875
X8.7375Y-2.0875
X8.7375Y-2.1875
X8.7375Y-2.2875
X8.7375Y-2.3875
X8.7375Y-2.4875
T7
X9.5856Y-1.848
X9.8616Y-1.848
T8
X2.2375Y-4.03
X2.3022Y-3.9878
X2.4056Y-4.8515
X2.4703Y-4.8093
X2.4974Y-4.0197
X2.5048Y-3.9981
X2.6127Y-3.354
X2.6655Y-4.8412
X2.6729Y-4.8196
X2.6774Y-3.3119
X2.8726Y-3.3438
X2.88Y-3.3222
X2.8974Y-2.6539
X2.9621Y-2.6117
X3.1573Y-2.6436
X3.1647Y-2.622
X3.2726Y-1.9779
X3.3373Y-1.9358
X3.4632Y-4.1643
X3.5279Y-4.1221
X3.5325Y-1.9677
X3.5399Y-1.9461
X3.6573Y-3.4398
X3.722Y-3.3977
X3.7231Y-4.154
X3.7306Y-4.1324
X3.8514Y-2.7154
X3.9161Y-2.6732
X3.9173Y-3.4296
X3.9247Y-3.4079
X4.0456Y-1.9909
X4.1102Y-1.9488
X4.1114Y-2.7052
X4.1188Y-2.6835
X4.2362Y-4.1773
X4.3009Y-4.1351
X4.3055Y-1.9807
X4.3129Y-1.9591
X4.4303Y-3.4528
X4.495Y-3.4107
X4.4961Y-4.167
X4.5035Y-4.1454
X4.6244Y-2.7284
X4.6891Y-2.6862
X4.6902Y-3.4426
X4.6977Y-3.421
X4.8185Y-2.004
X4.8832Y-1.9618
X4.8843Y-2.7182
X4.8918Y-2.6965
X5.0092Y-4.1903
X5.0739Y-4.1481
X5.0785Y-1.9937
X5.0859Y-1.9721
X5.2033Y-3.4658
X5.268Y-3.4237
X5.2691Y-4.18
X5.2765Y-4.1584
X5.3389Y-6.2198
X5.3974Y-2.7414
X5.4036Y-6.1776
X5.4621Y-2.6992
X5.4632Y-3.4556
X5.4706Y-3.434
X5.533Y-5.4953
X5.5915Y-2.017
X5.5977Y-5.4532
X5.5988Y-6.2095
X5.6062Y-6.1879
X5.6562Y-1.9748
X5.6573Y-2.7312
X5.6647Y-2.7095
X5.6851Y-4.5655
X5.7498Y-4.5233
X5.7929Y-5.4851
X5.8003Y-5.4634
X5.8514Y-2.0067
X5.8589Y-1.9851
X5.8792Y-3.8411
X5.9439Y-3.7989
X5.945Y-4.5553
X5.9524Y-4.5336
X6.0733Y-3.1166
X6.138Y-3.0745
X6.1391Y-3.8308
X6.1466Y-3.8092
X6.2509Y-6.0759
X6.2674Y-2.3922
X6.3156Y-6.0338
X6.3321Y-2.35
X6.3332Y-3.1064
X6.3407Y-3.0847
X6.361Y-4.9407
X6.4257Y-4.8986
X6.5109Y-6.0657
X6.5183Y-6.044
X6.5273Y-2.3819
X6.5348Y-2.3603
X6.5551Y-4.2163
X6.6198Y-4.1741
X6.6209Y-4.9305
X6.6284Y-4.9088
X6.7492Y-3.4918
X6.8139Y-3.4497
X6.815Y-4.2061
X6.8225Y-4.1844
X6.9433Y-2.7674
X7.008Y-2.7252
X7.0091Y-3.4816
X7.0166Y-3.46
X7.0239Y-6.0889
X7.0886Y-6.0468
X7.2033Y-2.7572
X7.2107Y-2.7355
X7.231Y-4.5915
X7.2838Y-6.0787
X7.2913Y-6.057
X7.2957Y-4.5493
X7.4251Y-3.8671
X7.4898Y-3.8249
X7.491Y-4.5813
X7.4984Y-4.5596
X7.6192Y-3.1426
X7.6839Y-3.1005
X7.6851Y-3.8568
X7.6925Y-3.8352
X7.8792Y-3.1324
X7.8866Y-3.1107
X8.9661Y-3.221
X9.001Y-3.1521
X9.1602Y-3.9454
X9.1817Y-3.0597
X9.1861Y-3.0821
X9.1951Y-3.8765
X9.3543Y-4.6699
X9.3758Y-3.7841
X9.3802Y-3.8066
X9.3892Y-4.601
X9.5614Y-6.1673
X9.5699Y-4.5086
X9.5743Y-4.531
X9.5964Y-6.0984
X9.642Y-2.8457
X9.6769Y-2.7769
X9.777Y-6.006
X9.7814Y-6.0284
X9.8361Y-3.5702
X9.8576Y-2.6844
X9.862Y-2.7069
X9.871Y-3.5013
X10.0302Y-4.2946
X10.0517Y-3.4089
X10.0561Y-3.4313
X10.0652Y-4.2258
X10.2243Y-5.0191
X10.2458Y-4.1333
X10.2502Y-4.1558
X10.2593Y-4.9502
X10.3179Y-2.4705
X10.3344Y-6.1543
X10.3528Y-2.4016
X10.3693Y-6.0854
X10.4399Y-4.8578
X10.4443Y-4.8802
X10.512Y-3.195
X10.5335Y-2.3092
X10.5379Y-2.3317
X10.547Y-3.1261
X10.55Y-5.993
X10.5544Y-6.0154
X10.7061Y-3.9194
X10.7276Y-3.0337
X10.732Y-3.0561
X10.7411Y-3.8505
X10.9002Y-4.6438
X10.9217Y-3.7581
X10.9261Y-3.7806
X10.9352Y-4.575
X10.9938Y-2.0953
X11.0288Y-2.0264
X11.0523Y-5.5737
X11.0873Y-5.5048
X11.1158Y-4.4825
X11.1202Y-4.505
X11.1879Y-2.8197
X11.2094Y-1.934
X11.2138Y-1.9565
X11.2229Y-2.7509
X11.2464Y-6.2981
X11.2679Y-5.4124
X11.2723Y-5.4348
X11.2814Y-6.2292
X11.382Y-3.5442
X11.4035Y-2.6584
X11.4079Y-2.6809
X11.417Y-3.4753
X11.462Y-6.1368
X11.4664Y-6.1593
X11.5762Y-4.2686
X11.5976Y-3.3829
X11.602Y-3.4053
X11.6111Y-4.1997
X11.7668Y-2.0823
X11.7918Y-4.1073
X11.7961Y-4.1298
X11.8017Y-2.0134
X11.9609Y-2.8067
X11.9824Y-1.921
X11.9868Y-1.9435
X11.9958Y-2.7379
X12.155Y-3.5312
X12.1765Y-2.6454
X12.1809Y-2.6679
X12.19Y-3.4623
X12.3491Y-4.2556
X12.3706Y-3.3699
X12.375Y-3.3923
X12.3841Y-4.1867
X12.5398Y-2.0693
X12.5647Y-4.0943
X12.5691Y-4.1168
X12.5747Y-2.0004
X12.7339Y-2.7937
X12.7554Y-1.908
X12.7597Y-1.9304
X12.7688Y-2.7249
X12.928Y-3.5182
X12.9495Y-2.6324
X12.9539Y-2.6549
X12.9629Y-3.4493
X13.1221Y-4.2426
X13.1436Y-3.3569
X13.148Y-3.3793
X13.157Y-4.1737
X13.3127Y-2.0563
X13.3377Y-4.0813
X13.3421Y-4.1038
X13.3477Y-1.9874
X13.5283Y-1.895
X13.5327Y-1.9174
X13.8691Y-2.6837
X13.904Y-2.6148
X14.0847Y-2.5224
X14.0891Y-2.5448
X14.1537Y-3.3838
X14.1667Y-4.1568
X14.1797Y-4.9298
X14.1887Y-3.315
X14.2017Y-4.0879
X14.2147Y-4.8609
X14.3693Y-3.2225
X14.3737Y-3.245
X14.3823Y-3.9955
X14.3867Y-4.018
X14.3953Y-4.7685
X14.3997Y-4.791
T9
G00X8.217Y-5.0994
M15
G01X8.217Y-5.1506
M16
G05
G00X8.658Y-5.0994
M15
G01X8.658Y-5.1506
M16
G05
T0
M30
